SplineFontDB: 2.0
FontName: THKodchasal
FullName: THKodchasal
FamilyName: TH Kodchasal
Weight: Book
Copyright: Copyright (c) 2006 by Department of Intellectual Property (DIP), Ministry of Commerce and Software Industry Promotion Agency (Public Organization) (SIPA). All rights reserved.
Version: 1.1
ItalicAngle: 0
UnderlinePosition: -35
UnderlineWidth: 30
Ascent: 800
Descent: 200
NeedsXUIDChange: 1
XUID: [1021 375 425136265 1643265]
FSType: 0
OS2Version: 3
OS2_WeightWidthSlopeOnly: 0
OS2_UseTypoMetrics: 1
CreationTime: 1157456758
ModificationTime: 1196508075
PfmFamily: 17
TTFWeight: 400
TTFWidth: 5
LineGap: 60
VLineGap: 0
Panose: 2 0 5 6 0 0 0 2 0 4
OS2TypoAscent: 0
OS2TypoAOffset: 1
OS2TypoDescent: 0
OS2TypoDOffset: 1
OS2TypoLinegap: 0
OS2WinAscent: 10
OS2WinAOffset: 1
OS2WinDescent: 4
OS2WinDOffset: 1
HheadAscent: -45
HheadAOffset: 1
HheadDescent: 261
HheadDOffset: 1
OS2SubXSize: 700
OS2SubYSize: 650
OS2SubXOff: 0
OS2SubYOff: 140
OS2SupXSize: 700
OS2SupYSize: 650
OS2SupXOff: 0
OS2SupYOff: 477
OS2StrikeYSize: 30
OS2StrikeYPos: 250
OS2FamilyClass: 773
OS2Vendor: 'IPTH'
Lookup: 4 0 0 "'frac' Diagonal Fractions in Latin lookup 0"  {"'frac' Diagonal Fractions in Latin lookup 0 subtable"  } ['frac' ('latn' <'dflt' > ) ]
Lookup: 6 0 0 "'liga' Standard Ligatures in Latin lookup 1"  {"'liga' Standard Ligatures in Latin lookup 1 subtable"  } ['liga' ('latn' <'dflt' > ) ]
Lookup: 6 0 0 "'liga' Standard Ligatures in Latin lookup 2"  {"'liga' Standard Ligatures in Latin lookup 2 subtable"  } ['liga' ('latn' <'dflt' > ) ]
Lookup: 6 0 0 "'liga' Standard Ligatures in Latin lookup 3"  {"'liga' Standard Ligatures in Latin lookup 3 subtable"  } ['liga' ('latn' <'dflt' > ) ]
Lookup: 6 0 0 "'liga' Standard Ligatures in Latin lookup 4"  {"'liga' Standard Ligatures in Latin lookup 4 subtable"  } ['liga' ('latn' <'dflt' > ) ]
Lookup: 6 0 0 "'liga' Standard Ligatures in Latin lookup 5"  {"'liga' Standard Ligatures in Latin lookup 5 subtable"  } ['liga' ('latn' <'dflt' > ) ]

StartChar: .notdef
Encoding: 65536 -1 0
Width: 736
VWidth: 1473
Flags: W
HStem: 0 52<143 592> 972 52<143 592>
VStem: 93 50<52 972> 592 50<52 972>
Fore
592 52 m 1
 592 972 l 1
 143 972 l 1
 143 52 l 1
 592 52 l 1
642 0 m 1
 93 0 l 1
 93 1024 l 1
 642 1024 l 1
 642 0 l 1
EndSplineSet
EndChar
StartChar: numbersign
Encoding: 35 35 4
Width: 674
VWidth: 1473
Flags: W
HStem: 221 56<82.218 192 256 398 463 559.934> 461 56<124.079 234 299 439 505 602.694>
Fore
604 488 m 0
 601.333 470 586.667 461 560 461 c 2
 495 461 l 1
 463 277 l 1
 527 277 l 2
 553 277 564.333 267 561 247 c 0
 558.333 229.667 543.667 221 517 221 c 2
 452 221 l 1
 420 38 l 2
 416 12.6667 404.667 -9.53674e-07 386 0 c 0
 368 0 361 12.6667 365 38 c 2
 398 221 l 1
 247 221 l 1
 215 38 l 2
 211 12.6667 199.667 -9.53674e-07 181 0 c 0
 161.667 0 155 12.6667 161 38 c 2
 192 221 l 1
 115 221 l 2
 88.3333 221 76.6667 229.667 80 247 c 0
 82.6667 267 97.3333 277 124 277 c 2
 202 277 l 1
 234 461 l 1
 156 461 l 2
 130.667 461 119.333 470 122 488 c 0
 125.333 507.333 140 517 166 517 c 2
 245 517 l 1
 273 675 l 2
 276.333 701.667 288 715 308 715 c 0
 324.667 715 331 701.667 327 675 c 2
 299 517 l 1
 449 517 l 1
 477 675 l 2
 481 701.667 493 715 513 715 c 0
 530.333 715 537 701.667 533 675 c 2
 505 517 l 1
 569 517 l 2
 595 517 606.667 507.333 604 488 c 0
290 461 m 1
 256 277 l 1
 407 277 l 1
 439 461 l 1
 290 461 l 1
EndSplineSet
EndChar
StartChar: dollar
Encoding: 36 36 5
Width: 623
VWidth: 1473
Flags: W
HStem: -6 59<185.623 283 339 443.7> 330 57<193.988 283 339 445.826> 661 58<184.905 283 339 449.669>
VStem: 34 57<453.04 586.181> 283 56<-86.226 -6 53 327 387 661 720 803.229> 539 58<128.741 258.087>
Fore
339 385 m 1
 483 379 597 311 597 199 c 0
 597 117 542 5 339 -6 c 1
 339 -47 l 2
 339 -74 330 -87 312 -87 c 0
 293 -87 283 -74 283 -47 c 2
 283 -6 l 1
 102 9 27 112 34 139 c 0
 40 162 73 172 87 147 c 0
 118 95 196 58 283 53 c 1
 283 330 l 1
 137 343 34 404 34 514 c 0
 34 637 129 710 283 719 c 1
 283 765 l 2
 283 791 293 804 312 804 c 0
 330 804 339 791 339 765 c 2
 339 720 l 1
 454 715 551 668 592 597 c 0
 608 575 584 548 561 554 c 0
 533 562 541 597 464 633 c 0
 428 650 386 660 339 661 c 1
 339 385 l 1
283 661 m 1
 198 657 91 621 91 514 c 0
 91 430 176 403 283 387 c 1
 283 661 l 1
339 52 m 1
 424 54 539 92 539 199 c 256
 539 276 450 321 339 327 c 1
 339 52 l 1
EndSplineSet
EndChar
StartChar: percent
Encoding: 37 37 6
Width: 593
VWidth: 1473
Flags: W
HStem: 0 43<363.772 479.33> 221 44<364.627 478.909> 486 44<111.264 228.041> 709 42<112.796 228.817>
VStem: 38 43<561.567 677.857> 259 44<561.087 678.244> 289 44<74.542 189.529> 510 44<73.583 189.62>
Fore
171 751 m 256xfd
 245.843 751 303 694.9 303 619 c 0
 303 547.248 248.649 486 171 486 c 256
 93.2819 486 38 547.275 38 619 c 0
 38 695.818 97.0719 751 171 751 c 256xfd
93 9 m 2
 77.7693 -15.6034 52.1891 -0.29696 47 17 c 0
 45 23.6667 46 29.6667 50 35 c 2
 489 742 l 2
 507.205 771.409 544.749 744.685 532 716 c 2
 93 9 l 2
421 265 m 256
 498.426 265 554 203.751 554 133 c 0
 554 55.0829 493.787 1.85933e-06 421 0 c 256
 344.182 0 289 59.0719 289 133 c 0xfb
 289 203.764 343.659 265 421 265 c 256
171 530 m 0
 223.8 530 259 572.2 259 619 c 0xfd
 259 671.302 219.528 709 171 709 c 0
 118.186 709 81 668.414 81 619 c 0
 81 570.549 118.701 530 171 530 c 0
421 43 m 256
 468.763 43 510 78.5286 510 133 c 0
 510 180.028 472.94 221 421 221 c 256
 371.103 221 333 179.568 333 133 c 0xfb
 333 78.9601 374.208 43 421 43 c 256
EndSplineSet
EndChar
StartChar: ampersand
Encoding: 38 38 7
Width: 769
VWidth: 1473
Flags: W
HStem: -7 59<201.758 407.485> 709 51<284.399 435.652>
VStem: 63 57<128.664 285.561> 177 59<562.015 664.75> 477 58<569.17 667.957> 598 63<277.218 415.672>
Fore
628 417 m 0
 643 417 661 411 661 386 c 0
 661 339 629 227 598 165 c 1
 598 166 601 163 607 156 c 0
 694 65 718 48 716 28 c 0
 716 18 699 3 684 3 c 0
 669 3 656 17 638 34 c 2
 580 93 l 2
 571 103 564 110 560 113 c 1
 541 94 l 2
 506 59 408 -7 287 -7 c 0
 154.924 -7 63 83.6105 63 205 c 0
 63 345 208 437 255 457 c 1
 183 529 177 584 177 614 c 0
 177 702 275 760 362 760 c 0
 464 760 535 706 535 619 c 0
 535 563 502 517 436 482 c 0
 397 458 372 445 355 438 c 1
 384 404 l 1
 555 212 l 1
 564 223 595 334 598 385 c 0
 600 399 609 417 628 417 c 0
361 709 m 0
 323.235 709 236 683.428 236 611 c 0
 236 551 299 490 309 477 c 1
 356 499 l 2
 398 519 477 568 477 614 c 0
 477 637 457 709 361 709 c 0
120 209 m 0
 120 106 198 52 301 52 c 0
 381 52 473 88 522 158 c 1
 521 161 512 171 495 190 c 2
 298 415 l 1
 274 404 120 332 120 209 c 0
EndSplineSet
EndChar
StartChar: quotesingle
Encoding: 39 39 8
Width: 197
VWidth: 1473
Flags: W
HStem: 474 248<65.2266 119.25>
VStem: 63 58<475.182 721.249>
Fore
122 514 m 2
 125.17 483.881 113.229 476.137 94 474 c 0
 73.3333 474 63 487.333 63 514 c 2
 63 684 l 2
 62.3333 709.333 72.3333 722 93 722 c 0
 111.667 722 121 709.333 121 684 c 2
 122 514 l 2
EndSplineSet
EndChar
StartChar: parenleft
Encoding: 40 40 9
Width: 294
VWidth: 1473
Flags: W
VStem: 93 54<26.6799 560.069>
Fore
147 292 m 256
 147 35 206 -138 206 -140 c 1
 217 -166 192 -186 171 -176 c 0
 141 -163 93 81 93 292 c 256
 93 563 156 740 158 742 c 1
 167 776 222 760 206 722 c 0
 187.442 677.925 147 492.569 147 292 c 256
EndSplineSet
EndChar
StartChar: parenright
Encoding: 41 41 10
Width: 294
VWidth: 1473
Flags: W
VStem: 149 53<30.5921 552.403>
Fore
202 292 m 256
 202 39 144 -155 138 -161 c 1
 133 -174 121 -183 103 -177 c 1
 91 -171 82 -158 88 -140 c 2
 98 -108 l 2
 114 -54 149 110 149 292 c 256
 149 446 122 616 98 690 c 0
 91 710 88 721 88 722 c 1
 82 740 92 753 103 759 c 1
 114 763 131 763 138 742 c 1
 143 737 202 541 202 292 c 256
EndSplineSet
EndChar
StartChar: asterisk
Encoding: 42 42 11
Width: 674
VWidth: 1473
Flags: W
HStem: 314 430<329.402 347.487>
VStem: 157 362<424 636 468.718 633.953> 312 36<338.731 503.883 555.718 720.953>
Fore
337 744 m 0xa0
 350 744 362 736 362 723 c 0
 362 680 349 593 348 550 c 1xa0
 411.168 596.323 418.767 615.21 482 660 c 0
 499 675 537 645 511 619 c 1
 466 588 428 577 357 529 c 1
 400 498 429 492 511 439 c 1
 519 424 l 1xc0
 521 408 501 386 482 398 c 0
 448.78 420.687 476.256 401.851 348 508 c 1
 349.791 443.52 362 394.403 362 336 c 0
 362 323 347 314 337 314 c 0
 329 314 312 323 312 336 c 0xa0
 312 406 324 419 329 508 c 1
 257 459 229 422 193 398 c 1
 185 390 166 396 162 405 c 1
 154 414 156 431 165 438 c 0
 221 480 241 481 320 529 c 1
 164.655 617.97 158.694 619.06 157 636 c 0xc0
 156 642 158 648 162 653 c 1
 166 661 185 669 193 661 c 1
 265 612 243 611 329 550 c 1
 320 674 312 668 312 723 c 0
 312 736 327 744 337 744 c 0xa0
EndSplineSet
EndChar
StartChar: plus
Encoding: 43 43 12
Width: 606
VWidth: 1473
Flags: W
HStem: 25 458<277.117 329.166> 224 56<81.791 275 331 525.209>
VStem: 81 445<226.046 278.095> 275 56<25.9766 224 280 482.023>
Fore
526 253 m 0x60
 526 233.667 512.667 224 486 224 c 2
 331 224 l 1x50
 331 65 l 2
 331 38.3333 322.333 25 305 25 c 0x90
 285 25 275 38.3333 275 65 c 2
 275 224 l 1x50
 121 224 l 2
 94.3333 224 81 233.667 81 253 c 0x60
 81 271 94.3333 280 121 280 c 2
 275 280 l 1x50
 275 443 l 2
 275 469.667 285 483 305 483 c 0x90
 322.333 483 331 469.667 331 443 c 2
 331 280 l 1x50
 486 280 l 2
 512.667 280 526 271 526 253 c 0x60
EndSplineSet
EndChar
StartChar: comma
Encoding: 44 44 13
Width: 293
VWidth: 1473
Flags: W
HStem: -6 125<98.9983 160.672>
VStem: 81 137<30.5718 98.1682>
Fore
81 52 m 0
 81 89 110 119 148 119 c 0
 176 119 218 99 218 33 c 0
 218 -35 152 -109 103 -109 c 0
 87 -109 73 -101 73 -89 c 0
 73 -82 78 -75 87 -69 c 1
 146 -44 158 -25 165 0 c 1
 159 -4 154 -6 149 -6 c 0
 87 -6 81 34 81 52 c 0
EndSplineSet
EndChar
StartChar: hyphen
Encoding: 45 45 14
Width: 515
VWidth: 1473
Flags: W
HStem: 225 56<82.625 431.375 122 392 122 122>
VStem: 82 350<226.976 279.024>
Fore
432 253 m 256
 432 234.333 418.667 225 392 225 c 2
 122 225 l 2
 95.3333 225 82 234.333 82 253 c 256
 82 271.667 95.3333 281 122 281 c 2
 392 281 l 2
 418.667 281 432 271.667 432 253 c 256
EndSplineSet
EndChar
StartChar: period
Encoding: 46 46 15
Width: 297
VWidth: 1473
Flags: W
HStem: 1 124<105.787 198.213>
VStem: 90 124<16.7867 109.213>
Fore
152 1 m 256
 116.619 1 90 30.7409 90 63 c 256
 90 98.3814 119.741 125 152 125 c 256
 187.381 125 214 95.2591 214 63 c 256
 214 27.6186 184.259 1 152 1 c 256
EndSplineSet
EndChar
StartChar: slash
Encoding: 47 47 16
Width: 484
VWidth: 1473
Flags: W
VStem: 47 386<-55 678 -55 -55>
Fore
93 -75 m 2
 75.1823 -107.072 35.0611 -78.8778 47 -55 c 2
 387 698 l 2
 404.841 730.114 446.919 703.055 433 678 c 2
 93 -75 l 2
EndSplineSet
EndChar
StartChar: zero
Encoding: 48 48 17
Width: 658
VWidth: 1473
Flags: W
HStem: -3 63<236.85 423.55> 654 63<234.189 426.276>
VStem: 59 63<202.918 519.076> 538 63<201.953 518.251>
Fore
330 717 m 0
 534 717 601 552 601 357 c 256
 601 161 534 -3 330 -3 c 256
 113 -3 59 184 59 357 c 0
 59 650 222 717 330 717 c 0
122 357 m 256
 122 203 167 60 330 60 c 0
 413 60 538 99 538 357 c 0
 538 578 455 654 330 654 c 256
 149 654 122 486 122 357 c 256
EndSplineSet
EndChar
StartChar: one
Encoding: 49 49 18
Width: 478
VWidth: 1473
Flags: W
HStem: 0 21G<287 305> 703 20G<292.5 302.5>
VStem: 77 252<602 626 619 683 619 619> 264 65<2.00677 647>
Fore
296 0 m 256xd0
 278 0 264 15 264 31 c 2
 264 647 l 1xd0
 119 591 l 2
 116 590 112 589 109 589 c 0
 93 589 77 602 77 619 c 0
 77 626 80 645 97 651 c 2
 284 722 l 2
 287 723 291 723 294 723 c 0
 311 723 329 714 329 683 c 2xe0
 329 31 l 2
 329 15 314 -0 296 0 c 256xd0
EndSplineSet
EndChar
StartChar: two
Encoding: 50 50 19
Width: 642
VWidth: 1473
Flags: W
HStem: 0 63<164 581.557> 657 60<220.942 433.529>
VStem: 520 60<478.026 582.05>
Fore
552 63 m 2
 571 63 583 48 583 32 c 0
 583 14 571 -0 552 0 c 2
 91 0 l 2
 72 0 58 18 58 36 c 0
 58 48 62 57 71 65 c 2
 458 386 l 2
 516 436 520 492 520 510 c 0
 520 610 418 657 336 657 c 0
 172 657 136 566 131 482 c 0
 128 441 71 441 71 486 c 0
 82 640 171 717 336 717 c 0
 463 717 580 628 580 509 c 0
 580 481 573 411 494 339 c 2
 164 63 l 1
 552 63 l 2
EndSplineSet
EndChar
StartChar: three
Encoding: 51 51 20
Width: 624
VWidth: 1473
Flags: W
HStem: -10 58<210.479 414.921> 349 59<232.927 410> 664 58<202.628 399.817>
VStem: 52 63<132.46 235.661> 482 64<450.768 586.406> 506 61<129.46 300.265>
Back
53 546 m 0xf8
 53 583 100 732 314 732 c 0
 459 732 546 628 546 528 c 0xf8
 546 471 523 425 476 386 c 1
 512 366 567 318 567 217 c 0
 567 31 402 -15 308 -15 c 0
 190 -15 52 53 52 206 c 0
 52 225 66 237 84 237 c 256
 95 237 115 231 115 206 c 0
 115 95 220 44 308 44 c 0
 390 44 506 78 506 216 c 0xf4
 506 272 489 326 415 351 c 1
 247 351 l 2
 238 351 217 357 217 379 c 256
 217 398 234 411 247 411 c 2
 410 411 l 1
 435 425 482 456 482 524 c 0
 482 588 424 672 306 672 c 0
 216 672 128 630 112 544 c 0
 106 513 94 514 81 514 c 0
 62 514 53 527 53 546 c 0xf8
EndSplineSet
Fore
53 540 m 0xf8
 53 576 100 722 314 722 c 0
 459 722 546 621 546 523 c 0xf8
 546 467 523 422 476 383 c 1
 512 364 567 317 567 218 c 0
 567 36 402 -10 308 -10 c 0
 190 -10 52 57 52 207 c 0
 52 226 66 237 84 237 c 256
 95 237 115 232 115 207 c 0
 115 98 220 48 308 48 c 0
 390 48 506 82 506 217 c 0xf4
 506 272 489 325 415 349 c 1
 247 349 l 2
 238 349 217 355 217 377 c 256
 217 395 234 408 247 408 c 2
 410 408 l 1
 435 422 482 452 482 519 c 0
 482 581 424 664 306 664 c 0
 216 664 128 623 112 538 c 0
 106 508 94 509 81 509 c 0
 62 509 53 522 53 540 c 0xf8
EndSplineSet
EndChar
StartChar: four
Encoding: 52 52 21
Width: 654
VWidth: 1473
Flags: W
HStem: 0 21G<464.5 489> 143 59<136 446 507 584.847>
VStem: 446 61<16.1621 143 202 607>
Fore
570 202 m 2
 580 202 601 196 601 174 c 256
 601 156 586 143 570 143 c 2
 507 143 l 1
 507 32 l 2
 507 16 501 -0 477 0 c 256
 452 0 446 19 446 32 c 2
 446 143 l 1
 68 143 l 2
 37 143 29 177 44 194 c 2
 454 710 l 1
 474 725 507 716 507 687 c 2
 507 202 l 1
 570 202 l 2
446 607 m 1
 136 202 l 1
 446 202 l 1
 446 607 l 1
EndSplineSet
EndChar
StartChar: five
Encoding: 53 53 22
Width: 651
VWidth: 1473
Flags: W
HStem: -6 59<231.766 422.374> 443 60<224.695 431.117> 654 61<190 559.218>
VStem: 531 60<163.116 348.501>
Fore
591 260 m 0
 591 99 479 -6 330 -6 c 0
 121 -6 59 176 59 209 c 0
 59 220 70 241 94 241 c 0
 131 241 107 197 157 134 c 0
 198 81 258 53 326 53 c 0
 458 53 531 148 531 263 c 0
 531 371 447 443 327 443 c 0
 261 443 201 417 164 383 c 2
 144 362 l 2
 123 341 83 362 90 389 c 2
 138 715 l 1
 530 715 l 2
 548 715 561 701 561 682 c 0
 561 671 553 654 530 654 c 2
 190 654 l 1
 161 451 l 1
 206 480 264 503 337 503 c 0
 478 503 591 406 591 260 c 0
EndSplineSet
EndChar
StartChar: six
Encoding: 54 54 23
Width: 674
VWidth: 1473
Flags: W
HStem: -10 60<243.688 440.776> 413 57<277.598 436.83> 656 66<268.382 460.929>
VStem: 59 82<173.571 398.406> 59 69<353 484.488> 550 64<149.231 308.468>
Back
128 354 m 1xec
 197 466 307 474 349 474 c 0
 579 474 614 299 614 220 c 0
 614 78 481 -18 336 -18 c 0
 114 -18 59 165 59 333 c 0xf4
 59 543 149 732 371 732 c 0
 502 732 582 644 601 591 c 0
 610 557 592 541 568 541 c 0
 529 541 549 580 478 632 c 0
 452 651 416 664 371 664 c 0
 274 664 138 616 128 354 c 1xec
349 43 m 256
 461 43 550 129 550 228 c 0
 550 320 466 415 349 415 c 256
 239 415 141 333 141 222 c 0
 141 115 230 43 349 43 c 256
EndSplineSet
Fore
128 353 m 1xec
 197 462 307 470 349 470 c 0
 579 470 614 299 614 222 c 0
 614 84 481 -10 336 -10 c 0
 114 -10 59 169 59 333 c 0xf4
 59 538 149 722 371 722 c 0
 502 722 582 636 601 584 c 0
 610 551 592 536 568 536 c 0
 529 536 549 574 478 624 c 0
 452 643 416 656 371 656 c 0
 274 656 138 609 128 353 c 1xec
349 50 m 256
 461 50 550 133 550 230 c 0
 550 320 466 413 349 413 c 256
 239 413 141 333 141 224 c 0
 141 120 230 50 349 50 c 256
EndSplineSet
EndChar
StartChar: seven
Encoding: 55 55 24
Width: 598
VWidth: 1473
Flags: W
HStem: 653 63<45.6668 476>
VStem: 44 497<654.978 714.276>
Fore
44 684 m 0
 44 701.237 57.6339 716 77 716 c 2
 541 716 l 1
 541 629 l 1
 194 13 l 2
 171.818 -25.0266 120.215 10.0825 140 44 c 2
 476 653 l 1
 77 653 l 2
 58.094 653 44 667.744 44 684 c 0
EndSplineSet
EndChar
StartChar: eight
Encoding: 56 56 25
Width: 662
VWidth: 1473
Flags: W
HStem: -10 61<226.224 435.063> 364 60<242.205 419.294> 662 60<243.377 419.847>
VStem: 60 62<140.898 276.837> 108 64<485.948 600.507> 491 63<486.286 598.584> 539 64<140.833 275.918>
Back
468 399 m 1xec
 538 368 603 296 603 205 c 0
 603 68 464 -22 331 -22 c 0
 199 -22 60 66 60 205 c 0xf2
 60 299 124 366 194 399 c 1
 150 427 108 483 108 548 c 0
 108 640 194 735 331 735 c 0
 444 735 554 658 554 548 c 256
 554 488 520 427 468 399 c 1xec
330 426 m 256
 432 426 491 496 491 547 c 0
 491 618 414 672 331 672 c 256
 253 672 172 622 172 548 c 0xec
 172 492 236 426 330 426 c 256
331 41 m 0
 446 41 539 114 539 205 c 0
 539 299 436 364 331 364 c 256
 230 364 122 301 122 205 c 0xf2
 122 116 212 41 331 41 c 0
EndSplineSet
Fore
468 398 m 1xec
 538 368 603 298 603 210 c 0
 603 78 464 -10 331 -10 c 0
 199 -10 60 76 60 210 c 0xf2
 60 301 124 366 194 398 c 1
 150 425 108 479 108 542 c 0
 108 631 194 722 331 722 c 0
 444 722 554 648 554 542 c 256
 554 484 520 425 468 398 c 1xec
330 424 m 256
 432 424 491 491 491 541 c 0
 491 609 414 662 331 662 c 256
 253 662 172 613 172 542 c 0xec
 172 488 236 424 330 424 c 256
331 51 m 0
 446 51 539 122 539 210 c 0
 539 301 436 364 331 364 c 256
 230 364 122 303 122 210 c 0xf2
 122 124 212 51 331 51 c 0
EndSplineSet
EndChar
StartChar: nine
Encoding: 57 57 26
Width: 646
VWidth: 1473
Flags: W
HStem: -6 66<201.316 384.136> 243 58<213.984 397.792> 661 61<215.955 398.142>
VStem: 47 65<399.029 564.289> 502 86<305.798 536.057> 522 66<219.38 352>
Fore
588 371 m 0xf8
 588 171 499 -6 284 -6 c 0
 166 -6 83 75 62 134 c 0
 46 169 101 205 122 159 c 0
 133 127 195 60 286 60 c 0
 475 60 522 232 522 352 c 1xf4
 476 282 398 243 306 243 c 0
 170 243 47 318 47 471 c 0
 47 598 142 722 309 722 c 0
 476 722 588 626 588 371 c 0xf8
306 301 m 256
 408 301 502 375 502 482 c 0xf8
 502 579 413 661 308 661 c 256
 202 661 112 583 112 483 c 0
 112 380 200 301 306 301 c 256
EndSplineSet
EndChar
StartChar: colon
Encoding: 58 58 27
Width: 294
VWidth: 1473
Flags: W
HStem: -7 123<104.798 199.248> 354 123<105.787 198.213>
VStem: 90 124<8.34232 100.673 369.327 461.213>
Fore
152 354 m 256
 116.669 354 90 382.651 90 415 c 256
 90 450.381 119.741 477 152 477 c 256
 187.381 477 214 447.259 214 415 c 256
 214 379.531 184.259 354 152 354 c 256
152 -7 m 256
 119.286 -7 90 18.5762 90 55 c 256
 90 90.469 119.741 116 152 116 c 256
 187.331 116 214 87.3486 214 55 c 256
 214 18.5406 184.709 -7 152 -7 c 256
EndSplineSet
EndChar
StartChar: semicolon
Encoding: 59 59 28
Width: 294
VWidth: 1473
Flags: W
HStem: -6 125<98.4975 160.811> 354 123<105.874 198.126>
VStem: 81 137<7.375 98.1682> 90 124<369.444 461.126>
Fore
152 354 m 256xd0
 117 354 90 383 90 415 c 256
 90 450 120 477 152 477 c 256
 187 477 214 447 214 415 c 0
 214 379 184 354 152 354 c 256xd0
141 -6 m 0
 105 -6 81 21 81 52 c 0
 81 89 110 119 148 119 c 0
 176 119 218 99 218 33 c 0xe0
 218 -35 152 -109 103 -109 c 0
 87 -109 73 -101 73 -89 c 0
 73 -82 78 -75 87 -69 c 1
 146 -44 158 -25 165 0 c 1
 153 -8 148 -6 141 -6 c 0
EndSplineSet
EndChar
StartChar: less
Encoding: 60 60 29
Width: 677
VWidth: 1473
Flags: W
VStem: 108 466<236 495 236 236>
Fore
558 49 m 2
 596 24 561 -26 527 -6 c 2
 109 234 l 1
 109 235 109 236 108 236 c 1
 92 244 88 278 109 289 c 2
 527 529 l 2
 553 544 581 520 574 495 c 0
 571 487 566 481 558 476 c 2
 171 262 l 1
 558 49 l 2
EndSplineSet
EndChar
StartChar: equal
Encoding: 61 61 30
Width: 692
VWidth: 1473
Flags: W
HStem: 127 249<118 575 118 575 118 118> 127 56<80.7685 612.232> 321 55<80.6074 612.393>
Fore
613 156 m 0x40
 613 137 600 127 575 127 c 2
 118 127 l 2x80
 93 127 80 137 80 156 c 0
 80 174 93 183 118 183 c 2
 575 183 l 2
 600 183 613 174 613 156 c 0x40
613 349 m 0
 613 330 600 321 575 321 c 2
 118 321 l 2x20
 93 321 80 330 80 349 c 0
 80 367 93 376 118 376 c 2
 575 376 l 2
 600 376 613 367 613 349 c 0
EndSplineSet
EndChar
StartChar: greater
Encoding: 62 62 31
Width: 677
VWidth: 1473
Flags: W
VStem: 116 451<49 236 49 49>
Fore
566 289 m 2
 587 276 584 244 567 236 c 1
 566 236 566 235 566 234 c 1
 147 -6 l 2
 117 -25 77 21 116 49 c 2
 504 262 l 1
 116 476 l 2
 79 500 114 550 147 529 c 2
 566 289 l 2
EndSplineSet
EndChar
StartChar: question
Encoding: 63 63 32
Width: 634
VWidth: 1473
Flags: W
HStem: -7 104<205.299 290.912> 691 54<206.054 410.429>
VStem: 196 105<2.45568 86.979> 220 54<138.468 282.684> 495 56<469.837 613.726>
Fore
303 745 m 0xd8
 440 745 551 676 551 529 c 0
 551 370 422 355 321 305 c 0
 290 290 274 249 274 206 c 2
 274 178 l 2
 274 151 265 138 247 138 c 0
 229 138 220 151 220 178 c 2
 220 206 l 2
 220 360 354 366 431 410 c 0
 491 444 495 495 495 529 c 256
 495 659 390 691 306 691 c 0
 228 691 168 660 125 597 c 0
 112 576 77 592 77 615 c 0
 77 634.291 146.072 745 303 745 c 0xd8
247 97 m 256
 279 97 301 73 301 44 c 256
 301 13 277 -7 247 -7 c 256
 216 -7 196 16 196 44 c 256xe8
 196 75 218 97 247 97 c 256
EndSplineSet
EndChar
StartChar: at
Encoding: 64 64 33
Width: 947
VWidth: 1473
Flags: W
HStem: -39 48<384.473 576.18> -28 63<531.698 643.088> 133 44<357.897 514.845 639.803 704.293> 402 49<372.817 582.143> 554 47<395.242 590.033> 708 51<387.903 618.302>
VStem: 100 50<213.961 463.075> 260 40<218.372 342.357> 595 41<170.44 198.809> 644 45<404.643 503.995> 797 49<295.822 533.29>
Fore
505 708 m 0xbfe0
 350 708 150 596 150 329 c 0
 150 178 253 9 475 9 c 0xbfe0
 533 9 594 23 620 35 c 1
 646 42 672 30 664 6 c 0
 660 -4 655 -14 591 -28 c 0x7fe0
 558 -35 521 -39 480 -39 c 0
 437 -39 369 -36 308 -7 c 0
 128 77 100 242 100 330 c 0
 100 611 312 759 497 759 c 0
 674 759 846 646 846 416 c 0
 846 206 714 127 659 127 c 0
 605 127 595 173 595 185 c 0
 595 189 596 194 598 199 c 1
 546 153 489 133 423 133 c 0
 315 133 260 205 260 279 c 0
 260 382 349 451 489 451 c 0
 546 448 627 430 635 370 c 1
 641 397 644 420 644 442 c 0
 644 518 574 554 503 554 c 0
 377 554 341 480 324 511 c 0
 306 548 402 601 510 601 c 0
 606 601 689 552 689 454 c 0
 689 431 686 409 682 389 c 2
 638 202 l 2
 637 197 636 193 636 189 c 0
 636 176 643 170 656 170 c 0
 712 170 797 267 797 423 c 0
 797 595 665 708 505 708 c 0xbfe0
429 177 m 0
 572 177 616 260 616 316 c 0
 616 368 581 402 477 402 c 0
 414 402 300 378 300 280 c 0
 300 218 350 177 429 177 c 0
EndSplineSet
EndChar
StartChar: A
Encoding: 65 65 34
Width: 723
VWidth: 1473
Flags: W
HStem: 0 21G<78.5 97 628.5 646.5> 330 55<114 610> 666 56<242.206 482.903>
VStem: 60 54<0.611328 330 385 550.662> 610 54<0.611328 330 385 549.537>
Fore
364 722 m 256
 628 722 664 534 664 464 c 2
 664 40 l 2
 664 13 655 0 638 0 c 0
 619 0 610 13 610 40 c 2
 610 330 l 1
 114 330 l 1
 114 40 l 2
 114 13 106 0 88 0 c 0
 69 0 60 13 60 40 c 2
 60 462 l 2
 60 526 95 722 364 722 c 256
364 666 m 256
 146 666 114 519 114 461 c 2
 114 385 l 1
 610 385 l 1
 610 448 l 2
 612 505 590 666 364 666 c 256
EndSplineSet
EndChar
StartChar: B
Encoding: 66 66 35
Width: 721
VWidth: 1473
Flags: W
HStem: 0 53<210.487 528.899> 331 55<166.611 539.875> 669 53<241.188 480.982>
VStem: 60 56<147.69 471 471 555.76> 600 56<441.018 574.893> 611 56<121.403 274.209>
Fore
357 669 m 0xf8
 237 669 116 608 116 471 c 2
 116 234 l 2
 116 122 201 53 303 53 c 2
 433 53 l 2
 584 62 611 141 611 199 c 0xf4
 611 305 520 331 458 331 c 2
 206 331 l 2
 179 331 166 340 166 359 c 0
 166 377 179 386 206 386 c 2
 460 386 l 2
 548 386 600 447 600 501 c 0
 600 602 501 669 357 669 c 0xf8
315 0 m 2
 160 0 60 97 60 240 c 2
 60 471 l 2
 60 655 204 722 357 722 c 0
 537 722 656 634 656 501 c 256xf8
 656 415 600 371 557 358 c 1
 591 342 667 294 667 199 c 0
 667 40 520 0 433 0 c 2
 315 0 l 2
EndSplineSet
EndChar
StartChar: C
Encoding: 67 67 36
Width: 676
VWidth: 1473
Flags: W
HStem: -4 57<280.368 515.497> 664 58<277.418 515.445>
VStem: 43 57<233.744 485.394>
Fore
43 358 m 0
 43 587 193 722 395 722 c 0
 547 722 618 650 647 613 c 0
 652 607 654 600 654 592 c 0
 654 570 626 556 604 573 c 1
 576 612 520 664 395 664 c 0
 205 664 100 530 100 358 c 256
 100 177 218 53 395 53 c 0
 520 53 575 104 604 141 c 0
 609 147 615 150 623 150 c 0
 642 150 653 137 653 122 c 0
 653 92 557 -4 395 -4 c 0
 172 -4 43 158 43 358 c 0
EndSplineSet
EndChar
StartChar: D
Encoding: 68 68 37
Width: 717
VWidth: 1473
Flags: W
HStem: 0 53<161.12 410.096> 664 53<157.921 410.38>
VStem: 62 54<93.0632 624.242> 616 54<244.599 470.295>
Fore
277 717 m 2
 513 717 670 573 670 358 c 0
 670 144 514 -0 277 0 c 2
 243 0 l 2
 170 0 62 42 62 149 c 2
 62 567 l 2
 62 657 136 717 243 717 c 2
 277 717 l 2
116 147 m 2
 116 79 189 53 243 53 c 2
 277 53 l 2
 416 53 616 126 616 358 c 256
 616 543 476 664 277 664 c 2
 243 664 l 2
 171 664 119 630 116 570 c 2
 116 147 l 2
EndSplineSet
EndChar
StartChar: E
Encoding: 69 69 38
Width: 649
VWidth: 1473
Flags: W
HStem: -7 54<216.093 427.901> 330 55<96 453.389> 667 55<220.207 429.242>
VStem: 40 56<155 330 385 554.781>
Fore
327 -7 m 0
 187 -7 40 70 40 234 c 2
 40 477 l 2
 40 666 223 722 327 722 c 0
 551 722 613 604 613 574 c 0
 613 552 576 541 563 566 c 0
 503 674 345 667 321 667 c 0
 211 667 96 592 96 476 c 2
 96 385 l 1
 414 385 l 2
 441 385 454 376 454 358 c 0
 454 339 441 330 414 330 c 2
 96 330 l 1
 96 239 l 2
 96 111 211 47 321 47 c 0
 349 47 504 41 563 149 c 0
 576 171 628 168 610 119 c 0
 562 27 445 -7 327 -7 c 0
EndSplineSet
EndChar
StartChar: F
Encoding: 70 70 39
Width: 655
VWidth: 1473
Flags: W
HStem: -1 21G<80.5 98.5> 330 55<118 475.389> 667 55<241.054 451.672>
VStem: 62 54<-0.231537 330 385 553.343>
Fore
343 667 m 0
 231 667 118 590 118 476 c 2
 118 385 l 1
 436 385 l 2
 463 385 476 376 476 358 c 0
 476 339 463 330 436 330 c 2
 116 330 l 1
 116 37 l 2
 116 12 107 -1 90 -1 c 0
 71 -1 62 12 62 37 c 2
 62 479 l 2
 62 654 228 722 349 722 c 0
 573 722 641 600 636 572 c 0
 633 553 598 542 585 566 c 0
 525 674 367 667 343 667 c 0
EndSplineSet
EndChar
StartChar: G
Encoding: 71 71 40
Width: 736
VWidth: 1473
Flags: W
HStem: -7 54<280.072 516.036> 329 57<268.042 637.002> 667 55<275.371 522.872>
VStem: 43 57<233.618 487.256> 648 58<157.986 268 268 320.016>
Fore
293 329 m 2
 251 329 249 344 249 357 c 256
 249 370 254 378 265 382 c 1
 276 384 285 386 293 386 c 2
 588 386 l 2
 682 386 706 324 706 268 c 2
 706 211 l 2
 706 95 556 -7 399 -7 c 0
 172 -7 43 144 43 355 c 256
 43 571 171 722 401 722 c 0
 527 722 634 670 682 600 c 0
 687 592 694 567 676 557 c 0
 661 546 645 553 636 566 c 0
 583 637 488 667 399 667 c 0
 204 667 100 538 100 355 c 0
 100 179 207 47 399 47 c 0
 577 47 648 168 648 211 c 2
 648 268 l 2
 648 317 622 329 588 329 c 2
 293 329 l 2
EndSplineSet
EndChar
StartChar: H
Encoding: 72 72 41
Width: 738
VWidth: 1473
Flags: W
HStem: 1 21G<86.6667 104.667 637 655.667> 330 56<122 617> 700 20G<86.6667 104.667 637 655.667>
VStem: 68 54<1.625 330 386 719.391> 617 56<1.97656 330 386 719.048>
Fore
673 41 m 2
 673 14.3333 664.333 1 647 1 c 0
 627 1 617 14.3333 617 41 c 2
 617 330 l 1
 122 330 l 1
 122 41 l 2
 122 14.3333 113.333 1 96 1 c 0
 77.3333 1 68 14.3333 68 41 c 2
 68 681 l 2
 68 707 77.3333 720 96 720 c 0
 113.333 720 122 707 122 681 c 2
 122 386 l 1
 617 386 l 1
 617 681 l 2
 617 707 627 720 647 720 c 0
 664.333 720 673 707 673 681 c 2
 673 41 l 2
EndSplineSet
EndChar
StartChar: I
Encoding: 73 73 42
Width: 190
VWidth: 1473
Flags: W
HStem: 1 21G<87.6667 106> 700 20G<87.6667 106>
VStem: 69 55<1.625 719.391>
Fore
124 41 m 2
 124 14.3333 115 1 97 1 c 0
 78.3333 1 69 14.3333 69 41 c 2
 69 681 l 2
 69 707 78.3333 720 97 720 c 0
 115 720 124 707 124 681 c 2
 124 41 l 2
EndSplineSet
EndChar
StartChar: J
Encoding: 74 74 43
Width: 577
VWidth: 1473
Flags: W
HStem: -7 53<171.84 351.658>
VStem: 28 54<131.531 347.389> 452 56<141.767 711.389>
Fore
273 46 m 0
 310 46 452 78 452 230 c 2
 452 672 l 2
 452 699 461 712 480 712 c 256
 499 712 508 699 508 672 c 2
 508 230 l 2
 508 88.7648 422.161 -7 261 -7 c 0
 145 -7 28 71 28 218 c 2
 28 308 l 2
 28 335 37 348 56 348 c 0
 73 348 82 335 82 308 c 2
 82 218 l 2
 82 153 118 46 273 46 c 0
EndSplineSet
EndChar
StartChar: K
Encoding: 75 75 44
Width: 664
VWidth: 1473
Flags: W
HStem: 0 21G<87.5 106> 697 20G<87.5 106>
VStem: 68 56<0.768459 326 389 716.229>
Fore
318 460 m 1
 467 378 614 231 653 18 c 0
 659 -7 628 -25 610 -11 c 0
 583 8 600 102 487 244 c 0
 397 359 273 421 262 421 c 1
 122 326 l 1
 124 38 l 2
 124 13 115 -0 97 0 c 0
 78 0 68 13 68 38 c 2
 68 678 l 2
 68 704 78 717 97 717 c 0
 115 717 124 704 124 678 c 2
 124 389 l 1
 545 676 l 2
 582 701 605 714 614 717 c 1
 629 726 650 713 650 691 c 0
 650 685 647 681 641 678 c 2
 318 460 l 1
EndSplineSet
EndChar
StartChar: L
Encoding: 76 76 45
Width: 649
VWidth: 1473
Flags: W
HStem: 0 55<140.644 628.375> 697 20G<90.6667 109.333>
VStem: 72 55<69.1479 716.391>
Fore
127 119 m 2
 127 88.45 140.2 55 193 55 c 2
 589 55 l 2
 615.667 55 629 46 629 28 c 0
 629 9.33333 615.667 9.53674e-07 589 0 c 2
 193 0 l 2
 126.409 0 72 42.9061 72 121 c 2
 72 678 l 2
 72 704 81.3333 717 100 717 c 256
 118.667 717 128 704 128 678 c 2
 127 119 l 2
EndSplineSet
EndChar
StartChar: M
Encoding: 77 77 46
Width: 1007
VWidth: 1473
Flags: W
HStem: -7 21G<85.5 103.5 494.5 513.5 903.5 922> 672 56<204.176 396.219 615.922 808.111>
VStem: 68 54<-6.39062 590.069> 476 56<-6.39062 594.058> 885 55<-6.39062 596.226>
Fore
712 728 m 0
 806 728 940 683 940 502 c 2
 940 32 l 2
 940 6 931 -7 913 -7 c 0
 894 -7 885 6 885 32 c 2
 885 502 l 2
 885 638 794 672 712 672 c 0
 637 672 532 638 532 502 c 2
 532 32 l 2
 532 6 523 -7 504 -7 c 256
 485 -7 476 6 476 32 c 2
 476 502 l 2
 476 638 377 672 303 672 c 0
 223 672 122 638 122 502 c 2
 122 32 l 2
 122 6 113 -7 94 -7 c 0
 77 -7 68 6 68 32 c 2
 68 502 l 2
 68 683 205 728 303 728 c 0
 424 728 484 652 504 605 c 1
 533 675 611 728 712 728 c 0
EndSplineSet
EndChar
StartChar: N
Encoding: 78 78 47
Width: 704
VWidth: 1473
Flags: W
HStem: 0 21G<84.5 103 601.5 620> 661 52<160.041 300.348>
VStem: 66 55<0.611328 620.125> 583 55<0.611328 278 395 718.389>
Fore
230 713 m 0
 383 713 507 542 583 395 c 1
 583 679 l 2
 583 706 592 719 611 719 c 0
 629 719 638 706 638 679 c 2
 638 40 l 2
 638 13 629 0 611 0 c 0
 592 0 583 13 583 40 c 2
 583 278 l 1
 434 596 298 661 227 661 c 0
 142 661 121 597 121 526 c 2
 121 40 l 2
 121 13 112 0 94 0 c 0
 75 0 66 13 66 40 c 2
 66 542 l 2
 66 630 115 713 230 713 c 0
EndSplineSet
EndChar
StartChar: O
Encoding: 79 79 48
Width: 766
VWidth: 1473
Flags: W
HStem: -7 57<274.36 490.764> 664 58<275.628 494.437>
VStem: 47 55<230.238 483.599> 666 54<234.587 479.501>
Fore
383 722 m 0
 583 722 720 569 720 357 c 0
 720 143 585 -7 383 -7 c 0
 181 -7 47 153 47 357 c 256
 47 567 181 722 383 722 c 0
383 50 m 0
 553 50 666 179 666 357 c 0
 666 537 553 664 383 664 c 0
 214 664 102 538 102 357 c 0
 102 152 238 50 383 50 c 0
EndSplineSet
EndChar
StartChar: P
Encoding: 80 80 49
Width: 690
VWidth: 1473
Flags: W
HStem: -1 21G<74.5 92.5> 271 54<293.937 514.151> 666 56<234.764 481.891>
VStem: 56 54<-0.390625 556.866> 597 54<400.78 566.551>
Fore
183 412 m 0
 206 412 263 325 414 325 c 0
 488 325 594 353 597 485 c 0
 597 616 478 666 359 666 c 256
 207 666 110 589 110 474 c 2
 110 38 l 2
 110 12 101 -1 84 -1 c 0
 65 -1 56 12 56 38 c 2
 56 485 l 2
 56 654 210 722 359 722 c 0
 470 722 651 675 651 486 c 256
 651 340 543 271 408 271 c 0
 259 271 155 356 155 385 c 0
 155 401 172 412 183 412 c 0
EndSplineSet
EndChar
StartChar: Q
Encoding: 81 81 50
Width: 770
VWidth: 1473
Flags: W
HStem: -7 57<269.087 496.071> 186 56<319.943 474.492> 664 58<272.929 494.918>
VStem: 47 55<233.889 480.697> 666 56<230.076 478.563>
Fore
385 722 m 0
 602 722 722 546 722 357 c 0
 722 258 692 175 645 115 c 1
 668 79 684 45 698 -3 c 0
 704 -25 687 -39 672 -39 c 0
 641 -39 650 6 607 74 c 1
 587 56 518 -7 385 -7 c 0
 201 -7 47 123 47 357 c 0
 47 573 182 722 385 722 c 0
607 158 m 1
 654 221 666 303 666 357 c 0
 666 518 569 664 385 664 c 0
 215 664 102 539 102 357 c 0
 102 270 130 178 200 118 c 1
 256 230 370 242 419 242 c 0
 476 242 556 209 607 158 c 1
245 84 m 1
 259 75 301 50 385 50 c 0
 464 50 526 77 570 118 c 1
 508 180 432 186 416 186 c 0
 314 186 256 126 245 84 c 1
EndSplineSet
EndChar
StartChar: R
Encoding: 82 82 51
Width: 711
VWidth: 1473
Flags: W
HStem: -5 21G<86.5 104.5 596 617.5> 276 47<378.843 527.298> 666 56<246.764 495.356>
VStem: 68 54<-0.390625 556.866> 608 55<398.751 570.033>
Fore
663 486 m 0
 663 360 576 276 439 276 c 0
 416 276 392 278 367 283 c 1
 464 247 624 66 633 32 c 0
 635 25 636 19 636 13 c 0
 636 2 622 -5 613 -5 c 0
 579 -5 568 74 368 225 c 0
 334 251 304 272 278 288 c 2
 225 320 l 2
 180 344 207 383 232 376 c 0
 272 366 328 323 431 323 c 0
 508 323 608 355 608 486 c 0
 608 610 502 666 371 666 c 0
 219 666 122 589 122 474 c 2
 122 38 l 2
 122 12 113 -1 96 -1 c 0
 77 -1 68 12 68 38 c 2
 68 485 l 2
 68 654 222 722 371 722 c 0
 516 722 663 652 663 486 c 0
EndSplineSet
EndChar
StartChar: S
Encoding: 83 83 52
Width: 642
VWidth: 1473
Flags: W
HStem: -7 57<190.233 442.381> 327 58<185.583 446.631> 661 59<201.8 453.165>
VStem: 37 57<452.667 578.018> 542 58<129.023 257.131>
Fore
321 385 m 0
 406 385 600 348 600 199 c 0
 600 34 433 -7 317 -7 c 0
 190 -7 86 42 41 116 c 0
 21 150 69 181 90 146 c 0
 124 87 216 50 317 50 c 0
 415 50 542 85 542 199 c 0
 542 301 398 327 321 327 c 0
 203 327 37 371 37 513 c 0
 37 637 157 720 326 720 c 0
 449 720 550 672 595 598 c 0
 612 569 567 534 545 569 c 0
 511 627 426 661 326 661 c 0
 197 661 94 604 94 513 c 0
 94 408 239 385 321 385 c 0
EndSplineSet
EndChar
StartChar: T
Encoding: 84 84 53
Width: 637
VWidth: 1473
Flags: W
HStem: -4 21G<311 329.5> 667 52<149.113 293 348 491.55>
VStem: 293 55<-3.39062 667>
Fore
320 719 m 0
 576 719 631 623 631 600 c 0
 631 576 599 569 582 586 c 0
 555 619 497 665 348 667 c 1
 348 35 l 2
 348 9 339 -4 320 -4 c 0
 302 -4 293 9 293 35 c 2
 293 667 l 1
 153 661 100 633 57 586 c 1
 47 568 9 575 9 600 c 0
 9 623 63 719 320 719 c 0
EndSplineSet
EndChar
StartChar: U
Encoding: 85 85 54
Width: 741
VWidth: 1473
Flags: W
HStem: -7 56<245.251 494.126>
VStem: 68 54<163.609 714.389> 617 55<163.156 714.389>
Fore
371 -7 m 256
 112 -7 68 176 68 252 c 2
 68 675 l 2
 68 702 77 715 96 715 c 0
 113 715 122 702 122 675 c 2
 122 254 l 2
 122 202 146 49 371 49 c 256
 568 49 617 164 617 267 c 2
 617 675 l 2
 617 702 626 715 645 715 c 0
 663 715 672 702 672 675 c 2
 672 248 l 2
 672 190 640 -7 371 -7 c 256
EndSplineSet
EndChar
StartChar: V
Encoding: 86 86 55
Width: 630
VWidth: 1473
Flags: W
HStem: -3 49<237.471 395.15>
Fore
519 206 m 2
 476 18 398 -3 317 -3 c 256
 250 -3 157 5 113 206 c 2
 15 670 l 2
 10 699 16 709 34 715 c 0
 51 721 65 701 71 676 c 2
 169 206 l 2
 206 46 270 46 317 46 c 256
 359 46 429 46 464 206 c 2
 563 676 l 2
 575 737 615 714 618 699 c 0
 619 692 619 682 617 670 c 2
 519 206 l 2
EndSplineSet
EndChar
StartChar: W
Encoding: 87 87 56
Width: 972
VWidth: 1473
Flags: W
HStem: -10 56<186.624 378.59 598.031 790.248> 697 20G<68 86.5 476.5 495.5 886.5 904.5>
VStem: 50 55<127.931 716.391> 458 56<127.941 716.391> 868 54<124.961 716.391>
Fore
694 46 m 0
 774 46 868 80 868 216 c 2
 868 678 l 2
 868 704 877 717 896 717 c 0
 913 717 922 704 922 678 c 2
 922 216 l 2
 922 27 779 -10 694 -10 c 0
 592 -10 516 43 486 113 c 1
 467 66 406 -10 286 -10 c 0
 187 -10 50 35 50 216 c 2
 50 678 l 2
 50 704 59 717 77 717 c 0
 96 717 105 704 105 678 c 2
 105 216 l 2
 105 80 205 46 286 46 c 0
 359 46 458 80 458 216 c 2
 458 678 l 2
 458 704 467 717 486 717 c 256
 505 717 514 704 514 678 c 2
 514 216 l 2
 514 80 620 46 694 46 c 0
EndSplineSet
EndChar
StartChar: X
Encoding: 88 88 57
Width: 639
VWidth: 1473
Flags: W
HStem: -8 21G<41.5 54 588.5 600.5> 339 57<250.719 392.377> 698 20G<35.5 52.5 591 606>
Fore
596 718 m 0
 616 718 625 702 625 689 c 0
 625 685 624 681 622 676 c 2
 505 466 l 2
 477 419 448 386 417 367 c 1
 461 342 486 301 505 267 c 2
 622 34 l 2
 624 30 624 26 624 23 c 0
 624 6 608 -8 593 -8 c 4
 584 -8 575 -3 570 9 c 2
 455 240 l 2
 437 275 402 339 323 339 c 0
 243 339 209 278 189 240 c 2
 74 9 l 2
 69 -2 59 -8 49 -8 c 0
 34 -8 20 4 20 23 c 0
 20 27 21 30 22 34 c 1
 143 270 l 1
 161 300 l 2
 180 332 198 351 227 367 c 1
 196 386 167 419 138 467 c 2
 22 676 l 2
 20 681 19 685 19 689 c 0
 19 697 24 718 47 718 c 0
 58 718 69 714 74 703 c 2
 189 488 l 2
 231 406 271 396 323 396 c 256
 383 396 417 415 455 488 c 2
 570 703 l 2
 575 714 586 718 596 718 c 0
EndSplineSet
EndChar
StartChar: Y
Encoding: 89 89 58
Width: 655
VWidth: 1473
Flags: W
HStem: 0 56<149.611 488.833> 227 56<216.937 446.804> 696 20G<62.5 80 576.5 595>
VStem: 43 53<457.935 486 486 715.226> 558 55<123.272 324 381.987 715.389>
Fore
329 283 m 256
 498 283 558 387 558 457 c 2
 558 676 l 2
 558 703 567 716 586 716 c 0
 604 716 613 703 613 676 c 2
 613 193 l 2
 613 78 513 0 408 0 c 2
 189 0 l 2
 162 0 149 9 149 28 c 256
 149 47 162 56 189 56 c 2
 408 56 l 2
 497 56 558 117 558 193 c 2
 558 324 l 1
 511 266 434 227 329 227 c 256
 95 227 43 405 43 486 c 2
 43 676 l 2
 43 703 53 716 72 716 c 0
 88 716 96 703 96 676 c 2
 96 488 l 2
 96 467 107 283 329 283 c 256
EndSplineSet
EndChar
StartChar: Z
Encoding: 90 90 59
Width: 679
VWidth: 1473
Flags: W
HStem: 0 55<102.342 635.391> 663 54<40.6113 573.921>
VStem: 40 55<62.2475 141.117> 581 55<576.745 655.596>
Fore
161 0 m 2
 109 0 40 19 40 93 c 0
 40 166 73 172 397 440 c 2
 519 542 l 2
 567 580 581 596 581 617 c 0
 581 655 552 663 516 663 c 2
 80 663 l 2
 53 663 40 672 40 689 c 0
 40 708 53 717 80 717 c 2
 516 717 l 2
 567 717 636 699 636 625 c 0
 636 583 621 561 576 520 c 2
 507 462 l 1
 134 156 l 2
 108 137 95 119 95 100 c 0
 95 61 128 55 161 55 c 2
 597 55 l 2
 623 55 636 46 636 28 c 0
 636 9 623 0 597 0 c 2
 161 0 l 2
EndSplineSet
EndChar
StartChar: bracketleft
Encoding: 91 91 60
Width: 362
VWidth: 1473
Flags: W
HStem: -181 54<136 329.389> 706 54<134 329.389>
VStem: 81 55<-127 706> 81 249<-178.128 -128.924 707.924 757.128>
Fore
81 716 m 2xd0
 81 751 99 760 121 760 c 2
 290 760 l 2
 317 760 330 751 330 734 c 0xd0
 330 715 317 706 290 706 c 2
 134 706 l 1
 136 -127 l 1xe0
 290 -127 l 2
 317 -127 330 -136 330 -155 c 0
 330 -172 317 -181 290 -181 c 2
 121 -181 l 2
 99 -181 81 -172 81 -137 c 2
 81 716 l 2xd0
EndSplineSet
EndChar
StartChar: backslash
Encoding: 92 92 61
Width: 312
VWidth: 1473
Flags: W
VStem: -21 364<25 706 706 706>
Fore
343 25 m 2
 354 6 330 -16 312 -8 c 0
 305 -5 301 -1 298 4 c 2
 -21 706 l 2
 -24 713 -25 733 -9 738 c 0
 4 743 20 742 24 726 c 1
 343 25 l 2
EndSplineSet
EndChar
StartChar: bracketright
Encoding: 93 93 62
Width: 360
VWidth: 1473
Flags: W
HStem: -181 54<29.6113 225> 706 54<31.6074 225>
VStem: 31 249<-177.85 -128.924 707.703 757.128 -155 716 734 734> 225 55<-127 706>
Fore
239 760 m 2xe0
 255 760 280 757 280 716 c 2
 280 -137 l 2xe0
 280 -178 254 -181 239 -181 c 2
 69 -181 l 2
 42 -181 29 -172 29 -155 c 0
 29 -136 42 -127 69 -127 c 2
 225 -127 l 1
 225 706 l 1xd0
 69 706 l 2
 44 706 31 715 31 734 c 0
 31 751 44 760 69 760 c 2
 239 760 l 2xe0
EndSplineSet
EndChar
StartChar: asciicircum
Encoding: 94 94 63
Width: 677
VWidth: 1473
Flags: W
HStem: 255 452<315 524 315 315>
VStem: 118 434<266 274 274 289 274 274>
Fore
552 289 m 1
 558 266 536 255 524 255 c 0
 517 255 510 258 504 264 c 1
 336 647 l 1
 168 264 l 1
 145 241 119 262 118 274 c 0
 118 286 l 1
 315 707 l 1
 329 721 343 721 357 707 c 1
 552 289 l 1
EndSplineSet
EndChar
StartChar: underscore
Encoding: 95 95 64
Width: 677
VWidth: 1473
Flags: W
HStem: -124 50<0 678>
Fore
0 -124 m 1
 0 -74 l 1
 678 -74 l 1
 678 -124 l 1
 0 -124 l 1
EndSplineSet
EndChar
StartChar: grave
Encoding: 96 96 65
Width: 223
VWidth: 1473
Flags: W
HStem: 480 248<84.0479 139.25>
VStem: 82 59<481.504 727.048>
Fore
141 520 m 2
 143 494.667 132.667 481.333 110 480 c 0
 91.3333 480 82 493.333 82 520 c 2
 82 689 l 2
 81.3333 715 91.6667 728 113 728 c 0
 131.667 728 141 715 141 689 c 2
 141 520 l 2
EndSplineSet
EndChar
StartChar: a
Encoding: 97 97 66
Width: 633
VWidth: 1473
Flags: W
HStem: -7 50<173.572 421.464> 305 54<189.364 427.896> 474 55<170.227 415.574>
VStem: 47 52<102.226 232.377> 507 63<112.189 242.528> 514 56<27 74 267.375 387.528>
Fore
306 359 m 0xf4
 381 357 488 336 514 267 c 1
 515 275 515 283 515 291 c 0
 515 347 504 382 473 414 c 0
 436 454 374 474 289 474 c 0
 145 474 108 398 80 429 c 0
 70 441 69 459 91 474 c 0
 158 517 226 529 292 529 c 0
 392 529 466 503 514 452 c 0
 535 431 570 391 570 289 c 2
 570 27 l 2
 570 11 556 0 541 0 c 256
 524 0 516 12 514 27 c 2
 514 74 l 1
 464 23 391 -7 290 -7 c 0
 95 -7 47 99 47 170 c 0
 47 246 101 359 306 359 c 0xf4
298 43 m 0
 468 43 507 126 507 177 c 0xf8
 507 228 477 305 303 305 c 0
 185 305 99 250 99 168 c 0
 99 68 206 43 298 43 c 0
EndSplineSet
Substitution2: "Single Substitution lookup 22 subtable" uni0E38
Substitution2: "Single Substitution lookup 22 subtable" uni0E38
EndChar
StartChar: b
Encoding: 98 98 67
Width: 674
VWidth: 1473
Flags: W
HStem: -4 57<233.769 454.816> 468 58<237.114 457.994> 826 20G<85.5 103.5>
VStem: 65 57<-6.36914 91 165.969 357.223 433 845.09> 570 56<164.183 360.961>
Fore
346 526 m 0
 536 526 626 399 626 261 c 0
 626 102 515 -4 346 -4 c 0
 245 -4 170 28 121 91 c 1
 121 22 l 2
 121 7 110 -7 93 -7 c 256
 76 -7 65 7 65 22 c 2
 65 818 l 2
 65 833 77 846 94 846 c 0
 113 846 122 837 122 818 c 2
 122 433 l 1
 177 499 255 526 346 526 c 0
122 261 m 0
 122 175 167 53 346 53 c 0
 535 53 570 189 570 261 c 0
 570 379 496 468 346 468 c 0
 225 468 122 401 122 261 c 0
EndSplineSet
Substitution2: "Single Substitution lookup 22 subtable" uni0E39
Substitution2: "Single Substitution lookup 22 subtable" uni0E39
EndChar
StartChar: c
Encoding: 99 99 68
Width: 595
VWidth: 1473
Flags: W
HStem: -4 57<217.58 447.468> 468 58<213.83 448.278>
VStem: 46 56<164.876 361.945>
Fore
46 261 m 0
 46 387 134 526 326 526 c 0
 425 526 499 498 548 443 c 0
 561 428 554 394 526 396 c 0
 518 396 512 399 507 405 c 0
 470 447 410 468 326 468 c 0
 188 468 102 392 102 261 c 0
 102 143 178 53 326 53 c 0
 410 53 470 74 507 116 c 0
 524 138 554 121 554 98 c 0
 554 69 480 -4 326 -4 c 0
 171 -4 46 102 46 261 c 0
EndSplineSet
Substitution2: "Single Substitution lookup 22 subtable" uni0E3A
Substitution2: "Single Substitution lookup 22 subtable" uni0E3A
EndChar
StartChar: d
Encoding: 100 100 69
Width: 674
VWidth: 1473
Flags: W
HStem: -3 58<215.244 438.231> 470 57<214.8 433.242> 827 20G<568 584.5>
VStem: 46 56<165.746 361.842> 550 57<-4.95859 93 162.961 363.266 435 845.873>
Fore
326 -3 m 0
 168 -3 46 92 46 262 c 0
 46 415 149 527 326 527 c 0
 417 527 495 501 550 435 c 1
 550 819 l 2
 550 838 559 847 577 847 c 0
 592 847 607 836 607 819 c 2
 607 24 l 2
 607 9 596 -6 579 -6 c 256
 562 -6 551 9 551 24 c 2
 551 93 l 1
 502 29 427 -3 326 -3 c 0
326 470 m 0
 147 470 102 349 102 262 c 0
 102 197 132 55 326 55 c 0
 505 55 550 176 550 262 c 0
 553 425 417 470 326 470 c 0
EndSplineSet
EndChar
StartChar: e
Encoding: 101 101 70
Width: 645
VWidth: 1473
Flags: W
HStem: -6 58<222.947 437.967> 239 56<106 528.209> 474 58<217.248 435.101>
VStem: 49 56<162.715 239 295 357.016> 531 62<304.756 396.682>
Fore
105 239 m 1
 115 117 209 52 329 52 c 0
 441 52 496 105 516 130 c 0
 534 155 569 152 569 118 c 0
 569 107 565 99 558 94 c 1
 530 57 466 -6 329 -6 c 0
 154 -6 49 99 49 267 c 0
 49 396 141 532 324 532 c 0
 516 532 593 411 593 333 c 0
 593 273 547 239 516 239 c 2
 105 239 l 1
531 333 m 0
 531 416 440 474 324 474 c 0
 150 474 113 342 106 295 c 1
 505 295 l 2
 526 295 531 318 531 333 c 0
EndSplineSet
EndChar
StartChar: f
Encoding: 102 102 71
Width: 303
VWidth: 1473
Flags: W
HStem: -6 21G<95.5 113.5> 460 56<164.941 286.232> 787 56<182.348 345.232>
VStem: 77 54<-5.38867 423.398 468 732.322>
Fore
77 631 m 2
 77 731 117 843 275 843 c 2
 308 843 l 2
 333 843 346 834 346 816 c 0
 346 797 333 787 308 787 c 2
 264 787 l 2
 166 787 131 729 131 631 c 2
 131 468 l 1
 152 500 188 516 222 516 c 2
 249 516 l 2
 274 516 287 507 287 489 c 0
 287 470 274 460 249 460 c 2
 218 460 l 2
 148 460 131 382 131 349 c 2
 131 34 l 2
 131 7 122 -6 105 -6 c 0
 86 -6 77 7 77 34 c 2
 77 631 l 2
EndSplineSet
EndChar
StartChar: g
Encoding: 103 103 72
Width: 667
VWidth: 1473
Flags: W
HStem: -260 54<236.36 444.912> -3 58<214.8 432.17> 470 57<215.863 438.231>
VStem: 46 56<165.392 356.919> 551 54<-104.288 99 166.448 357.031 432 501 501 529.308>
Fore
579 530 m 256
 595 530 605 518 605 501 c 2
 605 -6 l 2
 605 -209 436 -260 340 -260 c 0
 196 -260 136 -181 143 -156 c 0
 149 -136 178 -127 193 -149 c 0
 205 -170 249 -206 340 -206 c 0
 409 -206 551 -177 551 -6 c 2
 551 99 l 1
 505 42 434 -3 326 -3 c 0
 149 -3 46 108 46 262 c 256
 46 432 168 527 326 527 c 0
 427 527 502 495 551 432 c 1
 551 501 l 2
 551 516 562 530 579 530 c 256
326 470 m 0
 135 470 102 330 102 262 c 0
 102 176 147 55 326 55 c 0
 416 55 550 100 550 262 c 0
 550 348 505 470 326 470 c 0
EndSplineSet
EndChar
StartChar: h
Encoding: 104 104 73
Width: 662
VWidth: 1473
Flags: W
HStem: -6 21G<85 101.5 558.5 575.5> 473 57<238.64 442.191> 842 20G<85 101.5>
VStem: 66 55<-5.32617 348.838 417 861.326> 539 56<-5.32617 374.835>
Fore
331 530 m 0
 500 530 595 416 595 265 c 2
 595 24 l 2
 595 9 584 -6 567 -6 c 256
 550 -6 539 9 539 24 c 2
 539 265 l 2
 539 404 470 473 331 473 c 0
 210 473 121 373 121 256 c 2
 121 24 l 2
 121 9 110 -6 93 -6 c 256
 77 -6 66 9 66 24 c 2
 66 832 l 2
 66 847 77 862 93 862 c 256
 110 862 121 847 121 832 c 2
 121 417 l 1
 144 454 205 530 331 530 c 0
EndSplineSet
EndChar
StartChar: i
Encoding: 105 105 74
Width: 184
VWidth: 1473
Flags: W
HStem: -6 21G<83.6667 101.667> 506 20G<83.6667 101.667> 597 73<58.8795 125.984>
VStem: 55 75<601.372 665.382> 65 54<-5.375 525.375>
Fore
119 34 m 2xe8
 119 7.33333 110.333 -6 93 -6 c 0
 74.3333 -6 65 7.33333 65 34 c 2
 65 486 l 2
 65 512.667 74.3333 526 93 526 c 0
 110.333 526 119 512.667 119 486 c 2
 119 34 l 2xe8
91 670 m 256
 111.631 670 130 651.296 130 633 c 0
 130 614.622 111.539 597 91 597 c 256
 73.0346 597 55 613.249 55 633 c 0xf0
 55 652.678 73.0495 670 91 670 c 256
EndSplineSet
EndChar
StartChar: j
Encoding: 106 106 75
Width: 184
VWidth: 1473
Flags: W
HStem: -299 54<-74.2828 20.5356> 506 20G<87 105> 597 73<58.4727 125.633>
VStem: -75 205<-271 633 -271 -271> 55 75<601.321 665.447> 65 54<-194.201 507.414>
Fore
93 526 m 0xe4
 117 526 119 497 119 488 c 2
 119 -68 l 2xe4
 116 -201 85 -299 -49 -299 c 0
 -64 -299 -75 -286 -75 -271 c 256xf0
 -75 -255 -65 -245 -49 -245 c 0
 19 -245 65 -213 65 -68 c 2
 65 488 l 2
 65 495 67 504 70 512 c 0
 73 522 81 526 93 526 c 0xe4
91 670 m 256
 112 670 130 651 130 633 c 0xf0
 130 615 112 597 91 597 c 256
 73 597 55 613 55 633 c 0xe8
 55 653 73 670 91 670 c 256
EndSplineSet
EndChar
StartChar: k
Encoding: 107 107 76
Width: 578
VWidth: 1473
Flags: W
HStem: 0 21G<89.5 107.5> 827 20G<91.5 109.5>
VStem: 71 54<0.611328 252 312 845.978> 491 54<-6.10315 154.91>
Fore
523 514 m 1
 537 522 549 515 554 505 c 0
 561 494 559 483 548 470 c 1
 530 460 l 2
 517 452 501 444 481 434 c 2
 334 358 l 1
 426 299 519 176 545 31 c 0
 553 -2 501 -18 491 21 c 0
 451 224 311 312 278 330 c 1
 228 303 l 1
 125 252 l 1
 125 40 l 2
 125 13 116 0 99 0 c 0
 80 0 71 13 71 40 c 2
 71 806 l 2
 71 833 81 847 102 847 c 0
 117 847 125 833 125 806 c 2
 125 312 l 1
 353 430 l 2
 431 468 520 514 523 514 c 1
EndSplineSet
EndChar
StartChar: l
Encoding: 108 108 77
Width: 184
VWidth: 1473
Flags: W
HStem: 0 21G<83.5 101.5> 830 20G<83.5 101.5>
VStem: 65 54<0.611328 849.346>
Fore
119 40 m 2
 119 13 110 0 93 0 c 0
 74 0 65 13 65 40 c 2
 65 809 l 2
 65 836 74 850 93 850 c 0
 110 850 119 836 119 809 c 2
 119 40 l 2
EndSplineSet
EndChar
StartChar: m
Encoding: 109 109 78
Width: 932
VWidth: 1473
Flags: W
HStem: 0 21G<79 99.5 458.5 474.5 834.5 850.5> 480 53<203.367 369.47 561.937 734.176>
VStem: 63 55<13.5948 384.021 436 519.405> 439 56<0.740662 411.242> 815 56<0.740662 392.385>
Fore
90 0 m 0
 68 0 63 18 63 28 c 2
 63 505 l 2
 63 522 76 533 91 533 c 256
 113 533 118 515 118 505 c 2
 118 436 l 1
 134 468 189 533 295 533 c 0
 375 533 432 501 467 438 c 1
 516 525 593 533 638 533 c 0
 824 533 871 410 871 268 c 2
 871 28 l 2
 871 11 858 -0 843 0 c 256
 826 0 815 13 815 28 c 2
 815 268 l 2
 815 429 744 480 638 480 c 0
 553 480 495 413 495 342 c 2
 495 28 l 2
 495 11 482 -0 467 0 c 256
 450 0 439 13 439 28 c 2
 439 342 l 2
 439 409 381 480 295 480 c 0
 153 480 120 365 118 277 c 2
 118 28 l 2
 118 9 109 0 90 0 c 0
EndSplineSet
EndChar
StartChar: n
Encoding: 110 110 79
Width: 662
VWidth: 1473
Flags: W
HStem: 0 21G<86 103.5 559 574.5> 476 57<257.98 433.491>
VStem: 68 54<0.423828 367.961 429 518.405> 541 54<0.638672 369.388>
Fore
331 533 m 0
 487 533 595 440 595 268 c 2
 595 28 l 2
 595 11 582 -0 567 0 c 256
 551 0 541 11 541 28 c 2
 541 268 l 2
 541 389 466 476 331 476 c 0
 208 476 122 398 122 264 c 2
 122 28 l 2
 122 9 113 0 94 0 c 0
 78 0 68 11 68 28 c 2
 68 504 l 2
 68 521 78 532 94 532 c 256
 116 532 121 514 121 504 c 2
 121 429 l 1
 190 530 295 533 331 533 c 0
EndSplineSet
EndChar
StartChar: o
Encoding: 111 111 80
Width: 659
VWidth: 1473
Flags: W
HStem: 0 55<221.707 439.946> 476 54<220.904 433>
VStem: 49 51<169.182 359.747> 557 51<169.184 360.906>
Fore
329 530 m 0
 497 530 608 424 608 265 c 0
 608 92 485 0 329 0 c 0
 165 0 49 106 49 265 c 0
 49 375 105 530 329 530 c 0
329 55 m 0
 525 55 557 197 557 265 c 0
 557 402 450 476 329 476 c 0
 207 476 100 403 100 265 c 0
 100 128 205 55 329 55 c 0
EndSplineSet
EndChar
StartChar: p
Encoding: 112 112 81
Width: 674
VWidth: 1473
Flags: W
HStem: 0 57<239.794 455.275> 473 57<233.769 455.64>
VStem: 65 57<-319.09 93 168.897 364.334 435 532.024> 570 56<166.807 362.66>
Fore
346 530 m 0
 515 530 626 424 626 265 c 256
 626 120 530 -0 346 0 c 0
 255 0 177 27 122 93 c 1
 122 -292 l 2
 122 -311 113 -320 94 -320 c 0
 77 -320 65 -307 65 -292 c 2
 65 504 l 2
 65 519 76 533 93 533 c 256
 110 533 121 519 121 504 c 2
 121 435 l 1
 170 498 245 530 346 530 c 0
346 57 m 0
 525 57 570 178 570 265 c 0
 570 331 539 473 346 473 c 0
 167 473 122 351 122 265 c 0
 122 102 258 57 346 57 c 0
EndSplineSet
EndChar
StartChar: q
Encoding: 113 113 82
Width: 674
VWidth: 1473
Flags: W
HStem: 0 57<217.8 434.267> 473 57<218.863 439.079>
VStem: 49 56<168.244 359.919> 552 58<-318.878 93 170.133 360.031 435 532.369>
Fore
329 0 m 0
 152 0 49 111 49 265 c 256
 49 435 171 530 329 530 c 0
 430 530 505 498 554 435 c 1
 554 504 l 2
 554 519 565 533 582 533 c 256
 599 533 610 519 610 504 c 2
 610 -292 l 2
 610 -307 596 -320 580 -320 c 0
 561 -320 552 -311 552 -292 c 2
 552 93 l 1
 506 36 435 -0 329 0 c 0
329 473 m 0
 138 473 105 333 105 265 c 0
 105 179 150 57 329 57 c 0
 419 57 552 105 552 265 c 0
 552 351 507 473 329 473 c 0
EndSplineSet
EndChar
StartChar: r
Encoding: 114 114 83
Width: 416
VWidth: 1473
Flags: W
HStem: 0 21G<81.5 100> 470 56<241.609 413.226>
VStem: 63 55<0.611328 331.395 387 525.389>
Fore
327 470 m 2
 202 470 118 351 118 222 c 2
 118 40 l 2
 118 13 109 0 91 0 c 0
 72 0 63 13 63 40 c 2
 63 486 l 2
 63 513 72 526 91 526 c 0
 109 526 118 513 118 486 c 2
 118 387 l 1
 147 460 241 526 329 526 c 2
 374 526 l 2
 401 526 414 517 414 499 c 0
 414 480 401 470 374 470 c 2
 327 470 l 2
EndSplineSet
EndChar
StartChar: s
Encoding: 115 115 84
Width: 511
VWidth: 1473
Flags: W
HStem: -10 47<170.357 376.07> 482 50<164.335 371.691>
VStem: 43 432<88 150 120 123 120 120> 64 56<347.416 444.585> 422 53<76.7119 174.906>
Back
468 455 m 0
 478 440.333 475.333 428 460 418 c 0
 444 410.667 430 414.333 418 429 c 0
 407.333 445.667 390.5 459.333 367.5 470 c 128
 344.5 480.667 318.667 487 290 489 c 256
 261.333 491 232.667 488.833 204 482.5 c 128
 175.333 476.167 154 466 140 452 c 0
 120 429.333 114.667 404.833 124 378.5 c 128
 133.333 352.167 156.667 333 194 321 c 2
 215.5 313 l 2
 237 305 237 305 262 296 c 128
 287 287 287 287 307 280 c 128
 320.333 275.333 327.667 273 329 273 c 1
 342.333 267.667 356.167 261.833 370.5 255.5 c 128
 384.833 249.167 398.333 241.833 411 233.5 c 128
 423.667 225.167 435 215.833 445 205.5 c 128
 455 195.167 462 183.667 466 171 c 0
 476.667 137.667 477.333 108.667 468 84 c 128
 458.667 59.3333 442.833 39.1667 420.5 23.5 c 128
 398.167 7.83333 371.333 -3.16667 340 -9.5 c 128
 308.667 -15.8333 277 -17.6667 245 -15 c 0
 195.667 -11 153 1.33333 117 22 c 128
 81 42.6667 56.6667 71.3333 44 108 c 0
 39.3333 125.333 46.3333 137.333 65 144 c 0
 73.6667 146 82 145.333 90 142 c 128
 98 138.667 103 133 105 125 c 0
 111.667 106.333 121.167 91.3333 133.5 80 c 128
 145.833 68.6667 158.833 59.8333 172.5 53.5 c 128
 186.167 47.1667 199.333 42.8333 212 40.5 c 128
 231 37 231 37 242 35 c 0
 270 32.3333 296.5 33 321.5 37 c 128
 346.5 41 367.167 48.3333 383.5 59 c 128
 399.833 69.6667 411.167 83.1667 417.5 99.5 c 128
 423.833 115.833 422.667 134.333 414 155 c 0
 409.333 166.333 401.333 176.5 390 185.5 c 128
 378.667 194.5 365.333 202.667 350 210 c 128
 334.667 217.333 318.167 224 300.5 230 c 128
 274 239 274 239 249 247 c 0
 231 253 231 253 200 264 c 128
 179.333 271.333 164.667 277 156 281 c 0
 134.667 291 116.333 303.833 101 319.5 c 128
 85.6667 335.167 75 352.167 69 370.5 c 128
 63 388.833 62.5 408 67.5 428 c 128
 72.5 448 84 467 102 485 c 0
 122.667 505.667 150.333 520.833 185 530.5 c 128
 219.667 540.167 256.667 543 296 539 c 0
 334.667 536.333 368.833 527.667 398.5 513 c 128
 428.167 498.333 451.333 479 468 455 c 0
EndSplineSet
Fore
262 532 m 0xd8
 415 532 474 451 474 432 c 0
 474 421 461 408 444 408 c 0
 409 408 409 482 269 482 c 0
 210 482 120 464 120 397 c 0xd8
 120 336 183 321 262 293 c 2
 307 278 l 2
 369 254 475 227 475 123 c 0
 475 43 389 -10 273 -10 c 0
 104 -10 43 88 43 120 c 0xe0
 43 150 97 157 105 127 c 0
 135 47 231 37 275 37 c 0
 388 37 422 89 422 123 c 0
 422 166 391 199 300 229 c 2
 200 262 l 2
 176 271 64 305 64 395 c 0
 64 477 155 532 262 532 c 0xd8
EndSplineSet
EndChar
StartChar: t
Encoding: 116 116 85
Width: 327
VWidth: 1473
Flags: W
HStem: 0 56<174.277 328.389> 460 56<116 257.052> 812 20G<80.5 98.5>
VStem: 62 54<118.229 460 516 831.391>
Fore
116 214 m 2
 116 98 174 56 262 56 c 2
 289 56 l 2
 316 56 329 47 329 28 c 256
 329 9 316 0 289 0 c 2
 262 0 l 2
 102 0 62 120 62 214 c 2
 62 793 l 2
 62 819 71 832 90 832 c 0
 107 832 116 819 116 793 c 2
 116 516 l 1
 220 516 l 2
 245 516 258 506 258 486 c 0
 258 469 245 460 220 460 c 2
 116 460 l 1
 116 214 l 2
EndSplineSet
EndChar
StartChar: u
Encoding: 117 117 86
Width: 658
VWidth: 1473
Flags: W
HStem: -7 57<218.264 406.412> 506 20G<83.5 99.5 554.5 575>
VStem: 63 56<151.605 525.259> 538 53<-5.33701 93 145.539 512.405>
Fore
564 526 m 0
 586 526 591 508 591 498 c 2
 591 22 l 2
 591 3 582 -6 564 -6 c 0
 548 -6 538 5 538 22 c 2
 538 93 l 1
 468 -7 359 -7 327 -7 c 0
 116 -7 63 144 63 258 c 2
 63 498 l 2
 63 515 76 526 91 526 c 256
 108 526 119 513 119 498 c 2
 119 258 l 2
 119 156 161 50 327 50 c 0
 436 50 536 92 536 258 c 2
 536 498 l 2
 536 517 545 526 564 526 c 0
EndSplineSet
EndChar
StartChar: v
Encoding: 118 118 87
Width: 562
VWidth: 1473
Flags: W
HStem: -6 49<224.344 338.281> 507 20G<17.5 33.5 527.5 542>
Fore
534 527 m 0
 550 527 561 514 561 498 c 0
 561 495 561 492 560 489 c 2
 427 103 l 2
 384.836 -0.494148 320.323 -6 281 -6 c 0
 194 -6 156 53 134 106 c 2
 3 489 l 2
 2 492 2 495 2 498 c 0
 2 509 7 527 28 527 c 0
 39 527 51 523 55 508 c 2
 184 128 l 2
 216 53 247 43 281 43 c 256
 319 43 345 55 377 125 c 2
 508 508 l 2
 511 520 521 527 534 527 c 0
EndSplineSet
EndChar
StartChar: w
Encoding: 119 119 88
Width: 880
VWidth: 1473
Flags: W
HStem: -7 53<177.812 347.464 536.937 709.176> 506 20G<58.5 77 434.5 450.5 810.5 825.5>
VStem: 38 55<137.59 512.405> 414 56<113.254 525.259> 790 56<133.615 525.361>
Fore
818 526 m 256
 833 526 846 515 846 498 c 2
 846 258 l 2
 846 116 799 -7 613 -7 c 0
 568 -7 491 1 442 88 c 1
 407 25 350 -7 270 -7 c 0
 84 -7 38 128 38 253 c 2
 38 498 l 2
 38 515 51 526 66 526 c 256
 88 526 93 508 93 498 c 2
 93 253 l 2
 93 130 142 46 270 46 c 0
 356 46 414 116 414 184 c 2
 414 498 l 2
 414 515 427 526 442 526 c 256
 459 526 470 513 470 498 c 2
 470 184 l 2
 470 113 528 46 613 46 c 0
 719 46 790 97 790 258 c 2
 790 498 l 2
 790 515 803 526 818 526 c 256
EndSplineSet
EndChar
StartChar: x
Encoding: 120 120 89
Width: 564
VWidth: 1473
Flags: W
HStem: -4 21G<33.5 50 513 528.5> 239 56<224.218 338.353> 509 20G<40 53 509.5 523>
Fore
516 529 m 0
 530 529 546 517 546 500 c 0
 546 493 543 486 539 480 c 2
 435 333 l 2
 412 303 398 287 367 267 c 1
 386 252 407 236 420 217 c 2
 539 44 l 2
 554 25 539 -4 518 -4 c 0
 508 -4 500 1 494 9 c 2
 425 108 l 2
 410 132 398 148 390 159 c 2
 376 180 l 2
 358 203 322 239 281 239 c 256
 244 239 209 210 189 181 c 2
 69 9 l 2
 62 0 54 -4 46 -4 c 0
 21 -4 11 27 24 44 c 2
 92 144 l 2
 147 226 156 236 197 267 c 1
 177 279 157 296 143 312 c 2
 24 480 l 2
 20 486 17 493 17 500 c 0
 17 519 34 529 46 529 c 0
 60 529 66 521 69 517 c 2
 172 371 l 1
 187 351 l 2
 205 327 240 295 281 295 c 256
 318 295 354 319 374 349 c 2
 494 517 l 2
 497 521 503 529 516 529 c 0
EndSplineSet
EndChar
StartChar: y
Encoding: 121 121 90
Width: 617
VWidth: 1473
Flags: W
HStem: -274 54<200.752 404.979> -3 53<197.721 384.294> 512 20G<61.5 78.5 532.5 549>
VStem: 43 54<152.013 529.548> 516 54<-113.341 97 148.34 492 492 530.876>
Fore
541 532 m 256
 557 532 570 524 570 492 c 2
 570 -19 l 2
 570 -223 400 -274 308 -274 c 0
 186 -274 98 -210 108 -170 c 0
 112 -150 143 -139 158 -162 c 0
 177 -200 249 -220 304 -220 c 0
 363 -220 516 -193 516 -19 c 2
 516 97 l 1
 446 -2 343 -3 306 -3 c 0
 96 -3 43 137 43 262 c 2
 43 502 l 2
 43 521 52 530 71 530 c 0
 86 530 97 517 97 502 c 2
 97 262 l 2
 97 92 203 50 306 50 c 0
 469 50 510 156 510 262 c 2
 510 492 l 2
 510 523 524 532 541 532 c 256
EndSplineSet
EndChar
StartChar: z
Encoding: 122 122 91
Width: 578
VWidth: 1473
Flags: W
HStem: 0 55<126.984 510.389> 471 55<68.6113 451.137>
VStem: 68 54<62.0643 132.504> 455 56<405.473 464.195>
Fore
189 0 m 2
 135 0 68 18 68 90 c 0
 68 128 81 152 128 184 c 2
 400 368 l 2
 452 404 455 419 455 435 c 0
 455 459 434 471 390 471 c 2
 108 471 l 2
 81 471 68 480 68 498 c 0
 68 517 81 526 108 526 c 2
 390 526 l 2
 442 526 511 507 511 433 c 0
 511 379 487 360 378 290 c 2
 162 147 l 2
 135 129 122 112 122 89 c 0
 122 66 145 55 189 55 c 2
 471 55 l 2
 498 55 511 46 511 28 c 0
 511 9 498 0 471 0 c 2
 189 0 l 2
EndSplineSet
EndChar
StartChar: braceleft
Encoding: 123 123 92
Width: 334
VWidth: 1473
Flags: W
VStem: 136 54<-63.4231 212.298 363.541 642.193>
Fore
294 -148 m 0
 294 -158 284 -179 265 -179 c 0
 246 -179 218 -160 183 -121 c 0
 163 -101 136 -68 136 29 c 2
 136 125 l 2
 136 257 41 259 41 288 c 0
 41 320 136 315 136 454 c 2
 136 551 l 2
 136 646 164 680 183 700 c 0
 218 739 246 758 265 758 c 0
 284 758 294 737 294 728 c 0
 294 720 285 712 279 708 c 2
 252 690 l 2
 231 675 190 634 190 551 c 2
 190 454 l 2
 190 367 166 320 108 290 c 1
 165 259 190 211 190 125 c 2
 190 29 l 2
 190 -27 209 -81 252 -110 c 2
 279 -128 l 2
 285 -133 294 -140 294 -148 c 0
EndSplineSet
EndChar
StartChar: bar
Encoding: 124 124 93
Width: 231
VWidth: 1473
Flags: W
VStem: 90 54<-201.389 790.389>
Fore
144 -162 m 2
 144 -189 135 -202 118 -202 c 0
 99 -202 90 -189 90 -162 c 2
 90 751 l 2
 90 778 99 791 118 791 c 0
 135 791 144 778 144 751 c 2
 144 -162 l 2
EndSplineSet
EndChar
StartChar: braceright
Encoding: 125 125 94
Width: 334
VWidth: 1473
Flags: W
VStem: 155 54<-62.4282 166.792 361.271 642.193>
Fore
209 454 m 2
 209 315 303 322 303 287 c 0
 303 265 263 272 224 203 c 0
 214 184 209 158 209 125 c 2
 209 29 l 2
 209 -68 182 -101 162 -121 c 0
 127 -160 99 -179 80 -179 c 0
 61 -179 51 -160 51 -150 c 0
 51 -141 60 -133 66 -129 c 2
 92 -110 l 2
 114 -96 155 -55 155 29 c 2
 155 125 l 2
 155 211 179 259 237 290 c 1
 178 320 155 368 155 454 c 2
 155 551 l 2
 155 634 111 677 92 690 c 2
 66 708 l 2
 60 712 51 720 51 729 c 0
 51 733 57 758 80 758 c 0
 99 758 127 739 162 700 c 0
 181 680 209 646 209 551 c 2
 209 454 l 2
EndSplineSet
EndChar
StartChar: asciitilde
Encoding: 126 126 95
Width: 574
VWidth: 1473
Flags: W
HStem: 175 193<80 491 491 578.592> 189 60<383.392 445.116> 298 60<126.786 195.617>
VStem: 48 478<196 336 196 283.592> 48 64<189.355 196 196 283.592> 459 67<262.813 318 318 354.652>
Fore
491 368 m 0x84
 510 368 526 356 526 336 c 2
 526 325 l 2
 526 220 469 189 408 189 c 0
 389 189 365 193 314 222 c 2
 202 283 l 2
 185 293 171 298 159 298 c 0x70
 121 298 113 241 112 205 c 0
 112 191 106 175 80 175 c 0x88
 55 175 48 188 48 196 c 2
 48 217 l 2
 48 331 116 358 161 358 c 0
 190 358 221 343 234 336 c 2
 367 262 l 2
 380 253 393 249 406 249 c 0x70
 442 249 459 284 459 318 c 0
 459 334 451 368 491 368 c 0x84
EndSplineSet
EndChar
StartChar: uni0E33.alt1
Encoding: 65539 -1 96
Width: 570
VWidth: 1473
Flags: W
HStem: -4 21G<461.5 478.5> 547 57<175.751 371.058> 672 51<-320.407 -209.218> 831 51<-318.362 -210.274>
VStem: -386 52<738.581 815.808> -196 52<737.51 803.246> 440 58<-2.82529 481.224>
Fore
273 604 m 256
 373 604 498 532 498 407 c 2
 498 25 l 2
 498 10 487 -4 470 -4 c 256
 453 -4 440 9 440 25 c 2
 440 407 l 2
 440 499 372 547 273 547 c 0
 187 547 118 499 102 457 c 0
 87 420 38 438 47 476 c 0
 66 527 142 604 273 604 c 256
-265 882 m 0
 -180 882 -144 824 -144 776 c 0
 -144 713 -197 672 -265 672 c 0
 -309 672 -386 697 -386 776 c 0
 -386 837 -332 882 -265 882 c 0
-265 723 m 1
 -228 723 -196 745 -196 776 c 0
 -196 787 -206 831 -265 831 c 0
 -312 831 -334 798 -334 776 c 0
 -334 726 -265 723 -265 723 c 1
EndSplineSet
EndChar
StartChar: quotedbl
Encoding: 34 34 97
Width: 294
VWidth: 1473
Flags: W
HStem: 473 247<62.1354 116.267 176.395 229.297 91 203 90 90>
VStem: 60 58<485.028 719.232> 174 57<475.104 721.052>
Fore
119 513 m 2
 122 489 115 474 91 473 c 0
 70 473 60 486 60 513 c 2
 60 682 l 2
 59 707 69 720 90 720 c 0
 109 720 118 707 118 682 c 2
 119 513 l 2
233 514 m 2
 235 485 224 476 205 474 c 0
 184 474 174 487 174 514 c 2
 174 684 l 2
 173 709 182 722 203 722 c 0
 222 722 231 709 231 684 c 2
 233 514 l 2
EndSplineSet
EndChar
StartChar: exclam
Encoding: 33 33 98
Width: 272
VWidth: 1473
Flags: W
HStem: 0 85<100.921 176.246>
VStem: 96 87<7.45642 78.8311> 102 73<509.722 739.198> 110 56<168.607 399.278>
Fore
138 742 m 256xa0
 152 742 178 734 175 703 c 2xa0
 166 206 l 2
 165 181 156 168 138 168 c 0
 119 168 110 181 110 206 c 2x90
 102 703 l 2
 99 733 124 742 138 742 c 256xa0
137 85 m 256
 162 85 183 68 183 43 c 0
 183 22 162 0 138 0 c 256
 114 0 96 19 96 41 c 0xc0
 96 67 112 85 137 85 c 256
EndSplineSet
EndChar
StartChar: uni0E4E.alt1
Encoding: 65540 -1 99
Width: 0
VWidth: 1473
Flags: W
HStem: 662 37<-281.214 -207.921 -213.155 -202.687 -202.687 -192> 978 23<-168.776 -97.7216>
VStem: -351 62<709.578 785.925> -264 57<856.459 944.517>
Fore
-264 906 m 0
 -264 963 -213 1001 -139 1001 c 0
 -129 1001 -79 1001 -79 985 c 0
 -79 983 -80 981 -83 978 c 1
 -154 977 -207 946 -207 898 c 0
 -207 868 -189 855 -167 849 c 1
 -159 849 -150 841 -150 830 c 256
 -150 817 -162 813 -173 812 c 0
 -248 809 -289 784 -289 743 c 0
 -289 716 -262 699 -215 699 c 0
 -200 699 -189 699 -180 700 c 1
 -192 666 l 1
 -215 663 -234 662 -251 662 c 0
 -314 665 -351 696 -351 740 c 0
 -351 795 -306 832 -227 840 c 1
 -252 857 -264 879 -264 906 c 0
EndSplineSet
EndChar
StartChar: exclamdown
Encoding: 161 161 100
Width: 272
VWidth: 1473
Flags: W
HStem: 442 85<103.921 179.246>
VStem: 99 87<448.215 519.838> 105 73<-211.967 17.8889> 113 56<128.111 358.393>
Fore
141 -215 m 256xa0
 129 -215 102 -207 105 -175 c 2xa0
 113 321 l 2
 113 346 122 359 141 359 c 0
 159 359 168 346 169 321 c 2x90
 178 -175 l 2
 181 -206 156 -215 141 -215 c 256xa0
141 527 m 256
 165 527 186 506 186 485 c 0
 186 459 165 442 140 442 c 256
 115 442 99 460 99 486 c 0xc0
 99 511 119 527 141 527 c 256
EndSplineSet
EndChar
StartChar: cent
Encoding: 162 162 101
Width: 637
VWidth: 1473
Flags: W
HStem: 91 52<296 303.456 303.456 312.016 307.736 465.468> 560 53<238.659 349.141 347.5 350.781 350.781 364> 703 20G<427.5 440>
VStem: 66 55<251.257 441.208>
Fore
552 481 m 0
 516 481 521 531 414 551 c 1
 296 143 l 1
 311 140 328 139 345 139 c 0
 414 139 494 162 523 208 c 1
 530 213 538 216 545 216 c 0
 560 216 572 207 572 188 c 0
 572 144 473 85 351 85 c 0
 329 85 306 87 283 91 c 1
 253 -9 l 2
 249 -22 238 -28 228 -28 c 0
 216 -28 204 -19 204 -6 c 0
 204 -3 205 1 206 4 c 2
 234 103 l 1
 145 131 66 204 66 349 c 0
 66 498 179 613 337 613 c 0
 351 613 365 612 379 611 c 1
 407 704 l 2
 410 714 422 723 433 723 c 0
 447 723 460 707 455 691 c 2
 430 605 l 1
 505 591 577 544 577 505 c 0
 577 489 566 481 552 481 c 0
121 349 m 0
 121 287 145 191 249 156 c 1
 364 558 l 1
 353 559 342 560 331 560 c 0
 197 560 121 447 121 349 c 0
EndSplineSet
EndChar
StartChar: sterling
Encoding: 163 163 102
Width: 589
VWidth: 1473
Flags: W
HStem: -10 50<337.908 496.44> 35 50<147.693 320.694> 333 49<81 149 230 386> 674 53<226.974 392.463>
VStem: 94 53<470.265 601.086> 196 53<176.215 332.016> 477 50<502 585.284>
Fore
435 40 m 0xbe
 466 40 486 53 519 78 c 1
 551 44 l 1
 521 13 483 -10 425 -10 c 0xbe
 344 -10 298 35 234 35 c 0
 165 35 153 12 121 -1 c 1
 72 65 l 1
 183 147 196 219 196 257 c 0
 196 288 185 315 174 333 c 1
 81 333 l 1
 63 382 l 1
 149 382 l 1
 137 396 94 452 94 526 c 0
 94 627 185 727 308 727 c 0
 426 727 527 655 527 502 c 1
 477 502 l 1
 477 598 409 674 311 674 c 0
 229 674 147 616 147 532 c 0
 147 513 149 452 209 382 c 1
 386 382 l 1
 404 333 l 1
 230 333 l 1
 236 309 249 296 249 252 c 0
 249 219 233 160 198 119 c 0
 178 96 161 78 147 65 c 1
 166 75 191 85 224 85 c 0x7e
 293 85 381 40 435 40 c 0xbe
EndSplineSet
EndChar
StartChar: currency
Encoding: 164 164 103
Width: 715
VWidth: 1473
Flags: W
HStem: 87 51<268.705 449.764> 529 54<269.341 447.2>
VStem: 109 56<240.646 423.518> 555 55<245.227 420.774>
Fore
358 583 m 0
 423 583 475 564 513 536 c 1
 550 573 l 2
 569 593 586 596 600 582 c 0
 615 565 612 548 591 529 c 2
 557 495 l 1
 592 451 610 398 610 337 c 0
 610 282 597 231 560 181 c 1
 589 152 l 2
 610 132 613 115 600 100 c 0
 585 85 567 89 548 110 c 2
 517 140 l 1
 467 101 406 87 358 87 c 0
 295 87 243 104 200 137 c 1
 174 110 l 2
 153 88 135 85 119 100 c 0
 106 114 109 131 128 152 c 2
 156 180 l 1
 121 229 109 282 109 331 c 0
 109 400 131 453 164 492 c 1
 128 529 l 2
 109 548 106 565 119 582 c 1
 134 595 152 592 174 573 c 2
 211 535 l 1
 249 562 298 583 358 583 c 0
359 529 m 0
 258 529 165 450 165 333 c 0
 165 216 256 138 359 138 c 0
 471 138 555 228 555 333 c 0
 555 444 463 529 359 529 c 0
EndSplineSet
EndChar
StartChar: yen
Encoding: 165 165 104
Width: 589
VWidth: 1473
Flags: W
HStem: -6 21G<288.5 307> 200 55<84.7944 267 330 515.326> 343 56<84.6719 220 376 515.326> 701 20G<71.5 86 511.5 525>
VStem: 267 63<-4.33414 200 255 329>
Fore
517 721 m 0
 533 721 552 708 552 689 c 0
 552 684 550 678 547 673 c 2
 376 399 l 1
 486 399 l 2
 501 399 516 388 516 371 c 256
 516 354 501 343 486 343 c 2
 339 343 l 1
 330 329 l 1
 330 255 l 1
 486 255 l 2
 501 255 516 244 516 227 c 256
 516 211 501 200 486 200 c 2
 330 200 l 1
 330 28 l 2
 330 8 316 -6 298 -6 c 256
 279 -6 267 8 267 28 c 2
 267 200 l 1
 113 200 l 2
 98 200 84 211 84 227 c 256
 84 244 99 255 113 255 c 2
 267 255 l 1
 267 329 l 1
 258 343 l 1
 113 343 l 2
 99 343 84 354 84 371 c 256
 84 388 99 399 113 399 c 2
 220 399 l 1
 52 673 l 2
 48 679 46 685 46 690 c 0
 46 709 63 721 80 721 c 0
 92 721 103 715 109 706 c 2
 298 399 l 1
 299 399 l 1
 489 706 l 2
 495 715 506 721 517 721 c 0
EndSplineSet
EndChar
StartChar: brokenbar
Encoding: 166 166 105
Width: 232
VWidth: 1473
Flags: W
VStem: 90 53<-219.532 202.533 337.468 759.535 377 722 -180 -180>
Fore
116 760 m 256
 134 760 143 747 143 722 c 2
 143 377 l 2
 143 350 134 337 116 337 c 256
 99 337 90 350 90 377 c 2
 90 722 l 2
 90 747 99 760 116 760 c 256
116 203 m 256
 134 203 143 190 143 164 c 2
 143 -180 l 2
 143 -207 134 -220 116 -220 c 256
 99 -220 90 -207 90 -180 c 2
 90 164 l 2
 90 190 99 203 116 203 c 256
EndSplineSet
EndChar
StartChar: section
Encoding: 167 167 106
Width: 567
VWidth: 1473
Flags: W
HStem: -77 48<207.116 357.136> 704 46<209.141 359.405>
VStem: 66 49<356.938 453.139> 106 56<15.5737 112.789> 116 52<561.006 664.469> 395 52<10.24 116.228> 408 49<560.106 656.721> 453 49<237.66 333.686>
Fore
106 96 m 0xd5
 106 116 119 125 137 125 c 0
 162 125 162 102 162 91 c 0xd5
 162 -5 231 -29 283 -29 c 0
 377 -29 395 41 395 70 c 0
 395 111 372 136 345 152 c 2
 134 273 l 2
 74 305 66 361 66 387 c 0xe4
 66 425 85 488 162 520 c 1xd0
 139 538 116 569 116 613 c 0
 116 670 168 750 284 750 c 0
 397 750 457 674 457 588 c 256
 457 569 449 560 433 560 c 0
 416 560 408 569 408 588 c 0
 408 624 391 704 275 704 c 0
 222 704 168 662 168 611 c 0xca
 168 562 215 537 277 501 c 2
 334 467 l 2
 354 455 372 444 390 435 c 2
 432 412 l 2
 442 406 502 382 502 303 c 0
 502 255 471 192 402 165 c 1
 446 131 447 91 447 72 c 0
 447 12 401 -77 288 -77 c 0
 182 -77 106 -14 106 96 c 0xd5
373 196 m 1
 422 214 453 255 453 295 c 0
 453 314 446 347 405 371 c 2
 190 489 l 1
 139 470 115 434 115 398 c 0xe1
 115 378 122 341 169 312 c 2
 373 196 l 1
EndSplineSet
EndChar
StartChar: dieresis
Encoding: 168 168 107
Width: 318
VWidth: 1473
Flags: W
HStem: 592 93<21.0153 101.584 215.294 295.32>
VStem: 15 93<598.702 678.152> 209 93<619.178 678.462>
Fore
255 592 m 256
 218.2 592 209 619.6 209 638 c 256
 209 665.562 226.183 685 255 685 c 256
 281.493 685 302 667.45 302 638 c 256
 302 610.4 283.2 592 255 592 c 256
60 592 m 256
 34.4812 592 15 608.568 15 638 c 256
 15 666.2 33 685 60 685 c 256
 88.8 685 108 666.2 108 638 c 256
 108 610.4 88.8 592 60 592 c 256
EndSplineSet
EndChar
StartChar: copyright
Encoding: 169 169 108
Width: 869
VWidth: 1473
Flags: W
HStem: -15 46<317.421 551.681> 124 53<321.336 544.914> 541 48<328.251 543.368> 691 43<321.046 545.279>
VStem: 57 45<245.665 472.328> 183 51<261.137 452.643> 763 46<244.895 472.328>
Fore
433 -15 m 0
 236 -15 57 144 57 359 c 0
 57 567 228 734 433 734 c 0
 639 734 809 567 809 359 c 0
 809 150 636 -15 433 -15 c 0
102 359 m 256
 102 179 248 31 433 31 c 0
 628 31 763 188 763 359 c 256
 763 544 615 691 433 691 c 0
 252 691 102 544 102 359 c 256
234 358 m 0
 234 213 334 177 432 177 c 0
 505 177 557 195 589 231 c 0
 602 249 628 238 630 215 c 0
 632.7 196.098 573.253 124 432 124 c 0
 286 124 183 218 183 358 c 0
 183 473 266 589 432 589 c 0
 571 589 633 523 632 501 c 0
 630 480 606 468 589 485 c 0
 557 522 505 541 432 541 c 0
 346 541 234 504 234 358 c 0
EndSplineSet
EndChar
StartChar: ordfeminine
Encoding: 170 170 109
Width: 378
VWidth: 1473
Flags: W
HStem: 303 42<99.7474 265.235> 485 44<106.679 247.262> 583 42<95.0127 263.224>
VStem: 35 42<367.685 457.838> 298 38<314.492 345 376.613 455.725 486 549.729>
Fore
298 345 m 1
 270 319 230 303 178 303 c 0
 109 303 35 336 35 417 c 0
 35 491 103 529 186 529 c 0
 221 529 258 526 298 486 c 1
 296 547 264 583 181 583 c 0
 96 583 83 536 59 560 c 1
 45 570 54 587 65 592 c 1
 98 614 138 625 183 625 c 0
 305 625 336 560 336 482 c 2
 336 330 l 2
 336 315 329 308 314 308 c 0
 303 308 296 319 298 330 c 1
 298 345 l 1
292 414 m 0
 292 471 230 485 184 485 c 0
 132 485 77 460 77 414 c 0
 77 364 126 345 181 345 c 0
 276 345 292 395 292 414 c 0
EndSplineSet
EndChar
StartChar: guillemotleft
Encoding: 171 171 110
Width: 441
VWidth: 1473
Flags: W
HStem: 57 437<179 206 187 190 190 190>
VStem: 41 339<83 275 272 275>
Fore
168 482 m 2
 170 486 177 494 190 494 c 0
 210 494 221 470 211 455 c 2
 94 275 l 1
 211 96 l 2
 223 78 206 57 187 57 c 0
 179 57 173 61 168 69 c 2
 41 275 l 1
 168 482 l 2
380 83 m 0
 380 62 357 57 352 57 c 0
 344 57 338 61 333 69 c 2
 206 275 l 1
 333 482 l 2
 335 486 342 494 355 494 c 0
 375 494 380 475 380 468 c 0
 380 463 379 459 376 455 c 2
 259 275 l 1
 376 96 l 2
 379 92 380 88 380 83 c 0
EndSplineSet
EndChar
StartChar: logicalnot
Encoding: 172 172 111
Width: 754
VWidth: 1473
Flags: W
HStem: 94 323<637.033 693.899 71 666 695 695> 358 59<42.3975 636>
VStem: 636 59<95.1798 358>
Fore
41 386 m 0x60
 41 404 55 417 71 417 c 2
 695 417 l 1
 695 124 l 2
 695 107 682 94 666 94 c 0xa0
 648 94 636 108 636 124 c 2
 636 358 l 1
 71 358 l 2
 56 358 41 369 41 386 c 0x60
EndSplineSet
EndChar
StartChar: registered
Encoding: 174 174 112
Width: 842
VWidth: 1473
Flags: W
HStem: -15 43<310.383 536.469> 306 40<392.666 544.415> 564 41<329.632 521.465> 691 44<307.592 538.168>
VStem: 47 44<246.195 478.305> 227 43<133.005 508.851> 576 44<377.353 514.328> 754 43<243.85 477.806>
Fore
423 735 m 0
 618 735 797 579 797 359 c 256
 797 146 620 -15 423 -15 c 0
 218 -15 47 150 47 359 c 256
 47 586 233 735 423 735 c 0
423 28 m 0
 598 28 754 169 754 359 c 256
 754 560 590 691 423 691 c 0
 251 691 91 556 91 359 c 256
 91 177 239 28 423 28 c 0
620 443 m 0
 620 352 553 306 469 306 c 0
 456 306 443 307 430 309 c 1
 492 294 581 186 595 152 c 1
 599 136 578 128 573 128 c 0
 552 128 534 193 424 278 c 0
 404 294 368 319 342 331 c 1
 328 334 314 347 326 362 c 1
 340 389 372 346 463 346 c 0
 519 346 576 365 576 442 c 0
 576 540 494 564 429 564 c 0
 355 564 270 538 270 436 c 2
 270 155 l 2
 270 140 263 133 249 133 c 0
 234 133 227 140 227 155 c 2
 227 442 l 2
 227 559 318 605 429 605 c 0
 502 605 620 573 620 443 c 0
EndSplineSet
EndChar
StartChar: macron
Encoding: 175 175 113
Width: 318
VWidth: 1473
Flags: W
HStem: 622 47<41 275 41 275 41 41>
Fore
41 622 m 1
 41 669 l 1
 275 669 l 1
 275 622 l 1
 41 622 l 1
EndSplineSet
EndChar
StartChar: degree
Encoding: 176 176 114
Width: 318
VWidth: 1473
Flags: W
HStem: 470 49<107.633 218.533> 684 51<105.551 216.552>
VStem: 29 51<546.379 657.862> 245 48<547 655.52>
Fore
29 601 m 0
 29 679 97 735 162 735 c 256
 228 735 293 679 293 601 c 256
 293 523 227 470 162 470 c 0
 90 470 29 527 29 601 c 0
80 601 m 0
 80 554 118 519 162 519 c 256
 210 519 245 557 245 601 c 256
 245 649 206 684 162 684 c 256
 117 684 77 648 80 601 c 0
EndSplineSet
EndChar
StartChar: plusminus
Encoding: 177 177 115
Width: 632
VWidth: 1473
Flags: W
HStem: 0 56<99.6094 537.391> 277 57<96.7515 289 346 538.209>
VStem: 99 439<1.75 54.25 278.976 331.954> 289 57<106.791 277 334 509.229>
Fore
134 277 m 2xd0
 108.667 277 96 286.333 96 305 c 0
 96 324.333 108.667 334 134 334 c 2
 289 334 l 1
 289 471 l 2
 289 497 298.667 510 318 510 c 0
 336.667 510 346 497 346 471 c 2
 346 334 l 1
 499 334 l 2
 525.667 334 539 324.333 539 305 c 0
 539 286.333 525.667 277 499 277 c 2
 346 277 l 1
 346 146 l 2
 346 119.333 336.667 106 318 106 c 0
 298.667 106 289 119.333 289 146 c 2
 289 277 l 1
 134 277 l 2xd0
499 56 m 2
 525 56 538 46.6667 538 28 c 256
 538 9.33333 525 9.53674e-07 499 0 c 2
 138 0 l 2
 112 0 99 9.33333 99 28 c 256xe0
 99 46.6667 112 56 138 56 c 2
 499 56 l 2
EndSplineSet
EndChar
StartChar: twosuperior
Encoding: 178 178 116
Width: 453
VWidth: 1473
Flags: W
HStem: 280 51<159 375.307> 653 53<152.64 293.72>
VStem: 68 56<536.843 622.9> 324 54<535.616 623.801>
Fore
234 706 m 0
 321 706 378 638 378 572 c 0
 378 523 354 493 327 471 c 2
 159 331 l 1
 359 331 l 2
 368 331 375 329 380 324 c 1
 389 306 l 1
 389 290 377 280 359 280 c 2
 90 280 l 2
 71 280 61 292 61 307 c 0
 61 329 66 326 166 406 c 2
 293 511 l 2
 322 536 324 560 324 572 c 0
 324 614 287 653 234 653 c 0
 149 653 127 617 124 560 c 0
 124 541 105 536 96 536 c 256
 81 536 68 551 68 564 c 0
 77 659 132 706 234 706 c 0
EndSplineSet
EndChar
StartChar: threesuperior
Encoding: 179 179 117
Width: 441
VWidth: 1473
Flags: W
HStem: 280 54<177.876 292.1> 486 55<177.851 274.274> 656 53<150.757 283.222>
VStem: 78 52<358.964 427.399 568.018 635.59> 301 53<558.542 638.236> 315 56<356.152 453.846>
Fore
311 513 m 1xf8
 366 487 371 433 371 404 c 0
 371 336 304 280 228 280 c 0
 176 280 78 320 78 412 c 0
 78 423 83 440 103 440 c 0
 121 440 130 431 130 412 c 0
 130 384 140 364 162 352 c 0
 182 340 205 334 228 334 c 0
 258 334 315 349 315 404 c 0xf4
 315 474 270 486 261 486 c 2
 192 486 l 2
 178 486 165 495 165 513 c 256
 165 528 175 541 192 541 c 2
 267 541 l 1
 292 545 301 573 301 594 c 0
 301 621 278 656 225 656 c 0
 185 656 133 644 133 594 c 0
 133 578 122 567 106 567 c 0
 93 567 81 579 81 594 c 0
 81 670 141 709 225 709 c 0
 309 709 354 648 354 596 c 0
 354 565 338 532 311 513 c 1xf8
EndSplineSet
EndChar
StartChar: acute
Encoding: 180 180 118
Width: 318
VWidth: 1473
Flags: W
HStem: 569 153<165 218 218 218>
Fore
165 569 m 1
 119 569 l 1
 218 722 l 1
 305 722 l 1
 165 569 l 1
EndSplineSet
EndChar
StartChar: mu
Encoding: 181 181 119
Width: 702
VWidth: 1473
Flags: W
HStem: -283 21G<97.5 127> -7 57<243.884 427.628> 506 20G<104.5 120.5 575.5 593>
VStem: 74 75<-256.03 -189.984> 84 56<149.673 525.259> 84 43<-59.7391 108> 558 53<7.59479 93 148.165 258 258 525.576>
Fore
74 -220 m 0xf2
 74 -192 84 -52 84 60 c 2xe6
 84 498 l 2
 84 515 97 526 112 526 c 256
 129 526 140 513 140 498 c 2
 140 243 l 2xea
 140 124 221 50 348 50 c 0
 487 50 557 119 557 258 c 2
 557 498 l 2
 557 517 566 526 585 526 c 0
 601 526 611 515 611 498 c 2
 611 22 l 2
 611 3 602 -6 585 -6 c 0
 563 -6 558 12 558 22 c 2
 558 93 l 1
 490 -7 380 -7 348 -7 c 0
 240 -7 164 30 127 108 c 1xe6
 127 -13 149 -220 149 -230 c 0
 149 -256 141 -283 113 -283 c 0
 82 -283 74 -254 74 -220 c 0xf2
EndSplineSet
EndChar
StartChar: paragraph
Encoding: 182 182 120
Width: 589
VWidth: 1473
Flags: W
HStem: 656 59<334 433.779>
VStem: 72 262<423.083 601.817> 278 56<-229.337 315> 436 58<-235.873 653.206>
Fore
414 715 m 2xd0
 435 715 494 700 494 625 c 2
 494 -209 l 2
 494 -226 479 -237 464 -237 c 256
 447 -237 436 -224 436 -209 c 2
 436 625 l 2
 436 646 426 656 405 656 c 2
 334 656 l 1
 334 -202 l 2
 334 -219 321 -230 306 -230 c 0
 287 -230 278 -221 278 -202 c 2
 278 315 l 1xb0
 153 312 72 407 72 511 c 256
 72 619 153 715 274 715 c 2
 414 715 l 2xd0
EndSplineSet
EndChar
StartChar: periodcentered
Encoding: 183 183 121
Width: 338
VWidth: 1473
Flags: W
HStem: 253 190<109.898 229.132>
VStem: 74 191<287.919 407.4>
Fore
169 443 m 0
 224.06 443 265 398.927 265 348 c 256
 265 295.982 224.464 253 169 253 c 0
 119.728 253 74 292.154 74 348 c 256
 74 402.237 119.586 443 169 443 c 0
EndSplineSet
EndChar
StartChar: cedilla
Encoding: 184 184 122
Width: 318
VWidth: 1473
Flags: W
HStem: -211 43<105.359 175.468>
VStem: 192 60<-161.561 -93.8413>
Fore
171 -52 m 1
 200 -57 252 -77 252 -122 c 0
 252 -193 180 -211 137 -211 c 0
 103 -211 73 -202 52 -189 c 1
 81 -152 l 1
 90 -159 109 -168 138 -168 c 0
 162 -168 192 -160 192 -130 c 0
 192 -98 155 -79 117 -79 c 0
 113 -79 109 -80 105 -80 c 1
 162 6 l 1
 217 6 l 1
 171 -52 l 1
EndSplineSet
EndChar
StartChar: onesuperior
Encoding: 185 185 123
Width: 343
VWidth: 1473
Flags: W
HStem: 281 425<183.188 216.8>
VStem: 55 163<616 660.81> 165 53<281.452 639>
Fore
194 706 m 0xc0
 216 706 218 684 218 669 c 2
 218 309 l 2
 218 294 206 281 192 281 c 256
 175 281 165 294 165 309 c 2
 165 639 l 1xa0
 91 613 l 2
 75 605 55 616 55 638 c 0
 55 650 65 657 72 661 c 1
 183 704 l 2
 187 705 191 706 194 706 c 0xc0
EndSplineSet
EndChar
StartChar: ordmasculine
Encoding: 186 186 124
Width: 394
VWidth: 1473
Flags: W
HStem: 275 45<127.475 270.417> 583 45<124.319 270.846>
VStem: 19 50<376.991 525.515> 327 49<374.382 525.43>
Fore
196 628 m 0
 306 628 376 549 376 454 c 0
 376 323 268 275 196 275 c 0
 101 275 19 344 19 448 c 0
 19 556 104 628 196 628 c 0
197 320 m 0
 242 320 327 345 327 451 c 0
 327 514 284 583 197 583 c 0
 115 583 69 520 69 449 c 0
 69 366 135 320 197 320 c 0
EndSplineSet
EndChar
StartChar: guillemotright
Encoding: 187 187 125
Width: 441
VWidth: 1473
Flags: W
HStem: 57 437<244 258 254 257 254 254>
VStem: 64 338<275 468 468 471>
Fore
402 275 m 1
 275 69 l 2
 270 61 264 57 257 57 c 0
 244 57 229 69 229 83 c 0
 229 87 230 92 233 96 c 2
 349 275 l 1
 233 455 l 2
 231 459 229 463 229 468 c 0
 229 481 240 494 254 494 c 0
 258 494 269 493 275 482 c 2
 402 275 l 1
64 468 m 0
 64 474 69 494 89 494 c 0
 93 494 104 493 110 482 c 2
 237 275 l 1
 110 69 l 2
 105 61 99 57 92 57 c 0
 82 57 64 65 64 83 c 0
 64 88 65 92 68 96 c 2
 184 275 l 1
 68 455 l 2
 65 459 64 463 64 468 c 0
EndSplineSet
EndChar
StartChar: onequarter
Encoding: 188 188 126
Width: 889
VWidth: 1473
Flags: W
HStem: -1 21G<756.5 774> 82 52<569 737 793 834.254>
VStem: 165 53<281.452 639> 737 56<-0.468842 82 134 330>
Fore
631 703 m 1
 685 703 l 1
 237 -16 l 1
 183 -16 l 1
 631 703 l 1
194 706 m 0
 216 706 218 684 218 669 c 2
 218 309 l 2
 218 294 206 281 192 281 c 256
 175 281 165 294 165 309 c 2
 165 639 l 1
 91 613 l 2
 75 605 55 616 55 638 c 0
 55 650 65 657 72 661 c 1
 183 704 l 2
 187 705 191 706 194 706 c 0
821 134 m 2
 847 134 847 115 847 109 c 0
 847 87 830 82 821 82 c 2
 793 82 l 1
 793 25 l 2
 793 9 782 -1 766 -1 c 0
 747 -1 737 8 737 25 c 2
 737 82 l 1
 511 82 l 2
 492 80 484 101 484 109 c 0
 484 116 487 121 491 125 c 2
 745 418 l 1
 752 423 759 426 766 426 c 0
 777 426 793 420 793 398 c 2
 793 134 l 1
 821 134 l 2
737 134 m 1
 737 330 l 1
 569 134 l 1
 737 134 l 1
EndSplineSet
LCarets2: 2 0 0 
Ligature2: "'frac' Diagonal Fractions in Latin lookup 0 subtable" one fraction four
Ligature2: "'frac' Diagonal Fractions in Latin lookup 0 subtable" one slash four
EndChar
StartChar: onehalf
Encoding: 189 189 127
Width: 888
VWidth: 1473
Flags: W
HStem: 0 52<620 849.552> 373 53<629.746 755.127>
VStem: 162 53<299.595 644> 529 56<272.632 345.355> 785 54<255.338 344.236>
Fore
585 707 m 1
 641 707 l 1
 194 -12 l 1
 140 -12 l 1
 585 707 l 1
189 286 m 256
 167 286 162 304 162 314 c 2
 162 644 l 1
 88 617 l 2
 69 610 51 623 51 643 c 0
 51 653 58 660 68 666 c 1
 178 709 l 2
 182 710 185 710 188 710 c 0
 213 710 215 692 215 673 c 2
 215 314 l 2
 215 299 204 286 189 286 c 256
821 52 m 2
 847 52 850 38 850 27 c 0
 850 11 838 0 821 0 c 2
 551 0 l 2
 527 0 522 17 522 28 c 0
 522 52 544 59 627 126 c 2
 754 231 l 2
 783 256 785 281 785 293 c 0
 785 331 750 373 695 373 c 0
 612 373 588 339 585 280 c 0
 585 261 566 256 557 256 c 256
 542 256 529 273 529 284 c 0
 541 426 651 426 696 426 c 0
 781 426 839 359 839 292 c 0
 839 244 815 213 788 192 c 0
 779 186 663 85 620 52 c 1
 821 52 l 2
EndSplineSet
LCarets2: 2 0 0 
Ligature2: "'frac' Diagonal Fractions in Latin lookup 0 subtable" one fraction two
Ligature2: "'frac' Diagonal Fractions in Latin lookup 0 subtable" one slash two
EndChar
StartChar: threequarters
Encoding: 190 190 128
Width: 886
VWidth: 1473
Flags: W
HStem: -4 21G<218 285.406 751 766.5> 85 52<564 732 788 842.801> 283 54<119.967 254.867> 489 55<141.293 237.315> 659 53<113.834 247.521>
VStem: 41 52<365.273 442.666 571.018 636.206> 265 52<561.18 641.081> 278 56<360.343 456.492> 732 56<1.94439 85 137 333>
Fore
664 715 m 1xfc80
 719 715 l 1
 273 -4 l 1
 218 -4 l 1
 664 715 l 1xfc80
93 415 m 0
 93 352 156 337 192 337 c 0
 221 337 278 352 278 407 c 0xfd80
 278 475 237 488 225 489 c 2
 155 489 l 2
 142 489 128 498 128 516 c 256
 128 531 138 544 155 544 c 2
 230 544 l 1
 255 548 265 574 265 594 c 0
 265 620 246 659 192 659 c 0
 150 659 96 647 96 597 c 0
 96 581 85 570 69 570 c 0
 56 570 44 582 44 597 c 0
 44 674 107 712 192 712 c 0
 277 712 317 642 317 597 c 0xfe80
 317 566 301 534 274 516 c 1
 332.49 482.577 334 427.431 334 407 c 0xfd80
 334 338 265 283 192 283 c 0
 137 283 41 323 41 415 c 0
 41 430 51 443 66 443 c 0
 84 443 93 434 93 415 c 0
816 137 m 2
 843 137 843 119 843 110 c 0
 843 95 832 85 816 85 c 2
 788 85 l 1
 788 28 l 2
 788 12 774 1 759 1 c 256
 743 1 732 14 732 28 c 2
 732 85 l 1
 507 85 l 2
 490 85 479 98 479 113 c 0
 479 119 482 124 486 128 c 2
 741 421 l 1
 747 426 754 429 761 429 c 0
 770 429 788 423 788 401 c 2
 788 137 l 1
 816 137 l 2
732 137 m 1
 732 333 l 1
 564 137 l 1
 732 137 l 1
EndSplineSet
LCarets2: 2 0 0 
Ligature2: "'frac' Diagonal Fractions in Latin lookup 0 subtable" three fraction four
Ligature2: "'frac' Diagonal Fractions in Latin lookup 0 subtable" three slash four
EndChar
StartChar: questiondown
Encoding: 191 191 129
Width: 615
VWidth: 1473
Flags: W
HStem: -233 55<213.419 419.417> 415 105<334.021 418.752>
VStem: 74 56<-102.894 61.0831> 324 105<425.133 510.34> 351 54<235.837 373.389>
Fore
321 -233 m 0xe8
 184 -233 74 -164 74 -16 c 256
 74 143 224 175 242 182 c 2
 271 191 l 2
 335 212 351 273 351 306 c 2
 351 334 l 2
 351 361 360 374 377 374 c 0
 396 374 405 361 405 334 c 2
 405 306 l 2
 405 200 329 157 286 144 c 2
 248 131 l 2
 245 130 130 105 130 -16 c 0
 130 -146 232 -178 318 -178 c 0
 397 -178 457 -147 499 -84 c 0
 516 -63 548 -82 548 -102 c 0
 548 -131 490 -181 448 -204 c 0
 411 -223 369 -233 321 -233 c 0xe8
377 415 m 256
 346 415 324 439 324 468 c 256
 324 499 348 520 377 520 c 256
 406 520 429 499 429 468 c 256xf0
 429 440 408 415 377 415 c 256
EndSplineSet
EndChar
StartChar: Aring
Encoding: 197 197 134
Width: 726
VWidth: 1473
Flags: W
HStem: 0 21G<78.5 97 628.5 646.5> 330 55<114 610> 666 56<242.206 482.903> 768 39<319.873 403.113> 902 41<319.998 402.289>
VStem: 60 54<0.611328 330 385 550.662> 275 37<815.664 893.484> 410 38<814.042 894.922> 610 54<0.611328 330 385 549.537>
Fore
364 722 m 256
 628 722 664 534 664 464 c 2
 664 40 l 2
 664 13 655 0 638 0 c 0
 619 0 610 13 610 40 c 2
 610 330 l 1
 114 330 l 1
 114 40 l 2
 114 13 106 0 88 0 c 0
 69 0 60 13 60 40 c 2
 60 462 l 2
 60 526 95 722 364 722 c 256
364 666 m 256
 146 666 114 519 114 461 c 2
 114 385 l 1
 610 385 l 1
 610 448 l 2
 612 505 590 666 364 666 c 256
275 854 m 256
 275 900 311 943 364 943 c 0
 409 943 448 904 448 854 c 256
 448 805 408 768 364 768 c 0
 311 768 275 809 275 854 c 256
312 854 m 256
 312 827 334 807 364 807 c 0
 389 807 410 826 410 854 c 256
 410 887 385 902 364 902 c 0
 335 902 312 883 312 854 c 256
EndSplineSet
EndChar
StartChar: AE
Encoding: 198 198 135
Width: 1228
VWidth: 1473
Flags: W
HStem: -3 50<797.831 996.717> 330 55<116 610 666 1023.39> 666 56<242.345 480.967 794.129 998.178>
VStem: 60 55<0.611328 330 385 550.662> 610 56<0.611328 113 175.117 330 385 543.823>
Fore
897 -3 m 0
 799 -3 710 45 664 113 c 1
 664 40 l 2
 664 13 655 0 638 0 c 0
 619 0 610 13 610 40 c 2
 610 330 l 1
 115 330 l 1
 115 40 l 2
 115 13 106 0 88 0 c 0
 69 0 60 13 60 40 c 2
 60 462 l 2
 60 526 95 722 364 722 c 0
 435 722 561 710 635 573 c 1
 683 662 789 722 897 722 c 0
 1100 722 1183 620 1183 574 c 0
 1183 552 1146 541 1133 566 c 0
 1073 674 915 667 891 667 c 0
 792 667 666 594 666 470 c 2
 666 385 l 1
 984 385 l 2
 1011 385 1024 376 1024 358 c 0
 1024 339 1011 330 984 330 c 2
 666 330 l 1
 666 259 l 2
 666 127 791 47 891 47 c 0
 919 47 1074 41 1133 149 c 0
 1146 171 1184 166 1184 139 c 0
 1184 101 1114 -3 897 -3 c 0
364 666 m 0
 146 666 116 519 116 461 c 2
 116 385 l 1
 610 385 l 1
 610 463 l 2
 603 588 505 666 364 666 c 0
EndSplineSet
EndChar
StartChar: Eth
Encoding: 208 208 145
Width: 769
VWidth: 1473
Flags: W
HStem: 0 53<189.12 438.096> 334 49<1 90 144 340> 664 53<185.921 438.38>
VStem: 90 54<93.0632 334 383 624.242> 644 54<244.599 470.295>
CounterMasks: 1 e0
Fore
271 0 m 2
 198 0 90 42 90 149 c 2
 90 334 l 1
 1 334 l 1
 1 383 l 1
 90 383 l 1
 90 567 l 2
 90 657 164 717 271 717 c 2
 305 717 l 2
 541 717 698 573 698 358 c 0
 698 144 542 -0 305 0 c 2
 271 0 l 2
144 147 m 2
 144 79 217 53 271 53 c 2
 305 53 l 2
 444 53 644 126 644 358 c 256
 644 543 504 664 305 664 c 2
 271 664 l 2
 199 664 147 630 144 570 c 2
 144 383 l 1
 340 383 l 1
 340 334 l 1
 144 334 l 1
 144 147 l 2
EndSplineSet
EndChar
StartChar: multiply
Encoding: 215 215 152
Width: 589
VWidth: 1473
Flags: W
HStem: 52 397<97 99 99 99>
VStem: 97 395<52 53 52 52>
Fore
108 402 m 2
 88 420 85 435.667 99 449 c 0
 111.667 461.667 127.667 459.333 147 442 c 2
 295 290 l 1
 440 442 l 2
 460 459.333 476.333 461.667 489 449 c 0
 503 435.667 500 420 480 402 c 2
 333 250 l 1
 483 100 l 2
 503 82.6667 506 67 492 53 c 0
 479.333 39 463 41.3333 443 60 c 2
 293 211 l 1
 146 59 l 2
 126 40.3333 109.667 38 97 52 c 0
 83.6667 65.3333 86.6667 81 106 99 c 2
 255 250 l 1
 108 402 l 2
EndSplineSet
EndChar
StartChar: Oslash
Encoding: 216 216 153
Width: 798
VWidth: 1473
Flags: W
HStem: -7 57<280.051 512.943> 664 58<286.089 449.439>
VStem: 46 57<232.412 478.921> 697 57<234.83 479.926>
Fore
754 357 m 0
 754 122 592 -7 399 -7 c 0
 335 -7 278 6 228 32 c 1
 205 -7 l 2
 188 -38 172 -49 155 -40 c 256
 138 -31 139 -12 158 19 c 2
 183 62 l 1
 140 94 46 180 46 357 c 0
 46 566 187 722 399 722 c 0
 451 722 500 713 545 694 c 1
 570 737 l 2
 590 768 607 779 622 768 c 1
 639 759 638 739 619 710 c 2
 595 667 l 1
 687 609 754 502 754 357 c 0
399 50 m 0
 578 50 697 178 697 357 c 0
 697 468 651 563 566 619 c 1
 256 82 l 1
 299 61 346 50 399 50 c 0
399 664 m 0
 221 664 103 537 103 357 c 0
 103 244 146 161 211 112 c 1
 516 642 l 1
 484 656 444 664 399 664 c 0
EndSplineSet
EndChar
StartChar: Thorn
Encoding: 222 222 159
Width: 636
VWidth: 1473
Flags: W
HStem: 177 43<146 452.471> 542 50<146 458.135>
VStem: 93 53<-18.5321 177 220 542 592 730.532> 522 50<289.813 473.924>
Fore
572 380 m 0
 572 245 469 177 371 177 c 2
 146 177 l 1
 146 21 l 2
 146 -6 137 -19 119 -19 c 256
 102 -19 93 -6 93 21 c 2
 93 691 l 2
 93 718 102 731 119 731 c 256
 137 731 146 718 146 691 c 2
 146 592 l 1
 355 592 l 2
 448 592 572 550 572 380 c 0
522 377 m 0
 522 509 444 542 377 542 c 2
 146 542 l 1
 146 220 l 1
 377 220 l 2
 438 220 522 259 522 377 c 0
EndSplineSet
EndChar
StartChar: uni00DF
Encoding: 223 223 160
Width: 592
VWidth: 1473
Flags: W
HStem: 3 46<196.696 395.824> 451 45<199 378.603> 701 41<195.695 364.227>
VStem: 96 50<-0.683533 649.259> 418 49<524.478 650.639> 498 46<153.602 332.147>
Fore
467 587 m 0
 467 513 414 473 393 468 c 1
 480 431 544 362 544 245 c 0
 544 108 454 3 320 3 c 2
 209 3 l 2
 202 3 187 7 187 25 c 0
 187 37 196 49 209 49 c 2
 308 49 l 2
 432 49 498 145 498 249 c 0
 492 370 392 451 292 451 c 2
 199 451 l 1
 199 496 l 1
 296 496 l 2
 394 496 418 532 418 586 c 0
 418 656 361 701 280 701 c 0
 158 701 146 615 146 551 c 2
 146 21 l 2
 146 8 136 -1 121 -1 c 0
 111 -1 96 8 96 21 c 2
 96 560 l 2
 96 649 145 742 275 742 c 0
 438 742 467 649 467 587 c 0
EndSplineSet
EndChar
StartChar: ae
Encoding: 230 230 167
Width: 1103
VWidth: 1473
Flags: W
HStem: -7 50<168.548 390.87 711.494 906.109> 236 56<573 995.027> 303 55<188.971 387.098> 471 58<167.949 413.737 689.334 904.24>
VStem: 46 54<100.39 229.619> 505 67<154.047 235.09> 514 59<292.188 360.439> 998 59<302.036 393.774>
Fore
1057 331 m 0xfb
 1057 268 1008 236 972 236 c 2
 572 236 l 1xfd
 583 111 657 49 794 49 c 0
 882 49 943 80 980 127 c 0
 1008 155 1037 143 1035 114 c 0
 1034 104 1031 96 1025 91 c 1
 978 29 902 -9 794 -9 c 0
 746 -9 631 -4 552 112 c 1
 469 -9 346 -7 292 -7 c 0
 94 -7 46 95 46 163 c 0
 46 241 93 358 306 358 c 0
 311 358 475 356 513 265 c 1
 514 275 514 285 514 295 c 0
 514 436 400 471 290 471 c 0
 148 471 104 396 78 429 c 0
 69 438 67 457 91 471 c 0
 157 516 223 529 292 529 c 0
 438 529 512 477 551 393 c 1
 580 444 648 529 794 529 c 0
 975 529 1057 408 1057 331 c 0xfb
971 292 m 2
 990 292 998 310 998 330 c 0
 998 386 944 470 794 470 c 0
 670 470 585 398 573 292 c 1xfb
 971 292 l 2
298 43 m 0
 470 43 505 125 505 179 c 0xfd
 505 229 474 303 303 303 c 0
 218 303 100 267 100 163 c 0
 100 72 200 43 298 43 c 0
EndSplineSet
EndChar
StartChar: eth
Encoding: 240 240 177
Width: 667
VWidth: 1473
Flags: W
HStem: -12 56<213.055 434.901> 460 57<223.503 427.288> 610 21G<301.118 360.784>
VStem: 44 56<155.333 341.548> 551 53<-11.8728 84 150.896 345.25>
Fore
451 675 m 1
 496 645 604 552 604 368 c 2
 604 15 l 2
 604 -2 593 -13 577 -13 c 256
 562 -13 551 -0 551 15 c 2
 551 84 l 1
 497 16 422 -12 323 -12 c 0
 234 -12 44 41 44 252 c 0
 44 379 144 517 323 517 c 0
 459 517 530 449 548 414 c 1
 524 564 424 632 398 647 c 1
 317 610 l 1
 290 644 l 1
 357 673 l 1
 324 692 289 704 237 717 c 1
 222 726 216 747 238 756 c 0
 258 765 353 734 405 700 c 1
 488 741 l 1
 519 704 l 1
 451 675 l 1
323 44 m 0
 503 44 548 162 548 252 c 0
 548 396 430 460 323 460 c 0
 181 460 100 356 100 252 c 0
 100 169 145 44 323 44 c 0
EndSplineSet
EndChar
StartChar: divide
Encoding: 247 247 184
Width: 742
VWidth: 1473
Flags: W
HStem: 50 103<336.047 413.936> 249 66<66.9531 692.394> 414 105<337.434 415.783>
VStem: 327 96<59.0708 143.969 422.184 481.718>
Fore
376 519 m 0
 404.8 519 424 496.6 424 466 c 0
 424 437.2 404.8 414 376 414 c 256
 346.6 414 327 437.25 327 466 c 0
 328.147 478.617 336.8 519 376 519 c 0
376 153 m 0
 402.887 153 423 129.94 423 100 c 0
 423 74.4018 404.061 50 374 50 c 256
 343.697 50 327 75.5128 327 100 c 0
 327 129.35 346.6 153 376 153 c 0
50 283 m 0
 50 308.6 70.8 315 82 315 c 2
 660 315 l 2
 681 315 695 302.2 695 283 c 0
 695 265.511 680.355 249 660 249 c 2
 82 249 l 2
 65.1926 249 50 264.783 50 283 c 0
EndSplineSet
EndChar
StartChar: oslash
Encoding: 248 248 185
Width: 639
VWidth: 1473
Flags: W
HStem: -7 48<282.579 414.219> 479 48<221.668 375.361>
VStem: 60 48<161.822 361.315> 535 47<166.963 357.811>
Fore
321 527 m 0
 354 527 383 521 408 511 c 1
 432 561 l 2
 435 568 441 572 450 572 c 0
 466 572 475 556 470 544 c 2
 448 494 l 1
 477 473 l 2
 492 462 582 387 582 254 c 0
 582 112 464 -7 320 -7 c 0
 283 -7 254 -0 228 10 c 1
 203 -40 l 2
 200 -48 194 -52 187 -52 c 0
 170 -52 161 -37 168 -24 c 2
 192 31 l 1
 114 71 60 160 60 259 c 0
 60 402 164 527 321 527 c 0
320 479 m 0
 181 479 108 375 108 259 c 0
 108 147 179 87 211 71 c 1
 389 467 l 1
 383 470 361 479 320 479 c 0
247 53 m 1
 300 41 309 41 324 41 c 0
 456 41 535 156 535 263 c 0
 535 374 463 430 427 448 c 1
 247 53 l 1
EndSplineSet
EndChar
StartChar: thorn
Encoding: 254 254 191
Width: 677
VWidth: 1473
Flags: W
HStem: -16 51<252.819 457.172> 482 57<266.939 452.142>
VStem: 91 47<149.69 358.316> 91 56<-230.393 99 424 736.391> 573 53<159.124 357.353>
Fore
147 424 m 1xd8
 175 472 253 539 357 539 c 0
 518 539 626 410 626 253 c 0
 626 145 551 -16 348 -16 c 0
 268 -16 176 27 147 99 c 1
 147 -193 l 2
 147 -218 138 -231 120 -231 c 0
 119 -231 l 256
 100 -231 91 -218 91 -193 c 2
 91 698 l 2
 91 724 100 737 119 737 c 256
 138 737 147 724 147 698 c 2
 147 424 l 1xd8
138 256 m 0xe8
 138 121 221 35 362 35 c 0
 489 35 573 130 573 270 c 0
 573 366 494 482 360 482 c 0
 285 482 138 428 138 256 c 0xe8
EndSplineSet
EndChar
StartChar: Lslash
Encoding: 321 321 193
Width: 671
VWidth: 1473
Flags: W
HStem: 0 53<161.606 647.406>
VStem: 91 58<65.4664 370 446 712.072>
Fore
149 116 m 2
 146.59 81.0558 164.919 53 214 53 c 2
 610 53 l 2
 635.333 53 648 43.6667 648 25 c 0
 648 8.33333 635.333 9.53674e-07 610 0 c 2
 212 0 l 2
 149.909 0 91 37.1797 91 118 c 2
 90 370 l 1
 15 324 l 1
 15 373 l 1
 90 417 l 1
 91 675 l 2
 91 700.333 100.333 713 119 713 c 0
 139 713 149 700.333 149 675 c 2
 149 446 l 1
 265 523 l 1
 265 470 l 1
 149 398 l 1
 149 116 l 2
EndSplineSet
EndChar
StartChar: lslash
Encoding: 322 322 194
Width: 238
VWidth: 1473
Flags: W
HStem: -1 21G<110.333 128> 827 20G<110.333 128>
VStem: 93 53<-0.533447 346 421 846.521>
Fore
225 471 m 1
 225 421 l 1
 146 373 l 1
 146 38 l 2
 146 12 137 -1 119 -1 c 256
 101.667 -1 93 12 93 38 c 2
 93 346 l 1
 15 301 l 1
 15 349 l 1
 93 395 l 1
 93 807 l 2
 93 833.667 101.667 847 119 847 c 256
 137 847 146 833.667 146 807 c 2
 146 421 l 1
 225 471 l 1
EndSplineSet
EndChar
StartChar: OE
Encoding: 338 338 195
Width: 1286
VWidth: 1473
Flags: W
HStem: -7 57<284.685 487.128 843.095 1056.9> 330 55<725 1082.39> 664 58<275.628 492.549 846.591 1061.26>
VStem: 47 55<230.238 483.599> 666 59<233.938 330 385 480.906>
Fore
383 722 m 0
 560 722 644 610 678 544 c 1
 711 658 834 722 956 722 c 0
 1178 722 1242 606 1242 574 c 0
 1242 552 1205 541 1192 566 c 0
 1132 674 974 667 950 667 c 0
 840 667 725 592 725 476 c 2
 725 385 l 1
 1043 385 l 2
 1070 385 1083 376 1083 358 c 0
 1083 339 1070 330 1043 330 c 2
 725 330 l 1
 725 239 l 2
 725 111 840 47 950 47 c 0
 978 47 1133 41 1192 149 c 0
 1205 171 1257 168 1239 119 c 0
 1191 27 1074 -7 956 -7 c 0
 873 -7 717 28 678 168 c 1
 625 67 528 -7 383 -7 c 0
 181 -7 47 153 47 357 c 256
 47 567 181 722 383 722 c 0
383 50 m 0
 553 50 666 179 666 357 c 0
 666 537 553 664 383 664 c 0
 214 664 102 538 102 357 c 0
 102 152 238 50 383 50 c 0
EndSplineSet
EndChar
StartChar: oe
Encoding: 339 339 196
Width: 1152
VWidth: 1473
Flags: W
HStem: -9 58<728.583 947.536> 0 55<221.707 443.505> 236 56<614 1036.73> 476 54<220.904 435.161 745.297 936.645>
VStem: 49 51<169.182 359.747> 557 57<292 353.57> 1039 62<301.156 394.166>
Fore
613 236 m 1x7e
 623 114 717 49 837 49 c 0
 949 49 1004 102 1024 127 c 0
 1047 155 1077 146 1077 114 c 0
 1077 104 1074 96 1067 91 c 1
 1020 30 944 -9 837 -9 c 0xbe
 707 -9 620 48 580 138 c 1
 521 12 384 0 329 0 c 0
 165 0 49 106 49 265 c 0
 49 375 105 530 329 530 c 0
 481 530 554 447 583 382 c 1
 611 439 686 529 840 529 c 0
 1028 529 1101 406 1101 330 c 0
 1101 261 1047 236 1024 236 c 2
 613 236 l 1x7e
329 55 m 0x7e
 517 55 551 180 557 265 c 2
 557 273 l 2
 552 400 454 476 329 476 c 256
 207 476 100 403 100 265 c 0
 100 128 205 55 329 55 c 0x7e
1014 292 m 2
 1034 292 1039 315 1039 330 c 0
 1039 390 980 471 840 471 c 0
 659 471 619 329 614 292 c 1
 1014 292 l 2
EndSplineSet
EndChar
StartChar: florin
Encoding: 402 402 202
Width: 525
VWidth: 1473
Flags: W
HStem: -153 85<43.1253 109.971> 398 41<155 262 317 415> 652 82<421.188 468.008>
VStem: 36 459<-108 690 -108 -10>
Fore
495 690 m 0
 495 660 468 652 454 652 c 0
 421 652 421 696 390 675 c 0
 337 635 345 549 317 438 c 1
 426 438 l 1
 415 396 l 1
 312 396 l 1
 308 378 291 287 275 214 c 2
 249 94 l 2
 221 -29 166 -153 90 -153 c 0
 49 -153 36 -126 36 -108 c 0
 36 -92 45 -68 80 -68 c 0
 110 -68 101 -96 125 -96 c 1
 178 -63 191 69 202 109 c 2
 262 398 l 1
 143 398 l 1
 155 439 l 1
 268 439 l 1
 316 667 372 734 440 734 c 0
 467 734 495 710 495 690 c 0
EndSplineSet
EndChar
StartChar: circumflex
Encoding: 710 710 203
Width: 472
VWidth: 1473
Flags: W
HStem: 682 158
VStem: 99 280<694 714 707 707 707 707>
Fore
124 682 m 0
 108 682 99 694 99 707 c 0
 99 714 101 720 106 725 c 2
 218 829 l 2
 225 837 233 840 240 840 c 0
 247 840 254 837 261 829 c 2
 371 725 l 2
 376 720 379 714 379 707 c 0
 379 694 369 682 353 682 c 0
 346 682 339 684 334 689 c 2
 239 781 l 1
 141 689 l 2
 136 684 130 682 124 682 c 0
EndSplineSet
EndChar
StartChar: caron
Encoding: 711 711 204
Width: 472
VWidth: 1473
Flags: W
HStem: 708 158
VStem: 99 280<834 856 842 842 842 842>
Fore
353 866 m 0
 366 866 379 856 379 842 c 0
 379 834 376 829 371 824 c 2
 261 719 l 2
 254 712 247 708 240 708 c 0
 233 708 225 712 218 719 c 2
 106 824 l 2
 101 829 99 834 99 842 c 0
 99 856 110 866 124 866 c 0
 130 866 136 864 141 859 c 2
 239 768 l 1
 334 859 l 2
 339 864 346 866 353 866 c 0
EndSplineSet
EndChar
StartChar: breve
Encoding: 728 728 205
Width: 441
VWidth: 1473
Flags: W
HStem: 619 48<154.028 289.688>
VStem: 63 52<706.854 778> 327 52<706.116 778>
Fore
221 667 m 0
 287 667 327 710 327 778 c 1
 379 778 l 1
 379 699 317 619 221 619 c 0
 132 619 63 693 63 778 c 1
 115 778 l 1
 115 710 156 667 221 667 c 0
EndSplineSet
EndChar
StartChar: dotaccent
Encoding: 729 729 206
Width: 232
VWidth: 1473
Flags: W
HStem: 628 106<72.9856 159.014>
VStem: 63 106<637.986 724.014>
Fore
116 628 m 256
 84.8056 628 63 652.472 63 681 c 256
 63 712.194 87.4723 734 116 734 c 256
 147.194 734 169 709.528 169 681 c 256
 169 649.806 144.528 628 116 628 c 256
EndSplineSet
EndChar
StartChar: ring
Encoding: 730 730 207
Width: 409
VWidth: 1473
Flags: W
HStem: 591 42<168.686 244.677> 722 44<168.383 244.755>
VStem: 121 40<640.738 714.664> 252 41<640.536 714.973>
Fore
121 678 m 256
 121 723 156 766 209 766 c 0
 253 766 293 727 293 678 c 256
 293 628 254 591 209 591 c 0
 156 591 121 632 121 678 c 256
161 678 m 256
 161 654 182 633 209 633 c 0
 230 633 252 654 252 678 c 256
 252 702 230 722 209 722 c 0
 182 722 161 701 161 678 c 256
EndSplineSet
EndChar
StartChar: tilde
Encoding: 732 732 209
Width: 332
VWidth: 1473
Flags: W
HStem: 599 99<57.1934 62 273 281.672 24 306 273 273> 599 51<173.573 265.582> 641 53<71.6788 162.989>
VStem: 24 38<592 631.984>
Fore
237 650 m 0x50
 266 650 271 689 273 698 c 1
 306 698 l 1
 306 615 258 599 233 599 c 0x90
 189 599 128 641 105 641 c 0
 79 641 64 612 62 592 c 1
 24 592 l 1
 26 649 55 694 102 694 c 0x30
 136 694 211 650 237 650 c 0x50
EndSplineSet
EndChar
StartChar: uni0E01
Encoding: 3585 3585 212
Width: 717
VWidth: 1473
Flags: W
HStem: 0 21G<185.5 210.5 608.5 625.5> 541 57<263.626 495.86>
VStem: 168 58<13.6719 190 190 253.81> 588 57<1.0376 454.175>
Fore
267 365 m 0
 290 365 295 341 295 335 c 0
 295 324 287 315 277 311 c 0
 234 292 228 245 228 228 c 0
 226 203 226 177 226 152 c 2
 226 127 l 1
 228 29 l 1
 231 15 219 0 202 0 c 0
 169 0 168 21 168 121 c 0
 168 139 l 0
 168 246 175 270 181 286 c 1
 136 309 l 2
 86 335 72 344 72 360 c 2
 72 367 l 1
 76 384 l 2
 88 430 153 598 377 598 c 0
 591 598 645 481 645 348 c 2
 645 29 l 2
 645 15 634 0 617 0 c 256
 600 0 588 15 588 29 c 2
 588 349 l 2
 588 444 557 541 377 541 c 0
 287 541 181 510 134 376 c 1
 143 371 154 364 170 356 c 2
 212 334 l 1
 224 348 247 365 267 365 c 0
EndSplineSet
EndChar
StartChar: uni0E02
Encoding: 3586 3586 213
Width: 620
VWidth: 1473
Flags: W
HStem: -4 51<259.007 446.342> 390 52<99.9076 191.956> 545 64<116.064 244.692>
VStem: 40 53<458.34 524.763> 159 58<87.8211 237.571> 215 52<465.003 522.316> 306 58<399.969 497.888> 491 57<91.4514 593.752>
Fore
267 501 m 0xf7
 267 433 192 390 144 390 c 0
 86 390 40 434 40 488 c 0
 40 542 104 609 213 609 c 0
 293 609 364 557 364 452 c 0
 364 313 217 280 217 169 c 0
 217 82 261 47 348 47 c 0
 403 47 440 58 460 80 c 0
 481 101 491 129 491 162 c 2
 491 566 l 2
 491 580 502 595 519 595 c 256
 533 595 548 581 548 566 c 2
 548 162 l 2
 548 100 529 57 492 32 c 0
 455 8 407 -4 348 -4 c 256
 256 -4 159 31 159 169 c 0xfb
 159 264 220 289 284 377 c 0
 298 398 306 423 306 452 c 0
 306 465 302 520 259 539 c 1
 265 526 267 514 267 501 c 0xf7
215 502 m 0xf7
 215 516 206 545 167 545 c 0
 120 545 93 506 93 484 c 0
 93 474 102 442 134 442 c 0
 186 442 215 482 215 502 c 0xf7
EndSplineSet
EndChar
StartChar: uni0E03
Encoding: 3587 3587 214
Width: 680
VWidth: 1473
Flags: W
HStem: -4 51<320.566 505.492> 337 52<116.282 192.136> 460 48<113.12 193.456> 547 50<118.035 225.373 312.064 375.899>
VStem: 43 56<395.645 481.698> 196 50<395.316 455.396> 220 57<90.245 223.554> 395 54<407.316 530.902> 551 57<92.1567 593.962>
Fore
395 483 m 0xfb80
 395 535 358 540 347 540 c 0
 325 540 312 522 308 510 c 1
 309 508 309 506 309 506 c 1
 309 503 312 503 312 494 c 0
 312 476 297 465 282 465 c 0
 271 465 259 472 255 488 c 0
 252 499 241 547 178 547 c 0
 135 547 106 516 103 498 c 1
 120 505 135 508 150 508 c 0
 193 508 246 481 246 424 c 0xfd80
 246 389 206 337 147 337 c 0
 64 337 43 416 43 456 c 0
 43 516 82 597 183 597 c 0
 201 597 240 594 274 563 c 1
 285 575 312 598 345 598 c 0
 380 598 449 578 449 484 c 0
 449 313 277 298 277 165 c 0
 277 106 303 47 405 47 c 0
 516 47 551 94 551 165 c 2
 551 566 l 2
 551 580 562 595 579 595 c 256
 591 595 608 587 608 561 c 2
 608 165 l 2
 608 64 554 -4 408 -4 c 256
 320 -4 220 30 220 165 c 0
 220 202 222 256 291 320 c 2
 348 374 l 2
 380 405 395 450 395 483 c 0xfb80
147 389 m 0
 173 389 196 403 196 424 c 0
 196 448 179 460 147 460 c 0
 106 460 99 438 99 424 c 0
 99 392 145 389 147 389 c 0
EndSplineSet
EndChar
StartChar: uni0E04
Encoding: 3588 3588 215
Width: 692
VWidth: 1473
Flags: W
HStem: -1 21G<93.5 109.5 582.5 599> 215 52<318.451 407.599> 358 52<302.078 409.745> 539 58<232.121 473.632>
VStem: 72 58<0.101326 212.16 270 443.802> 245 51<277.624 313.305> 417 51<277.811 338.805> 563 57<-0.0242004 452.925>
Fore
357 410 m 0
 418 410 468 367 468 312 c 0
 468 268.214 433.486 215 357 215 c 0
 312.2 215 245.014 240.645 245 314 c 1
 151 246 135 182 130 143 c 2
 130 28 l 2
 130 11 117 -1 102 -1 c 256
 85 -1 72 12 72 28 c 2
 72 346 l 2
 72 547 229 597 357 597 c 0
 567 597 620 482 620 346 c 2
 620 28 l 2
 620 11 607 -1 591 -1 c 256
 574 -1 563 13 563 28 c 2
 563 348 l 2
 563 440.52 534.069 539 357 539 c 0
 189.347 539 130 461.8 130 346 c 2
 130 270 l 1
 180.253 354.935 266.2 410 357 410 c 0
357 267 m 0
 388 267 417 285 417 312 c 0
 417 327 410 358 357 358 c 0
 312 358 296 340 296 312 c 0
 296 275 337 267 357 267 c 0
EndSplineSet
EndChar
StartChar: uni0E05
Encoding: 3589 3589 216
Width: 693
VWidth: 1473
Flags: W
HStem: -4 21G<91.5 108.5 583.5 600.5> 212 52<316.308 405.92> 357 50<317.651 403.185> 461 53<328.112 421.044> 585 20G<219.5 279 475 504.5>
VStem: 72 58<-2.82529 210.203 278 495.633> 242 51<275.961 310.761> 414 50<274.029 344.294> 564 58<-2.82529 531.805>
Fore
501 605 m 0
 508 605 622 586 622 499 c 2
 622 25 l 2
 622 9 609 -4 592 -4 c 256
 575 -4 564 10 564 25 c 2
 564 499 l 2
 564 532 526 541 508 545 c 1
 483 512 l 2
 444 462 398 461 377 461 c 0
 324 461 286 494 245 550 c 1
 200 544 130 523 130 415 c 2
 130 278 l 1
 171.164 344.263 252.143 407 354 407 c 0
 442 407 464 345 464 309 c 0
 464 231 388 212 354 212 c 0
 309.2 212 242.014 241.244 242 311 c 1
 141 239 130 163 130 113 c 2
 130 25 l 2
 130 9 117 -4 100 -4 c 256
 83 -4 72 10 72 25 c 2
 72 415 l 2
 72 570 187 608 252 608 c 0
 306 608 304 514 379 514 c 0
 456 514 449 605 501 605 c 0
354 264 m 0
 386 264 414 282 414 309 c 0
 414 341 376 357 354 357 c 0
 336 357 293 347 293 309 c 256
 293 273 335 264 354 264 c 0
EndSplineSet
EndChar
StartChar: uni0E06
Encoding: 3590 3590 217
Width: 771
VWidth: 1473
Flags: W
HStem: -7 57<188.47 273.54 555.421 625.769> 205 56<189.607 266.129> 321 52<129.941 208.111> 443 54<141.083 198.432> 542 54<137.615 251.708 329.065 399.355>
VStem: 55 60<378.618 478.425> 114 56<84.087 185.813> 212 50<378.807 438.173> 286 57<67.7881 134.326 247 277 277 300.235> 411 51<452.887 529.737> 642 58<64.7399 593.752>
Fore
326 504 m 0xfbe0
 326 499 328 499 328 492 c 0
 328 476 312 465 297 465 c 0
 285 465 275 471 271 486 c 0
 257 529 227 542 197 542 c 0
 163 542 115 519 118 482 c 1
 129 492 144 497 164 497 c 0
 205 497 262 466 262 408 c 0
 262 358 220 321 164 321 c 0
 92 321 55 384 55 447 c 0xfde0
 55 533 117 596 199 596 c 0
 238 596 268 580 287 564 c 1
 295 575 319 600 349 600 c 0
 387 600 462 564 462 487 c 0
 462 439 432 393 404 376 c 1
 348 327 343 297 343 277 c 2
 343 215 l 1
 372 192 497 60 555 52 c 0
 564 51 572 50 579 50 c 0
 621 50 642 65 642 168 c 2
 642 566 l 2
 642 580 656 595 672 595 c 256
 689 595 700 580 700 566 c 2
 700 168 l 2
 700 35 648 -7 569 -7 c 2
 567 -7 l 2
 543 -7 511 -6 425 65 c 0
 405 82 388 97 373 112 c 2
 348 136 l 1
 348 80 324 -3 226 -3 c 0
 174 -3 114 36 114 133 c 0
 114 203.78 160 261 229 261 c 0
 251 261 269 255 284 247 c 1
 286 247 l 1
 286 277 l 2
 286 327 304 354 361 411 c 2
 386 436 l 2
 408 458 411 473 411 485 c 0
 411 518 386 540 362 540 c 0
 346 540 332 531 324 510 c 1
 325 508 326 506 326 504 c 0xfbe0
164 373 m 0
 189 373 212 386 212 408 c 0
 212 436 186 443 164 443 c 0
 159.04 443 115 440.364 115 408 c 0
 115 380 144 373 164 373 c 0
232 52 m 0
 273 52 292 93 292 125 c 0
 292 194 251 205 229 205 c 0
 191 205 170 159 170 122 c 0xfbe0
 170 107 179 52 232 52 c 0
EndSplineSet
EndChar
StartChar: uni0E07
Encoding: 3591 3591 218
Width: 552
VWidth: 1473
Flags: W
HStem: -8 58<270.632 397.976> 405 52<326.622 407.273> 548 52<327.905 401.959>
VStem: 49 57<232.36 356.09> 253 52<466.303 537.388> 423 57<128.331 417 467.25 537.531>
Fore
365 600 m 0
 458 600 480 541 480 502 c 2
 480 168 l 2
 479 118 471 81 456 57 c 0
 441 33 412 -8 346 -8 c 0
 233.87 -8 49 130.486 49 329 c 0
 49 344 61 357 78 357 c 256
 95 357 106 342 106 327 c 0
 106 174.387 255.777 50 346 50 c 0
 387 50 408 76 415 105 c 0
 420 127 423 148 423 168 c 2
 423 417 l 1
 403 407 377 405 365 405 c 0
 316 405 253 436 253 502 c 0
 253 559 303 600 365 600 c 0
365 457 m 0
 397 457 426 475 426 502 c 0
 426 539 384 548 365 548 c 256
 347 548 305 540 305 502 c 256
 305 464 347 457 365 457 c 0
EndSplineSet
EndChar
StartChar: uni0E08
Encoding: 3592 3592 219
Width: 655
VWidth: 1473
Flags: W
HStem: -5 57<443.604 515.566> 194 52<228.592 305.443> 339 51<228.709 300.787> 539 58<219.377 451.781>
VStem: 153 52<256.458 327.184> 326 60<269.087 326.762> 526 57<61.8335 461.802>
Fore
42 372 m 0
 42 385 76 597 334 597 c 0
 458 597 583 551 583 365 c 2
 583 115 l 2
 583 19 514 -5 474 -5 c 0
 426 -5 371 29 359 99 c 0
 343 190 343 205 337 218 c 1
 316 202 292 194 265 194 c 0
 215 194 153 229 153 292 c 0
 153 348 203 390 265 390 c 0
 362 390 380 305 386 274 c 1
 385 272 386 265 389 253 c 0
 414 139 406 91 440 65 c 0
 451 57 462 52 473 52 c 0
 494 52 526 61 526 115 c 2
 526 358 l 2
 526 487 472 539 334 539 c 0
 248 539 189 512 151 471 c 0
 96 411 109 364 86 348 c 0
 69 337 42 351 42 372 c 0
265 246 m 0
 297 246 326 265 326 292 c 0
 326 330 282 339 265 339 c 256
 245 339 205 327 205 292 c 256
 205 255 246 246 265 246 c 0
EndSplineSet
EndChar
StartChar: uni0E09
Encoding: 3593 3593 220
Width: 711
VWidth: 1473
Flags: W
HStem: -4 57<278.09 386.09 554.524 628.845> 187 50<114.636 190.318> 323 51<114.378 186.149> 544 57<206.689 434.416>
VStem: 43 51<246.269 314.675> 202 57<69.3376 197 246.123 314.847> 564 58<231 399.53> 642 48<58.7145 162.997>
Fore
690 117 m 0
 690 11 627 -6 592 -6 c 0
 509 -6 491 68 494 88 c 1
 423 13 384 -4 337 -4 c 0
 268 -4 202 16 202 133 c 2
 202 197 l 1
 186.731 189.874 169.514 187 149 187 c 0
 110 187 43 212 43 280 c 0
 43 332 91 374 150 374 c 0
 199 374 259 344 259 284 c 2
 259 133 l 2
 259 71 281 53 337 53 c 0
 373 53 401 74 454 130 c 0
 512 190 521 221 564 231 c 1
 564 345 l 2
 564 447 542 503 450 530 c 0
 417 539 380 544 339 544 c 0
 208 544 123 496 105 430 c 0
 98 400 47 405 47 435 c 0
 47 454 86 601 339 601 c 0
 460 601 591 561 613 438 c 0
 619 404 622 373 622 345 c 2
 622 228 l 1
 671 222 690 175 690 117 c 0
592 47 m 256
 621 47 642 76 642 110 c 256
 642 143 622 174 592 174 c 0
 563 174 541 145 541 110 c 256
 541 76 564 47 592 47 c 256
150 237 m 0
 188 237 206 263 206 280 c 0
 206 314 170 323 150 323 c 256
 131 323 94 314 94 280 c 0
 94 246 134 237 150 237 c 0
EndSplineSet
EndChar
StartChar: uni0E0A
Encoding: 3594 3594 221
Width: 618
VWidth: 1473
Flags: W
HStem: -4 50<264.352 446.686> 390 52<99.8249 181.381> 545 59<119.52 242.552 246 279.479>
VStem: 42 51<458.461 523.983> 159 58<92.1807 218.846> 215 52<464.758 528.703> 491 57<88.6945 320 320 399.066>
Fore
554 650 m 256xf6
 577 650 582 628 583 622 c 1
 583 600 530 540 504 514 c 2
 460 471 l 1
 512 438 548 411 548 320 c 2
 548 168 l 2
 548 106 530 62 496 36 c 0
 460 9 414 -4 355 -4 c 256
 265 -4 159 31 159 169 c 0xfa
 159 264 220 289 284 377 c 0
 298 398 306 423 306 452 c 0
 306 522 263 550 246 550 c 1
 260 543 267 530 267 514 c 0
 267 476 256 428 196 404 c 0
 178 394 160 390 144 390 c 0
 95 390 42 424 42 483 c 0
 42 569 128 604 208 604 c 0
 290 604 324 575 346 530 c 0
 355 511 360 491 362 470 c 1
 424 500 514 593 526 625 c 1
 527 631 532 650 554 650 c 256xf6
215 502 m 0xf6
 215 516 206 545 167 545 c 0
 120 545 93 506 93 484 c 0
 93 474 102 442 134 442 c 0
 186 442 215 482 215 502 c 0xf6
355 46 m 0
 430 46 491 70 491 168 c 2
 491 320 l 2
 491 385 470 413 417 439 c 1
 393 425 369 410 358 407 c 1
 352 382 341 361 326 342 c 2
 278 288 l 2
 223 229 217 198 217 169 c 0xfa
 217 82 269 46 355 46 c 0
EndSplineSet
EndChar
StartChar: uni0E0B
Encoding: 3595 3595 222
Width: 682
VWidth: 1473
Flags: W
HStem: -4 50<326.96 508.774> 323 51<117.915 194.981> 445 44<118.886 196.121> 548 49<127.481 227.102 315.328 388.584>
VStem: 42 60<380.285 471.525 471 518.157> 199 50<379.561 440.571> 222 58<90.2475 221.075> 398 56<491 532.932> 554 57<92.5118 342 342 404.581>
Fore
616 653 m 256xfd80
 633 653 645 640 645 625 c 0
 645 603 592 543 566 517 c 2
 522 474 l 1
 584 440 611 395 611 342 c 2
 611 169 l 2
 611 31 514 -4 418 -4 c 256
 333 -4 222 30 222 165 c 0xfb80
 222 210 232 246 252 272 c 0
 316 359 398 392 398 483 c 0
 398 522 375 541 352 541 c 0
 335 541 318 530 311 510 c 1
 312 508 312 506 312 506 c 1
 312 503 315 503 315 494 c 0
 315 476 300 465 285 465 c 0
 274 465 262 472 258 488 c 0
 244 536 209 548 183 548 c 0
 140 548 102 504 102 471 c 1
 130 489 151 489 157 489 c 0
 205 489 249 457 249 410 c 0
 249 370 208 323 150 323 c 0
 78 323 42 381 42 444 c 0
 42 524 93 597 186 597 c 0
 204 597 243 594 277 563 c 1
 288 575 315 598 348 598 c 0
 411 598 451 551 454 491 c 1
 466 491 580 595 588 628 c 0
 595 653 610 653 616 653 c 256xfd80
415 46 m 0
 521 46 554 95 554 169 c 2
 554 342 l 2
 554 401 509 443 454 446 c 1
 429 347 365 326 302 243 c 0
 287 224 280 198 280 165 c 0
 280 70 348 46 415 46 c 0
150 374 m 0
 177 374 199 388 199 410 c 0xfd80
 199 433 182 445 150 445 c 0
 108 445 102 422 102 410 c 0
 102 377 145 374 150 374 c 0
EndSplineSet
EndChar
StartChar: uni0E0C
Encoding: 3596 3596 223
Width: 1032
VWidth: 1473
Flags: W
HStem: -4 51<227.831 317.884 517.066 579.55 776.724 871.365> 133 50<235.699 304.713> 177 57<518.819 581.937> 539 58<260.985 495.542>
VStem: 169 53<53.7472 102 102.423 125.695 174 216.954 216.954 245.125> 324 50<54.3732 124.627> 448 58<58.1842 166.654> 588 57<224 451.453> 903 58<118.191 595.878>
Fore
267 364 m 0xbf80
 290 364 295 339 295 333 c 0
 295 322 287 313 277 309 c 0
 235 293 228 244 228 230 c 0
 227 220 227 212 227 204 c 2
 227 174 l 1
 240 180 255 183 273 183 c 0xdf80
 328 183 374 146 374 90 c 0
 374 30 326 -4 273 -4 c 256
 215 -4 171 34 171 90 c 2
 170 102 l 2
 169 111 169 122 169 135 c 2
 169 180 l 2
 169 234 174 265 181 284 c 1
 100 327 l 2
 72 342 72 353 72 359 c 0
 72 365 l 1
 76 383 l 2
 88 428 153 597 377 597 c 0
 575 597 645 497 645 352 c 2
 645 178 l 1
 647 178 763 53 821 53 c 0
 851 53 873 59 892 98 c 0
 900 111 903 131 903 158 c 2
 903 569 l 2
 903 584 917 597 933 597 c 0
 952 597 961 588 961 569 c 2
 961 158 l 2
 961 88 933 -4 821 -4 c 0
 785 -4 732 8 642 102 c 1
 638 51 616 -4 556 -4 c 0
 461 -4 448 78.4666 448 113 c 0
 448 158 475 234 551 234 c 0
 577 234 582 224 588 224 c 1
 588 348 l 2
 588 444.874 554.867 539 377 539 c 0
 285 539 178 507 134 374 c 1
 138 371 144 368 153 364 c 2
 202 338 l 2
 208 335 211 333 212 333 c 1
 223 346 248 364 267 364 c 0xbf80
506 109 m 0
 506 77 522 51 551 51 c 0
 580 51 591 85 591 112 c 0
 591 165 565 177 548 177 c 0xbf80
 528 177 506 147 506 109 c 0
273 47 m 0
 302 47 324 64 324 90 c 0
 324 124 289 133 273 133 c 256xdf80
 245 133 222 116 222 90 c 0
 222 62 245 47 273 47 c 0
EndSplineSet
EndChar
StartChar: uni0E0D
Encoding: 3597 3597 224
Width: 1076
VWidth: 1473
Flags: W
HStem: -260 55<762.674 878.25> -97 51<658.325 736.893> -6 53<240.794 321.381 687.087 900.782> 131 51<250.163 307.809> 539 58<262.735 498.204>
VStem: 171 57<53.5094 103.254 78.3815 162.447 172 199.638 199.638 200.926 200.926 267.044> 326 50<55.1743 122.755> 588 51<-166.872 -105.129> 589 58<90.7859 453.239> 744 50<-168.001 -104.857> 946 59<-148.162 -62.6222 95.25 205 205 595.904>
Fore
379 597 m 0xfee0
 593 597 647 481 647 346 c 2
 647 202 l 2
 635 86 681 53 796 53 c 0
 942 53 946 115 946 205 c 2
 946 569 l 2
 946 584 958 597 975 597 c 256
 991 597 1005 584 1005 569 c 2
 1005 206 l 2
 1005 101 991 -4 796 -4 c 0
 589 -4 589 104 589 187 c 2
 589 348 l 2
 589 452 550 539 379 539 c 0
 216 539 154 439 136 374 c 1
 142 370 213 333 214 333 c 1
 220 339 246 364 269 364 c 0
 286 364 297 349 297 335 c 0
 297 324 291 314 278 309 c 0
 258 301 230 276 230 227 c 0
 228 200 228 205 228 172 c 1
 241 179 258 182 280 182 c 0
 339 182 376 139 376 88 c 0
 376 31 330 -6 276 -6 c 0
 230 -6 172 29 172 88 c 0
 172 97 171 102 171 135 c 0
 171 183 172 211 174 230 c 0
 174 252 175 264 183 284 c 1
 101 327 l 2
 82 337 74 344 74 355 c 0
 74 358 75 361 75 365 c 1
 79 383 l 2
 90 432 155 597 379 597 c 0xfee0
276 47 m 256
 302 47 326 65 326 88 c 0
 326 122 292 131 276 131 c 0
 257 131 224 122 224 88 c 256
 224 55 257 47 276 47 c 256
1005 -89 m 0
 1005 -117 980 -260 786 -260 c 0
 706 -260 590 -229 588 -138 c 0xff60
 588 -80 645 -47 689 -46 c 0
 746 -46 794 -83 794 -134 c 0
 794 -182 782 -180 759 -205 c 1
 771 -205 l 0
 871 -205 940 -170 947 -87 c 1
 951 -69 965 -61 977 -61 c 0
 992 -61 1005 -71 1005 -89 c 0
639 -137 m 0
 639 -169 679 -175 692 -175 c 0
 709 -175 744 -167 744 -136 c 0
 741 -113 720 -97 691 -97 c 0
 677 -97 639 -105 639 -137 c 0
EndSplineSet
Substitution2: "Single Substitution lookup 22 subtable" uni0E0D.alt1
Substitution2: "Single Substitution lookup 22 subtable" uni0E0D.alt1
EndChar
StartChar: uni0E0E
Encoding: 3598 3598 225
Width: 730
VWidth: 1473
Flags: W
HStem: -318 50<231.119 335.091> -190 52<230.145 307.896> -4 51<109.984 173.962> 133 50<110.469 167.705> 539 58<278.036 505.209>
VStem: 41 52<53.7742 125.99> 155 51<-257.272 -201.298> 181 58<177 201.508 201.508 222.256> 190 50<52.4957 79.4539 65.7637 111.997 96.5231 127.16> 349 59<-149.711 -126.023 -126.023 -108> 601 58<-222.442 448.5>
Fore
280 364 m 0xfe60
 302 364 307 343 307 334 c 0
 307 322 301 314 290 309 c 0
 269 301 242 275 242 227 c 0
 240 196 239 171 239 154 c 0xfd60
 239 136 239 121 240 109 c 0
 240 102 241 92 241 84 c 0
 241 80 241 77 240 75 c 1xfce0
 240 43 215 -4 143 -4 c 0
 91 -4 41 29 41 90 c 0
 41 146 87 183 142 183 c 0
 153 183 166 182 181 177 c 1xfd60
 181 180 186 265 194 284 c 1
 101 331 85 340 85 359 c 0
 85 365 l 1
 90 383 l 2
 101 431 166 597 390 597 c 0
 574 597 659 496 659 346 c 2
 659 -187 l 2
 654 -236 596 -296 583 -303 c 2
 578 -309 567 -319 554 -319 c 0
 540 -319 535 -318 486 -287 c 2
 399 -228 l 1
 395 -269 380 -318 274 -318 c 0
 225 -318 155 -290 155 -228 c 0
 155 -180 202 -138 274 -138 c 0
 304 -138 327 -143 349 -150 c 1
 349 -113 l 2
 347 -94 363 -82 379 -82 c 0
 391 -82 404 -90 407 -108 c 1
 407 -121 408 -132 408 -144 c 0
 408 -154 407 -165 407 -174 c 1
 468 -207 l 1
 519 -239 l 1
 529 -248 542 -255 548 -258 c 1
 561 -246 596 -208 601 -183 c 1
 601 348 l 2
 601 463 544 539 390 539 c 0
 249 539 171 460 147 374 c 1
 152 371 159 368 166 364 c 2
 192 349 l 1
 224 333 l 1
 245 354 265 364 280 364 c 0xfe60
143 47 m 256
 164 47 190 56 190 90 c 256xfce0
 190 124 162 133 143 133 c 256
 125 133 93 124 93 90 c 256
 93 56 123 47 143 47 c 256
274 -268 m 0
 313 -268 343 -250 343 -228 c 0
 343 -198 293 -190 274 -190 c 0
 258 -190 206 -198 206 -228 c 256xfe60
 206 -260 256 -268 274 -268 c 0
EndSplineSet
Substitution2: "Single Substitution lookup 22 subtable" uni0E0E.alt1
Substitution2: "Single Substitution lookup 22 subtable" uni0E0E.alt1
EndChar
StartChar: uni0E0F
Encoding: 3599 3599 226
Width: 730
VWidth: 1473
Flags: W
HStem: -315 50<160.21 252.293> -187 51<159.944 234.763> -4 51<109.984 174.085> 133 50<110.469 167.705> 539 58<278.036 504.973>
VStem: 41 52<53.7742 125.99> 84 52<-254.449 -197.096> 190 52<50.8254 114.986 102.5 116.332 116.332 127.471 177.236 201.508 201.508 214.477 214.477 262.913> 273 60<-152 -115.839 -115.839 -105.214> 601 58<-186 448.5>
Fore
280 364 m 0xfbc0
 302 364 307 343 307 334 c 0
 307 322 301 314 290 309 c 0
 270 301 242 276 242 227 c 0
 240 196 239 171 239 154 c 0
 239 136 239 121 240 109 c 0
 240 104 242 101 242 96 c 0
 242 53 215 -4 143 -4 c 0
 91 -4 41 29 41 90 c 0xfdc0
 41 146 87 183 142 183 c 0
 153 183 166 182 181 177 c 1
 182 182 183 189 183 199 c 0
 183 209 183 219 184 230 c 0
 184 252 188 269 194 284 c 1
 101 331 85 340 85 359 c 0
 85 365 l 1
 90 383 l 2
 101 429 166 597 390 597 c 0
 573 597 659 496 659 346 c 2
 659 -197 l 2
 659 -220 592 -312 554 -312 c 0
 538 -312 518 -298 468 -245 c 1
 425 -290 l 2
 409 -306 396 -316 389 -316 c 0
 387 -316 385 -315 379 -315 c 0
 364 -315 342 -270 318 -252 c 1
 293 -309 235 -315 205 -315 c 0
 156 -315 84 -288 84 -225 c 0
 84 -172 138 -136 205 -136 c 0
 230 -136 253 -141 274 -152 c 1
 274 -128 l 2
 274 -116 273 -109 273 -104 c 0
 273 -90 287 -80 301 -80 c 0
 331 -80 333 -109 333 -154 c 0
 333 -190 l 1
 348 -206 l 2
 364 -223 368 -235 385 -252 c 1
 392 -245 402 -236 412 -222 c 2
 445 -183 l 2
 453 -175 460 -172 467 -172 c 0
 482 -172 486 -180 496 -192 c 2
 516 -214 l 2
 533 -234 546 -244 552 -252 c 1
 558 -247 582 -230 601 -186 c 1
 601 360 l 0
 601 423 577 539 390 539 c 0
 249 539 171 460 147 374 c 1
 152 371 159 368 166 364 c 2
 192 349 l 1
 224 333 l 1
 245 354 265 364 280 364 c 0xfbc0
143 47 m 256
 164 47 190 56 190 90 c 256
 190 124 162 133 143 133 c 256
 125 133 93 124 93 90 c 256
 93 56 123 47 143 47 c 256
205 -265 m 0
 251 -265 273 -241 273 -225 c 0
 273 -195 221 -187 205 -187 c 0
 186 -187 136 -195 136 -225 c 256xfbc0
 136 -257 186 -265 205 -265 c 0
EndSplineSet
Substitution2: "Single Substitution lookup 22 subtable" uni0E0F.alt1
Substitution2: "Single Substitution lookup 22 subtable" uni0E0F.alt1
EndChar
StartChar: uni0E10
Encoding: 3600 3600 227
Width: 646
VWidth: 1473
Flags: W
HStem: -317 52<147.295 238.402> -205 52<451.563 506.177> -189 52<147.182 222.176> -88 51<453.921 512.105> -5 57<403.854 479.444> 137 52<189.926 268.39> 281 52<189.524 281.18> 363 58<113.073 353.532> 382 57<159.484 466.697> 560 57<208.762 467.578>
VStem: 54 57<423.762 487.507> 71 51<-254.101 -200.187> 116 52<198.032 271.602> 261 59<-153 -109 -109 -105.297> 387 52<-148.814 -93.275> 517 58<73.4688 338.553> 527 56<-258.314 -197 -203.53 -111.523 -130.021 -93.0244>
Fore
355 439 m 0x9eef
 535 439 575 344 575 280 c 2
 575 125 l 2
 575 51 521 -5 436 -5 c 0
 380 -5 338 29 327 78 c 0
 315 121 315 130 305 164 c 1
 282 146 257 137 228 137 c 0
 169 137 116 177 116 236 c 0
 116 289 167 333 228 333 c 0
 329 333 348 242 354 208 c 0
 383 92 379 72 409 59 c 0
 419 54 429 52 439 52 c 0
 454 52 517 59 517 125 c 2
 517 283 l 2
 517 362 432 382 358 382 c 0x9eef
 305 382 209 363 160 363 c 0
 64 363 54 425 54 449 c 0
 54 521 153 617 326 617 c 0
 555 617 605 508 605 481 c 0
 605 463 590 453 575 453 c 0
 564 453 553 458 548 471 c 0
 528 537 421 560 326 560 c 0
 170 560 111 473 111 448 c 0
 111 434 123 421 154 421 c 0x9f6f
 210 421 282 439 355 439 c 0x9eef
413 -210 m 0
 435 -210 467 -253 495 -268 c 1
 505 -258 518 -233 523 -197 c 1
 510 -202 498 -205 485 -205 c 0xde5680
 450 -205 387 -185 387 -122 c 0
 387 -90 414 -37 482 -37 c 0
 544 -37 576 -83 582 -116 c 1
 582 -123 583 -147 583 -151 c 0
 583 -255 539 -316 506 -316 c 0
 488 -316 442 -294 417 -271 c 1
 394 -308 380 -321 371 -321 c 0
 353 -321 332 -280 305 -253 c 1
 279 -310 220 -317 192 -317 c 0
 143 -317 71 -290 71 -227 c 0
 71 -173 126 -137 192 -137 c 0xbe5680
 216 -137 239 -142 261 -153 c 1xde5680
 261 -112 l 2
 261 -110 260 -108 260 -106 c 0
 260 -91 275 -80 290 -80 c 0
 316 -80 320 -106 320 -154 c 2
 320 -192 l 1
 327 -199 336 -209 348 -222 c 2
 371 -252 l 1
 388 -232 l 2
 398 -220 403 -210 413 -210 c 0
228 189 m 0
 260 189 289 209 289 236 c 0
 289 268 262 281 228 281 c 0
 211 281 168 275 168 236 c 256x9e4e
 168 196 208 189 228 189 c 0
483 -153 m 0xde4680
 497 -153 527 -147 527 -121 c 256
 527 -95 495 -88 483 -88 c 0
 471 -88 439 -95 439 -122 c 256
 439 -147 468 -153 483 -153 c 0xde4680
192 -265 m 0
 235 -265 259 -242 259 -227 c 0
 259 -195 209 -189 192 -189 c 256
 177 -189 122 -195 122 -227 c 0xbe56
 122 -257 174 -265 192 -265 c 0
EndSplineSet
Substitution2: "Single Substitution lookup 22 subtable" uni0E10.alt1
Substitution2: "Single Substitution lookup 22 subtable" uni0E10.alt1
EndChar
StartChar: uni0E11
Encoding: 3601 3601 228
Width: 835
VWidth: 1473
Flags: W
HStem: -4 57<296.095 373.926> 333 52<117.51 192.643> 455 51<129.085 183.401> 542 55<133.965 247.989 324.144 378.442 602.161 685.265>
VStem: 43 59<390.324 489.714 495 529.62> 197 52<391.3 450.586> 231 58<57.2334 222 222 309.715> 267 56<463.918 522.708> 384 54<463.002 537.329> 706 57<-6.05054 462.023 462.023 529.516>
Fore
344 542 m 0xfac0
 327 542 315 533 315 527 c 0
 315 520 323 517 323 492 c 0
 323 477 311 464 296 463 c 0
 279 463 267 473 267 489 c 0
 262 528 210 542 177 542 c 0
 154 542 110 535 109 495 c 1
 124 502 139 506 154 506 c 0
 205 506 249 470 249 424 c 0xfdc0
 249 382 218 333 150 333 c 0
 105 333 43 361 43 454 c 0
 43 572 152 597 193 597 c 0
 229 597 260 584 281 569 c 1
 311 596 340 595 347 595 c 0
 402 595 438 549 438 492 c 0
 438 464 431 397 361 357 c 0
 296 313 289 278 289 222 c 2
 289 121 l 2
 289 84 297 53 327 53 c 0
 353 53 383 55 399 147 c 258
 412 221 l 2
 424 285 475 453 530 530 c 0
 563 575 599 597 644 597 c 0
 686 597 763 577 763 465 c 2
 763 21 l 2
 763 4 748 -7 734 -7 c 256
 717 -7 706 6 706 21 c 2
 706 454 l 2
 706 460 707 465 707 470 c 0
 707 541 670 539 644 539 c 0
 574 539 507 379 468 208 c 2
 455 137 l 2
 433 9 371 -4 327 -4 c 0
 289 -4 231 30 231 121 c 2
 231 222 l 2
 231 282 244 346 331 399 c 0
 380 429 384 480 384 495 c 0
 384 531 362 542 344 542 c 0xfac0
150 385 m 0
 174 385 197 399 197 420 c 0
 197 448 169 455 150 455 c 0
 134 455 102 448 102 420 c 0
 102 393 134 385 150 385 c 0
EndSplineSet
EndChar
StartChar: uni0E12
Encoding: 3602 3602 229
Width: 1054
VWidth: 1473
Flags: W
HStem: -9 59<181.085 311.845 551.177 599.229 792.17 892.798> 172 59<535.377 600.132> 217 51<292.636 370.564> 361 51<292.759 370.775> 454 53<337.399 439.345> 581 20G<225.5 274 497 538.5 947 963>
VStem: 72 58<106.662 491.342> 218 52<278.489 351.094> 395 59<143.08 242 212.142 331.286> 470 57<59.219 152.35> 611 58<220 515.999> 925 58<74.8877 592.83>
Fore
245 44 m 0xdff0
 341 44 395 158 395 229 c 2
 395 242 l 1
 382 225 360 217 329 217 c 0xbff0
 295 217 218 237 218 315 c 0
 218 369 268 412 330 412 c 0
 352 412 433 406 449 315 c 0
 452 295 454 275 454 256 c 0
 454 177 424 100 385 53 c 0
 351 16 300 -13 244 -13 c 0
 175 -13 72 28 72 228 c 2
 72 408 l 2
 70 570 199 601 252 601 c 0
 296 601 322 507 392 507 c 0
 454 507 474 598 520 598 c 0
 557 598 669 562 669 499 c 2
 669 174 l 1
 685 158 775 50 843 50 c 0
 892 50 925 77 925 155 c 2
 925 566 l 2
 925 581 939 594 955 594 c 256
 971 594 983 580 983 566 c 2
 983 155 l 2
 983 59 940 -7 843 -7 c 0
 796 -7 752 13 669 91 c 1
 659 3 594 -9 573 -9 c 0
 533 -9 470 20 470 112 c 0
 470 197 529 231 572 231 c 0
 587 231 600 227 611 220 c 1
 611 492 l 2
 609 514 569 529 526 539 c 1
 474 464 419 454 392 454 c 0
 361 454 301 467 245 544 c 1
 173 534 130 495 130 417 c 2
 130 228 l 2
 130 68 199 44 245 44 c 0xdff0
574 50 m 0
 590 50 613 71 613 109 c 0
 613 150 599 172 570 172 c 0xdff0
 534 172 527 138 527 106 c 0
 527 53 568 50 574 50 c 0
330 268 m 0xbff0
 362 268 390 287 390 315 c 0
 390 329 380 361 330 361 c 0
 317 361 270 356 270 315 c 0
 270 277 308 268 330 268 c 0xbff0
EndSplineSet
EndChar
StartChar: uni0E13
Encoding: 3603 3603 230
Width: 1106
VWidth: 1473
Flags: W
HStem: -6 53<240.794 321.381 665.707 786.656 942.337 1020.51> 131 51<250.163 307.809> 539 58<262.735 493.92>
VStem: 171 57<53.5094 103.254 78.3815 162.447 172 199.638 199.638 200.926 200.926 267.044> 326 50<55.1743 122.755> 589 58<72.2794 450.285> 955 57<233 598.959> 1031 50<58.5095 163.136>
Fore
379 597 m 0
 502.23 597 647 547.391 647 345 c 2
 647 146 l 2
 647 56 693 53 729 53 c 0
 776 53 828 108 848 132 c 2
 878 168 l 2
 907 199 910 217 955 233 c 1
 955 570 l 2
 955 587 968 600 984 600 c 256
 1001 600 1012 585 1012 570 c 2
 1012 228 l 1
 1054 209 1081 164 1081 114 c 0
 1081 47 1038 -6 974 -6 c 0
 940 -6 889 25 882 87 c 1
 808 3 760 -4 729 -4 c 0
 645 -4 589 33 589 158 c 2
 589 365 l 2
 589 431 557 539 379 539 c 0
 216 539 154 439 136 374 c 1
 142 370 213 333 214 333 c 1
 220 339 246 364 269 364 c 0
 286 364 297 349 297 335 c 0
 297 324 291 314 278 309 c 0
 258 301 230 276 230 227 c 0
 228 200 228 205 228 172 c 1
 241 179 258 182 280 182 c 0
 339 182 376 139 376 88 c 0
 376 31 330 -6 276 -6 c 0
 230 -6 172 29 172 88 c 0
 172 97 171 102 171 135 c 0
 171 183 172 211 174 230 c 0
 174 252 175 264 183 284 c 1
 101 327 l 2
 82 337 74 344 74 355 c 0
 74 358 75 361 75 365 c 1
 79 383 l 2
 89.9971 432.488 155 597 379 597 c 0
276 47 m 256
 302 47 326 65 326 88 c 0
 326 122 292 131 276 131 c 0
 257 131 224 122 224 88 c 256
 224 55 257 47 276 47 c 256
981 47 m 256
 1010 47 1031 76 1031 110 c 256
 1031 143 1011 174 981 174 c 0
 952 174 931 144 931 110 c 256
 931 77 953 47 981 47 c 256
EndSplineSet
EndChar
StartChar: uni0E14
Encoding: 3604 3604 231
Width: 743
VWidth: 1473
Flags: W
HStem: -4 60<212.665 335.369> 217 54<323.393 400.408> 367 53<311.073 413.948> 558 58<270.045 487.954>
VStem: 65 60<164.532 401.261> 245 54<281.873 353.819> 454 58<159.172 252.657> 610 60<-5.78052 440.681>
Fore
360 420 m 0
 406 420 461 412 496 326 c 0
 506 299 512 270 512 238 c 0
 512 163 485 59 402 20 c 0
 370 4 333 -4 290 -4 c 0
 126 -4 65 146 65 295 c 0
 65 481 206 616 373 616 c 0
 487 616 670 562 670 348 c 2
 670 22 l 2
 670 5 656 -7 639 -7 c 0
 625 -7 610 5 610 22 c 2
 610 337 l 2
 610 514 479 558 373 558 c 0
 211 558 125 424 125 293 c 0
 125 168 173 56 290 56 c 0
 315 56 391 56 427 121 c 0
 444 152 454 191 454 221 c 0
 454 232 453 243 451 253 c 1
 426 228 383 217 361 217 c 256
 294 217 245 266 245 318 c 0
 245 376 298 420 360 420 c 0
361 271 m 0
 393 271 424 290 424 318 c 256
 424 347 395 367 361 367 c 0
 330 367 299 344 299 318 c 0
 299 279 343 271 361 271 c 0
EndSplineSet
EndChar
StartChar: uni0E15
Encoding: 3605 3605 232
Width: 714
VWidth: 1473
Flags: W
HStem: -4 53<193.155 340.039> 224 51<302.459 391.526> 367 51<302.905 378.075> 461 56<336.437 441.377> 585 20G<226 273 496.5 529>
VStem: 72 58<122.554 499.503> 228 52<284.878 357.248> 420 53<152.094 250.716> 583 58<-2.82529 534.895>
Fore
522 605 m 0
 536 605 641 586 641 499 c 2
 641 25 l 2
 641 10 630 -4 613 -4 c 256
 596 -4 583 9 583 25 c 2
 583 499 l 2
 583 534 547 542 526 547 c 1
 513 527 472 461 390 461 c 0
 332 461 277 498 245 550 c 1
 175 544 130 501 130 424 c 2
 130 245 l 2
 130 136 159 49 273 49 c 0
 317 49 341 61 376 109 c 0
 400 144 420 197 420 252 c 1
 397 233 370 224 340 224 c 0
 298 224 228 255 228 321 c 0
 228 377 278 418 340 418 c 0
 404 418 439 387 457 339 c 0
 467 308 473 276 473 243 c 0
 473 119 401 -4 273 -4 c 0
 124 -4 72 99 72 245 c 2
 72 415 l 2
 70 580 200 608 252 608 c 0
 294 608 320 517 391 517 c 0
 460 517 471 605 522 605 c 0
340 275 m 0
 372 275 401 294 401 321 c 0
 401 359 360 367 340 367 c 256
 322 367 280 359 280 321 c 256
 280 282 324 275 340 275 c 0
EndSplineSet
EndChar
StartChar: uni0E16
Encoding: 3606 3606 233
Width: 717
VWidth: 1473
Flags: W
HStem: -6 53<238.876 316.229> 131 51<247.163 304.809> 539 58<259.833 491.082>
VStem: 168 57<53.5094 103.254 78.3815 162.447 172 199.638 199.638 200.926 200.926 267.044> 323 50<55.1743 122.755> 588 57<1.0376 445.671>
Fore
266 364 m 0
 283 364 294 349 294 335 c 0
 294 324 288 314 275 309 c 0
 255 301 227 276 227 227 c 0
 225 200 225 205 225 172 c 1
 238 179 255 182 277 182 c 0
 336 182 373 139 373 88 c 0
 373 31 327 -6 273 -6 c 0
 227 -6 169 29 169 88 c 0
 169 97 168 102 168 135 c 0
 168 183 169 211 171 230 c 0
 171 252 172 264 180 284 c 1
 98 327 l 2
 79 337 71 344 71 355 c 0
 71 358 72 361 72 365 c 1
 76 383 l 2
 89 432 152 597 376 597 c 0
 535 597 645 518 645 346 c 2
 645 29 l 2
 645 15 633 0 616 0 c 256
 599 0 588 15 588 29 c 2
 588 348 l 2
 588 443 546 539 376 539 c 0
 213 539 151 439 133 374 c 1
 139 370 210 333 211 333 c 1
 217 339 243 364 266 364 c 0
273 47 m 256
 299 47 323 65 323 88 c 0
 323 122 289 131 273 131 c 0
 254 131 221 122 221 88 c 256
 221 55 254 47 273 47 c 256
EndSplineSet
EndChar
StartChar: uni0E17
Encoding: 3607 3607 234
Width: 761
VWidth: 1473
Flags: W
HStem: -3 21G<228.5 244.5> 402 52<116.314 194.715> 531 57<512.133 595.092> 545 52<116.308 191.767>
VStem: 41 52<464.744 534.707> 209 55<-1.8728 155.291 243.964 381.806 381.806 414 464.25 487.721 475.985 534.735> 632 57<-8.97208 456.605>
Fore
264 466 m 0xde
 264 419 263 396 263 349 c 0
 263 320 263 284 264 242 c 1
 280 297 349 467 457 551 c 0
 498 581 537 588 557 588 c 0
 572 588 638 582 665 526 c 0
 681 493 689 454 689 407 c 2
 689 19 l 2
 689 4 678 -10 661 -10 c 256
 647 -10 632 2 632 19 c 2
 632 410 l 2
 632 514 586 531 555 531 c 0xee
 528 531 506 521 491 505 c 0
 396 409 343 308 305 214 c 0
 282 156 269 93 267 25 c 0
 267 8 252 -3 237 -3 c 256
 220 -3 209 10 209 25 c 2
 209 414 l 1
 192 406 173 402 153 402 c 0
 105 402 41 432 41 499 c 0
 41 553 90 597 153 597 c 0
 204 597 265 562 265 499 c 1
 264 496 264 485 264 466 c 0xde
153 454 m 0
 185 454 214 472 214 499 c 0
 214 537 173 545 153 545 c 256xde
 135 545 93 536 93 499 c 256
 93 463 136 454 153 454 c 0
EndSplineSet
EndChar
StartChar: uni0E18
Encoding: 3608 3608 235
Width: 654
VWidth: 1473
Flags: W
HStem: -6 58<215.343 479.116> 340 59<122.427 292.56> 357 57<236.678 476.005> 545 58<222.653 480.937>
VStem: 64 56<403.651 468.345> 108 57<136.428 300.082> 527 56<94.0977 310.596>
Fore
346 -6 m 0xba
 113 -6 108 97 108 205 c 2
 108 271 l 2
 108 288 121 301 137 301 c 256
 154 301 165 288 165 273 c 2
 165 203 l 2
 165 144 167 113 190 90 c 0
 215 65 267 52 346 52 c 0
 500 52 527 92 527 177 c 2
 527 259 l 2
 522 299 502 357 364 357 c 0xb6
 286 357 228 340 170 340 c 0
 80 340 64 390 64 424 c 0
 64 496 157 603 343 603 c 0
 568 603 613 490 613 462 c 0
 613 450 604 440 594 438 c 1
 576 430 561 442 557 455 c 0
 537 522 438 545 343 545 c 0
 192 545 120 461 120 427 c 0
 120 416 130 399 177 399 c 0xda
 214 399 305 414 360 414 c 0
 555 414 583 319 583 256 c 2
 583 151 l 2
 583 57 519 -6 346 -6 c 0xba
EndSplineSet
EndChar
StartChar: uni0E19
Encoding: 3609 3609 236
Width: 791
VWidth: 1473
Flags: W
HStem: -7 50<316.882 480.687 637.161 709.523> 194 52<681 709.359> 402 52<113.827 191.423> 545 50<100.482 199.701>
VStem: 40 51<464.157 533.03> 205 57<104.109 202 202 414 463.582 511.31> 581 45<51.7101 138.89 95 100> 625 56<246 596.576> 722 46<52.931 183.712>
Fore
681 246 m 1xfd80
 716 246 768 217 768 124 c 0
 768 77 758 43 738 24 c 0
 717 4 694 -6 669 -6 c 0
 611 -6 581 49 581 90 c 0xfe80
 581 93 582 97 582 100 c 1
 563 52 502 -7 401 -7 c 0
 305 -7 205 35 205 202 c 2
 205 414 l 1
 187 406 169 402 152 402 c 0
 112 402 40 423 40 499 c 0
 40 554 89 595 152 595 c 0
 229 595 262 539 262 499 c 2
 262 217 l 2
 262 110 290 43 401 43 c 0
 437 43 467 52 490 71 c 0
 575 138 588 220 625 236 c 1
 625 569 l 2
 625 588 634 597 653 597 c 256
 672 597 681 588 681 569 c 2
 681 246 l 1xfd80
672 43 m 256
 712 43 722 85 722 121 c 256
 722 165 704 194 676 194 c 0
 631.839 194 626 138.132 626 118 c 0
 626 85 635 43 672 43 c 256
152 454 m 0
 184 454 211 472 211 499 c 0
 211 509 198 545 152 545 c 0
 121 545 91 525 91 499 c 0
 91 460 137 454 152 454 c 0
EndSplineSet
EndChar
StartChar: uni0E1A
Encoding: 3610 3610 237
Width: 755
VWidth: 1473
Flags: W
HStem: -4 57<321.787 566.151> 402 50<115.9 192.172> 545 52<113.98 188.567>
VStem: 40 51<463.647 534.454> 206 58<106.858 414 463.11 535.217> 626 58<106.576 595.747>
Fore
654 597 m 256
 670 597 684 584 684 569 c 2
 684 217 l 2
 684 94 656 -4 445 -4 c 256
 232 -4 206 96 206 215 c 2
 206 414 l 1
 190 406 172 402 151 402 c 0
 92 402 40 443 40 499 c 0
 40 540 74 597 152 597 c 0
 219 597 264 549 264 499 c 2
 264 215 l 2
 264 117 274 53 445 53 c 256
 617 53 626 119 626 217 c 2
 626 567 l 2
 626 582 637 597 654 597 c 256
152 452 m 0
 184 452 212 472 212 499 c 0
 212 536 171 545 152 545 c 256
 132 545 91 536 91 499 c 256
 91 461 135 452 152 452 c 0
EndSplineSet
EndChar
StartChar: uni0E1B
Encoding: 3611 3611 238
Width: 755
VWidth: 1473
Flags: W
HStem: -4 57<321.787 566.151> 402 50<115.9 192.172> 545 52<113.98 188.567>
VStem: 40 51<463.647 534.454> 206 58<106.858 414 463.11 535.217> 626 58<106.576 785.878>
Fore
654 787 m 0
 670 787 684 774 684 759 c 2
 684 217 l 2
 684 94 656 -4 445 -4 c 256
 232 -4 206 96 206 215 c 2
 206 414 l 1
 190 406 172 402 151 402 c 0
 92 402 40 443 40 499 c 0
 40 540 74 597 152 597 c 0
 219 597 264 549 264 499 c 2
 264 215 l 2
 264 117 274 53 445 53 c 256
 617 53 626 119 626 217 c 2
 626 759 l 2
 626 778 635 787 654 787 c 0
152 452 m 0
 184 452 212 472 212 499 c 0
 212 536 171 545 152 545 c 256
 132 545 91 536 91 499 c 256
 91 461 135 452 152 452 c 0
EndSplineSet
EndChar
StartChar: uni0E1C
Encoding: 3612 3612 239
Width: 729
VWidth: 1473
Flags: W
HStem: -4 57<158.342 277.104 452.096 570.175> 401 51<143.697 235.128> 545 50<149.765 221.467>
VStem: 72 58<84.5003 414 463 533.534> 245 51<463.796 534.538> 336 59<119.683 363.873> 600 57<83.6082 566 566 593.962>
Fore
629 595 m 256
 646 595 657 580 657 566 c 2
 657 178 l 2
 657 41 597 -4 508 -4 c 0
 440 -4 386 49 365 105 c 1
 353 76 306 -4 218 -4 c 0
 130 -4 72 44 72 178 c 2
 72 498 l 2
 72 553 122 595 184 595 c 0
 233 595 296 566 296 498 c 0
 296 433 234 401 184 401 c 0
 163 401 145 405 130 414 c 1
 130 178 l 2
 130 81 165 53 218 53 c 0
 303 53 336 160 336 178 c 2
 336 337 l 2
 336 354 351 365 365 365 c 256
 380 365 395 354 395 337 c 2
 395 178 l 2
 397 154 430 53 508 53 c 0
 563 53 600 78 600 178 c 2
 600 566 l 2
 600 580 612 595 629 595 c 256
184 452 m 0
 216 452 245 471 245 498 c 0
 245 536 203 545 184 545 c 0
 165 545 124 532 124 498 c 0
 124 466 162 452 184 452 c 0
EndSplineSet
EndChar
StartChar: uni0E1D
Encoding: 3613 3613 240
Width: 729
VWidth: 1473
Flags: W
HStem: -4 57<158.342 277.104 452.096 570.175> 401 51<143.697 235.128> 545 50<149.765 221.467>
VStem: 72 58<84.5003 414 463 533.534> 245 51<463.796 534.538> 336 59<119.683 363.873> 600 57<83.6082 786.962>
Fore
629 788 m 256
 646 788 657 773 657 759 c 2
 657 178 l 2
 657 41 597 -4 508 -4 c 0
 440 -4 386 49 365 105 c 1
 353 76 306 -4 218 -4 c 0
 130 -4 72 44 72 178 c 2
 72 498 l 2
 72 553 122 595 184 595 c 0
 233 595 296 566 296 498 c 0
 296 433 234 401 184 401 c 0
 163 401 145 405 130 414 c 1
 130 178 l 2
 130 81 165 53 218 53 c 0
 303 53 336 160 336 178 c 2
 336 337 l 2
 336 354 351 365 365 365 c 256
 380 365 395 354 395 337 c 2
 395 178 l 2
 397 154 430 53 508 53 c 0
 563 53 600 78 600 178 c 2
 600 759 l 2
 600 773 612 788 629 788 c 256
184 452 m 0
 216 452 245 471 245 498 c 0
 245 536 203 545 184 545 c 0
 165 545 124 532 124 498 c 0
 124 466 162 452 184 452 c 0
EndSplineSet
EndChar
StartChar: uni0E1E
Encoding: 3614 3614 241
Width: 864
VWidth: 1473
Flags: W
HStem: -6 58<292.546 414.104 587.291 704.836> 403 51<114.485 194.85> 545 52<115.138 190.288>
VStem: 40 53<463.638 535.004> 206 58<83.3075 414> 214 50<464.25 534.141> 471 58<119.384 558.747> 735 58<81.9998 567 567 593.873>
Fore
763 595 m 256xfb
 778 595 793 584 793 567 c 2
 793 177 l 2
 793 40 733 -6 642 -6 c 0
 556 -6 509 81 499 103 c 1
 479 48 421 -6 354 -6 c 0
 265 -6 206 43 206 177 c 2
 206 414 l 1xfb
 190 406 171 403 149 403 c 0
 80 403 40 454 40 496 c 0
 40 546 88 597 153 597 c 0
 224 597 262 546 264 499 c 2xf7
 264 177 l 2
 264 104 281 52 354 52 c 0
 436 52 471 151 471 184 c 2
 471 530 l 2
 471 546 484 560 499 560 c 256
 516 560 529 545 529 530 c 2
 529 184 l 2
 529 157 565 52 642 52 c 0
 716 52 735 99 735 177 c 2
 735 567 l 2
 735 584 748 595 763 595 c 256xfb
153 454 m 0
 185 454 214 472 214 499 c 0xf7
 214 536 172 545 153 545 c 256
 135 545 93 537 93 499 c 256
 93 461 135 454 153 454 c 0
EndSplineSet
EndChar
StartChar: uni0E1F
Encoding: 3615 3615 242
Width: 864
VWidth: 1473
Flags: W
HStem: -6 58<292.546 414.104 587.291 704.836> 403 51<114.485 194.85> 545 52<115.138 190.288>
VStem: 40 53<463.638 535.004> 206 58<83.3075 414> 214 50<464.25 534.141> 471 58<119.384 558.747> 735 58<81.9999 786.873>
Fore
763 788 m 256xfb
 778 788 793 777 793 760 c 2
 793 177 l 2
 793 40 733 -6 642 -6 c 0
 556 -6 509 81 499 103 c 1
 479 48 421 -6 354 -6 c 0
 265 -6 206 43 206 177 c 2
 206 414 l 1xfb
 190 406 171 403 149 403 c 0
 80 403 40 454 40 496 c 0
 40 546 88 597 153 597 c 0
 224 597 262 546 264 499 c 2xf7
 264 177 l 2
 264 104 281 52 354 52 c 0
 436 52 471 151 471 184 c 2
 471 530 l 2
 471 546 484 560 499 560 c 256
 516 560 529 545 529 530 c 2
 529 184 l 2
 529 157 565 52 642 52 c 0
 716 52 735 99 735 177 c 2
 735 760 l 2
 735 777 748 788 763 788 c 256xfb
153 454 m 0
 185 454 214 472 214 499 c 0xf7
 214 536 172 545 153 545 c 256
 135 545 93 537 93 499 c 256
 93 461 135 454 153 454 c 0
EndSplineSet
EndChar
StartChar: uni0E20
Encoding: 3616 3616 243
Width: 730
VWidth: 1473
Flags: W
HStem: -4 51<110.54 185.445> 133 50<111.362 177.014> 539 58<273.092 505.822>
VStem: 41 52<53.4913 125.99> 181 61<177 198.533 199 203.498 203.498 264.301> 189 53<60.0199 101.911 95.1384 108.683> 601 58<1.31177 450.143>
Fore
280 364 m 0xfa
 296 364 307 352 307 334 c 0
 307 322 300 314 289 309 c 0
 268 301 242 276 242 227 c 0xfa
 239 201 238 180 238 163 c 0
 238 152 239 120 240 109 c 0
 240 98 242 98 242 81 c 0xf6
 242 33 196 -4 143 -4 c 0
 108 -4 41 15 41 90 c 0
 41 146 86 183 142 183 c 0
 153 183 166 182 181 177 c 1
 181 182 181 189 182 199 c 2
 184 230 l 2
 184 253 187 266 193 284 c 1
 112 327 l 2
 90 339 84 345 84 357 c 0
 84 359 85 362 85 365 c 1
 90 383 l 2
 102 432 165 597 389 597 c 0
 549 597 659 514 659 346 c 2
 659 30 l 2
 659 13 644 0 629 0 c 256
 612 0 601 15 601 30 c 2
 601 348 l 2
 601 463 544 539 389 539 c 0
 297 539 190 507 146 374 c 1
 154 368 173 360 190 350 c 2
 212 338 l 2
 219 335 223 333 224 333 c 1
 239 350 263 364 280 364 c 0xfa
189 89 m 0xf6
 189 100 187 133 143 133 c 256
 125 133 93 124 93 90 c 256
 93 56 123 47 143 47 c 0
 187 47 189 75 189 89 c 0xf6
EndSplineSet
EndChar
StartChar: uni0E21
Encoding: 3617 3617 244
Width: 730
VWidth: 1473
Flags: W
HStem: -7 50<134.54 216.415 428.539 571.633> 189 54<135.761 212.316> 402 52<119.629 210.759> 547 51<119.31 207.884>
VStem: 59 51<465.389 535.462> 77 45<57.0973 175.566> 227 57<233 336.254 336.254 415 465.11 536.531> 228 47<88.4341 118.506> 600 59<80.0883 177 177 590.873>
Fore
659 177 m 2xfa80
 659 72 627 -7 501 -7 c 0
 411 -7 316 75 275 119 c 1
 275 108 l 2
 275 63 256 -7 181 -7 c 0
 98 -7 77 66 77 116 c 0xf580
 77 188 114 243 180 243 c 0
 197 243 212 240 225 233 c 1
 225 282 l 2
 225 336 227 347 227 390 c 2
 227 415 l 1
 209 406 190 402 171 402 c 0
 108 402 59 443 59 501 c 0
 59 556 108 598 171 598 c 0
 213 598 284 577 284 492 c 2
 284 189 l 1
 333 134 427 50 501 50 c 0
 572 50 600 79 600 177 c 2
 601 564 l 2
 601 583 610 592 629 592 c 0
 644 592 659 581 659 564 c 2
 659 177 l 2xfa80
171 454 m 0
 203 454 231 474 231 501 c 0
 231 538 189 547 171 547 c 256
 146 547 110 533 110 501 c 256xf880
 110 470 145 454 171 454 c 0
228 116 m 0xf580
 228 170 209 189 180 189 c 0
 134 189 122 148 122 116 c 0
 122 76 142 43 180 43 c 0
 218 43 228 92 228 116 c 0xf580
EndSplineSet
EndChar
StartChar: uni0E22
Encoding: 3618 3618 245
Width: 718
VWidth: 1473
Flags: W
HStem: -10 57<300.133 499.877> 267 57<249 261.5 261.5 263.5 262.5 397.572> 402 52<216.265 305.242> 547 51<217.965 289.236>
VStem: 66 59<366.921 466.706> 153 56<119.859 225.643> 314 51<465.213 534.641> 591 57<141.526 593.09>
Fore
619 594 m 256
 636 594 648 581 648 566 c 2
 648 197 l 2
 648 151 648 35 518 2 c 0
 485 -6 445 -10 398 -10 c 0
 233 -10 186 51 174 82 c 0
 154 132 153 161 153 170 c 0
 153 209 167 249 187 277 c 1
 90 308 66 380 66 431 c 0
 66 520 157 598 253 598 c 0
 321 598 365 551 365 499 c 0
 365 441 317 402 253 402 c 0
 194 402 152 437 143 486 c 1
 135 473 125 449 125 424 c 0
 125 340 224 324 252 324 c 0
 260 323 267 323 275 323 c 0
 404 323 430 383 452 339 c 256
 458 327 459 309 439 301 c 0
 396 280 336 267 274 267 c 0
 266 267 257 267 249 268 c 1
 220 247 209 202 209 173 c 0
 209 111 242 82 262 70 c 0
 289 55 334 47 398 47 c 0
 501 47 538 67 558 87 c 0
 577 105 591 125 591 197 c 2
 591 564 l 2
 591 579 602 594 619 594 c 256
253 454 m 0
 285 454 314 472 314 499 c 0
 314 537 269 547 253 547 c 256
 236 547 193 537 193 499 c 256
 193 463 236 454 253 454 c 0
EndSplineSet
EndChar
StartChar: uni0E23
Encoding: 3619 3619 246
Width: 645
VWidth: 1473
Flags: W
HStem: -10 50<372.755 448.116> 133 51<372.972 449.794> 320 58<106.385 240.9> 355 60<223.811 435.508> 545 58<221.551 441.935>
VStem: 50 55<380.486 458.754> 298 51<50.6559 122.638> 470 57<52.7374 122 168 322.298>
Fore
143 378 m 0xef
 199 378 251 415 348 415 c 0
 432 415 529 382 529 249 c 2
 527 90 l 2
 527 -2 423 -10 410 -10 c 0
 362 -10 298 20 298 87 c 0
 298 141 346 184 410 184 c 0
 431 184 451 179 470 168 c 1
 470 252 l 2
 468 316 440 355 354 355 c 0xdf
 268 355 205 320 142 320 c 0
 69 320 50 367 50 413 c 0
 50 510 175 603 355 603 c 0
 559 603 627 477 627 451 c 0
 627 425 600 422 596 422 c 0
 586 422 576 429 572 439 c 0
 514 543 393 545 355 545 c 0
 178 545 105 457 105 411 c 0
 105 386 121 378 143 378 c 0xef
410 40 m 0
 442 40 470 60 470 87 c 0
 470 119 433 133 410 133 c 256
 392 133 349 124 349 87 c 256
 349 49 391 40 410 40 c 0
EndSplineSet
EndChar
StartChar: uni0E24
Encoding: 3620 3620 247
Width: 717
VWidth: 1473
Flags: W
HStem: -6 53<238.876 316.229> 131 51<247.163 304.809> 539 58<259.833 491.189>
VStem: 168 57<53.5094 102.724 78.1165 162.447 172 199.63 199.63 200.926 200.926 263.152> 323 50<55.1743 122.755> 588 57<-253.962 445.545>
Fore
171 230 m 0
 171 252 172 264 180 284 c 1
 98 327 l 2
 79 337 71 344 71 355 c 0
 71 358 72 361 72 365 c 1
 76 383 l 2
 89 432 152 597 376 597 c 0
 535.5 597 645 517.685 645 346 c 2
 645 -226 l 2
 645 -240 633 -255 616 -255 c 256
 599 -255 588 -240 588 -226 c 2
 588 348 l 2
 588 442.992 546 539 376 539 c 0
 213 539 151 439 133 374 c 1
 141 368 155 362 178 350 c 0
 197.747 339.697 208.112 333 211 333 c 1
 219 342 270 389 292 346 c 1
 297 330 292 316 275 309 c 0
 255 301 227 276 227 227 c 0
 224.512 199.631 225.001 205 225 172 c 1
 238 179 255 182 277 182 c 0
 336 182 373 139 373 88 c 0
 373 31 327 -6 273 -6 c 0
 227 -6 169 29 169 88 c 0
 169 97 168 102 168 135 c 0
 168 183 169 211 171 230 c 0
273 47 m 256
 299 47 323 65 323 88 c 0
 323 122 289 131 273 131 c 0
 254 131 221 122 221 88 c 256
 221 55 254 47 273 47 c 256
EndSplineSet
EndChar
StartChar: uni0E25
Encoding: 3621 3621 248
Width: 724
VWidth: 1473
Flags: W
HStem: -3 52<220.088 309.641> 140 52<219.483 295.712> 340 58<263.174 436.981> 542 58<252.01 487.565>
VStem: 68 57<338.517 432.692> 126 52<162.289 252.672> 318 52<59.7094 129.596> 595 58<-2.89868 131.374 273 445.908>
Fore
361 398 m 0
 420 398 526 391 597 273 c 1
 597 367 l 2
 597 437 550 542 358 542 c 0
 244 542 131 473 125 365 c 0
 125 350 113 337 96 337 c 0
 81 339 68 350 68 367 c 0
 70 486 187 600 358 600 c 0
 555 600 654 494 654 367 c 2
 653 25 l 2
 653 8 640 -4 625 -4 c 256
 608 -4 595 9 595 25 c 2
 595 91 l 2
 595 114 591 224 492 302 c 0
 454 333 403 340 364 340 c 0
 281 340 185 311 178 162 c 1
 201 182 227 192 258 192 c 0
 306 192 370 157 370 94 c 0
 370 27 305 -3 258 -3 c 0
 152 -3 126 100 126 177 c 0
 126 260 173 398 361 398 c 0
258 49 m 0
 290 49 318 67 318 94 c 0
 318 133 274 140 258 140 c 256
 238 140 197 132 197 94 c 256
 197 57 238 49 258 49 c 0
EndSplineSet
EndChar
StartChar: uni0E26
Encoding: 3622 3622 249
Width: 729
VWidth: 1473
Flags: W
HStem: -4 51<110.54 185.54> 133 50<111.362 177.083> 539 58<273.092 505.887>
VStem: 41 52<53.4913 125.99> 181 61<177 198.533 199 203.498 203.498 264.301> 189 53<51.2751 101.891 95.1384 108.644> 601 58<-253.688 445.694>
Fore
280 364 m 0xfa
 296 364 307 352 307 334 c 0
 307 322 300 314 289 309 c 0
 268 301 242 276 242 227 c 0xfa
 239 201 238 180 238 163 c 0
 238 152 239 120 240 109 c 0
 240 98 242 98 242 81 c 0xf6
 242 33 196 -4 143 -4 c 0
 108 -4 41 15 41 90 c 0
 41 146 86 183 142 183 c 0
 153 183 166 182 181 177 c 1
 181 182 181 189 182 199 c 2
 184 230 l 2
 184 253 187 266 193 284 c 1
 112 327 l 2
 85 342 83 347 85 365 c 1
 90 383 l 2
 102 432 165 597 389 597 c 0
 549.302 597 659 518.058 659 346 c 2
 659 -225 l 2
 659 -242 644 -255 629 -255 c 256
 612 -255 601 -240 601 -225 c 2
 601 348 l 2
 601 463 544 539 389 539 c 0
 297 539 190 507 146 374 c 1
 154 368 173 360 190 350 c 2
 212 338 l 2
 219 335 223 333 224 333 c 1
 239 350 263 364 280 364 c 0xfa
189 86 m 0xf6
 189 92 192 133 143 133 c 256
 125 133 93 124 93 90 c 256
 93 56 123 47 143 47 c 0
 172 47 189 60 189 86 c 0xf6
EndSplineSet
EndChar
StartChar: uni0E27
Encoding: 3623 3623 250
Width: 627
VWidth: 1473
Flags: W
HStem: -10 51<401.099 488.222> 134 52<400.749 476.852> 539 58<198.082 416.203>
VStem: 41 58<334.848 442.404> 326 51<51.985 124.256> 498 57<52.9624 123 169 460.909>
Fore
555 364 m 2
 555 88 l 2
 555 18 490 -10 438 -10 c 0
 379 -10 326 29 326 88 c 0
 326 143 375 186 438 186 c 0
 459 186 479 180 498 169 c 1
 498 364 l 2
 498 471 449 539 302 539 c 0
 182 539 103 471 99 362 c 0
 99 348 85 333 69 334 c 0
 52 334 41 349 41 364 c 0
 45 452 104 597 302 597 c 0
 426 597 555 550 555 364 c 2
438 41 m 0
 470 41 498 61 498 88 c 0
 498 120 461 134 438 134 c 256
 418 134 377 125 377 88 c 256
 377 50 421 41 438 41 c 0
EndSplineSet
EndChar
StartChar: uni0E28
Encoding: 3624 3624 251
Width: 692
VWidth: 1473
Flags: W
HStem: -1 21G<94.5 111.5 583.5 600.5> 215 52<318.907 408.999> 358 52<304.857 410.501> 539 58<233.828 475.793>
VStem: 74 57<-0.0859985 211.367 270 443.802> 246 52<275.873 313.305> 418 52<277.21 349.658> 564 58<0.174713 453.134>
Fore
358 410 m 0
 427 410 470 360 470 312 c 0
 470 275 442 215 358 215 c 0
 313 215 246 242 246 314 c 1
 152 246 137 180 131 143 c 1
 131 28 l 2
 131 13 120 -1 103 -1 c 256
 86 -1 74 12 74 28 c 2
 74 346 l 2
 74 547 230 597 358 597 c 0
 428 597 483 584 524 558 c 1
 563 572 610 618 647 667 c 1
 650 678 660 687 674 687 c 0
 691 687 703 671 703 661 c 0
 703 629 632 547 572 517 c 1
 605 476 622 419 622 346 c 2
 622 28 l 2
 622 12 609 -1 592 -1 c 256
 575 -1 564 13 564 28 c 2
 564 348 l 2
 564 441 535 539 358 539 c 0
 288 539 233 524 192 495 c 0
 151 466 131 416 131 346 c 2
 131 270 l 1
 187 361 273 410 358 410 c 0
358 267 m 0
 390 267 418 285 418 312 c 0
 418 330 409 358 358 358 c 0
 313 358 298 340 298 312 c 0
 298 274 338 267 358 267 c 0
EndSplineSet
EndChar
StartChar: uni0E29
Encoding: 3625 3625 252
Width: 817
VWidth: 1473
Flags: W
HStem: -4 57<328.807 560.142> 217 51<520.922 588.659> 371 53<396.329 496.57> 402 50<117.458 193.6> 545 52<116.64 189.724>
VStem: 41 52<463.409 534.309> 208 57<117.642 414 463.11 534.531> 338 51<294.688 362.42> 501 51<297.584 363.708> 628 57<118.524 225 296 595.83>
Fore
827 422 m 0xefc0
 827 414 808 285 685 237 c 1
 685 59 613 -4 446 -4 c 0
 256 -4 208 82 208 237 c 2
 208 414 l 1
 191 406 173 402 152 402 c 0xdfc0
 94 402 41 443 41 498 c 0
 41 537 74 597 153 597 c 0
 226 597 265 545 265 499 c 2
 265 236 l 2
 265 102 302 53 446 53 c 0
 610 53 628 128 628 225 c 1
 599 221 558 217 534 217 c 0
 468 217 338 237 338 330 c 0
 338 377 383 424 450 424 c 0
 492 424 552 399 552 336 c 0
 552 295 527 273 519 268 c 1
 538 268 l 2
 569 268 603 271 628 275 c 1
 628 569 l 2
 628 584 639 597 656 597 c 256
 671 597 685 583 685 569 c 2
 685 296 l 1
 732 319 763 364 778 429 c 0
 785 451 827 455 827 422 c 0xefc0
501 330 m 0
 501 355 486 371 440 371 c 0xefc0
 419 371 389 355 389 330 c 0
 389 294 424 287 445 287 c 0
 468 287 501 304 501 330 c 0
153 452 m 0xdfc0
 185 452 214 472 214 499 c 0
 214 536 172 545 153 545 c 256
 135 545 93 536 93 499 c 256
 93 461 137 452 153 452 c 0xdfc0
EndSplineSet
EndChar
StartChar: uni0E2A
Encoding: 3626 3626 253
Width: 724
VWidth: 1473
Flags: W
HStem: -3 52<220.088 309.641> 140 52<219.483 295.712> 340 58<263.174 436.981> 542 58<252.01 486.878>
VStem: 68 57<338.517 432.692> 126 52<162.289 252.672> 318 52<59.7094 129.596> 595 58<-2.89868 131.374 273 445.908>
Fore
361 398 m 0
 420 398 526 391 597 273 c 1
 597 367 l 2
 597 437 550 542 358 542 c 0
 244 542 131 473 125 365 c 0
 125 350 113 337 96 337 c 0
 81 339 68 350 68 367 c 0
 70 486 187 600 358 600 c 0
 431 600 494 585 547 554 c 1
 589 566 634 610 679 667 c 1
 683 682 698 687 707 687 c 0
 718 687 735 675 735 661 c 0
 735 633 669 549 598 513 c 1
 635 472 654 424 654 367 c 2
 653 25 l 2
 653 8 640 -4 625 -4 c 256
 608 -4 595 9 595 25 c 2
 595 91 l 2
 595 114 591 224 492 302 c 0
 454 333 403 340 364 340 c 0
 281 340 185 311 178 162 c 1
 201 182 227 192 258 192 c 0
 306 192 370 157 370 94 c 0
 370 27 305 -3 258 -3 c 0
 152 -3 126 100 126 177 c 0
 126 260 173 398 361 398 c 0
258 49 m 0
 290 49 318 67 318 94 c 0
 318 133 274 140 258 140 c 256
 238 140 197 132 197 94 c 256
 197 57 238 49 258 49 c 0
EndSplineSet
EndChar
StartChar: uni0E2B
Encoding: 3627 3627 254
Width: 763
VWidth: 1473
Flags: W
HStem: -4 21G<230.5 246.5 654 669.5> 387 46<530.069 599.188> 400 54<116.384 192.01> 545 52<116.308 191.759> 551 54<494.202 620.318>
VStem: 41 52<464.679 534.707> 209 58<-1.74681 135.249 218 415 464.25 535.603> 423 54<449.424 532.945> 632 57<-2.97208 353.244 446.604 523.06>
Fore
638 405 m 1x8f80
 678 378 689 343 689 265 c 2
 689 25 l 2
 689 10 678 -4 661 -4 c 256
 647 -4 632 8 632 25 c 2
 632 275 l 2
 632 363 584 387 533 387 c 0xcf80
 388 387 277 168 267 43 c 2
 267 27 l 2
 267 11 254 -3 239 -3 c 256
 222 -3 209 12 209 27 c 2
 209 415 l 1
 191 405 171 400 148 400 c 0
 88 400 41 450 41 499 c 0
 41 553 90 597 153 597 c 256xb780
 219 597 267 551 267 499 c 2
 267 218 l 1
 298 286 361 396 463 421 c 1
 451 426 423 453 423 498 c 0
 423 572 488 605 554 605 c 0
 638 605 692 560 692 492 c 0
 692 451 668 417 638 405 c 1x8f80
560 433 m 0
 624 433 638 468 638 492 c 0
 638 494 635 551 560 551 c 0
 525 551 477 538 477 488 c 0
 477 444 532 433 560 433 c 0
153 454 m 0xb780
 185 454 214 472 214 499 c 0
 214 537 173 545 153 545 c 256
 135 545 93 536 93 499 c 256
 93 463 136 454 153 454 c 0xb780
EndSplineSet
EndChar
StartChar: uni0E2C
Encoding: 3628 3628 255
Width: 866
VWidth: 1473
Flags: W
HStem: -6 58<294.052 414.886 587.471 708.247> 403 51<116.342 196.33> 512 54<628.654 712.829 703.424 722.234 722.234 737> 545 52<116.788 191.507> 661 58<628.717 700.315>
VStem: 42 52<463.872 535.359> 208 57<83.0844 414 464.25 535.217> 473 57<118.683 473.086> 562 59<576.885 652.639> 737 57<82.4357 177 177 517> 819 58<612.013 696.873>
Fore
877 670 m 0xefe0
 877 591 812 549 794 539 c 1
 794 177 l 2
 794 41 734 -6 644 -6 c 0
 558 -6 512 77 501 103 c 1
 481 48 422 -6 355 -6 c 0
 267 -6 208 41 208 177 c 2
 208 414 l 1
 192 406 173 403 150 403 c 0
 82 403 42 452 42 495 c 0
 42 547 91 597 155 597 c 0xdfe0
 223 597 264 548 265 499 c 2
 265 177 l 2
 265 104 283 52 355 52 c 0
 435 52 473 148 473 184 c 2
 473 445 l 2
 473 460 484 474 501 474 c 256
 518 474 530 461 530 445 c 2
 530 184 l 2
 530 156 566 52 644 52 c 0
 718 52 737 99 737 177 c 2
 737 517 l 1
 722 514 707 512 692 512 c 0
 600 512 562 567 562 617 c 0
 562 662 595 719 670 719 c 0
 711 719 777 692 791 605 c 1
 806 619 819 642 819 670 c 0
 819 687 832 698 847 698 c 256
 862 698 877 687 877 670 c 0xefe0
155 454 m 0
 186 454 215 472 215 499 c 0
 215 536 174 545 155 545 c 256
 135 545 94 537 94 499 c 256
 94 462 135 454 155 454 c 0
621 616 m 0
 621 596 634 566 684 566 c 0xefe0
 702 566 719 568 737 573 c 1
 737 647 687 661 669 661 c 0
 638 661 621 636 621 616 c 0
EndSplineSet
Substitution2: "Single Substitution lookup 22 subtable" uni0E2C.alt1
Substitution2: "Single Substitution lookup 22 subtable" uni0E2C.alt1
EndChar
StartChar: uni0E2D
Encoding: 3629 3629 256
Width: 730
VWidth: 1473
Flags: W
HStem: -9 55<283.702 512.573> 232 50<266.086 352.708> 377 50<269.42 345.26> 554 57<252.596 489.157>
VStem: 68 57<349.756 444.971> 140 55<127.971 260.966> 365 51<295.266 368.906> 603 56<231.064 448.864>
Fore
68 379 m 0
 70 499 195 611 362 611 c 0
 607 611 659 459 659 358 c 2
 659 245 l 2
 659 75 580 -9 390 -9 c 0
 205 -9 140 115 140 216 c 0
 140 289 171 352 208 386 c 0
 258 425 295 427 310 427 c 0
 369 427 416 389 416 332 c 0
 416 282 371 232 298 232 c 0
 262 232 227 248 208 278 c 1
 200 257 195 234 195 210 c 0
 195 140 239 46 390 46 c 0
 539 46 582 109 592 170 c 0
 600 216 603 270 603 313 c 2
 603 345 l 2
 603 470 536 554 362 554 c 0
 237 554 130 475 125 377 c 0
 125 360 112 348 96 349 c 0
 79 349 68 364 68 379 c 0
365 331 m 0
 365 368 331 377 310 377 c 0
 287 377 245 360 245 329 c 0
 245 292 282 282 301 282 c 0
 328 282 365 301 365 331 c 0
EndSplineSet
EndChar
StartChar: uni0E2E
Encoding: 3630 3630 257
Width: 695
VWidth: 1473
Flags: W
HStem: -9 58<234.733 478.839> 180 52<213.861 315.2> 324 48<219.479 306.164> 393 58<120.155 262.49> 554 57<202.555 453.83>
VStem: 62 58<457.718 498.214> 103 57<111.294 220.458> 327 53<244.628 315.032> 566 57<135.176 253 253 385.15>
Fore
623 253 m 2xfd80
 623 105.063 568.8 -9 352 -9 c 0
 164 -9 103 96 103 181 c 0
 103 272 166 372 271 372 c 0
 333 372 380 336 380 281 c 0
 380 227 330 180 263 180 c 0
 221 180 185 203 168 230 c 1
 163 214 160 198 160 182 c 0xfb80
 160 129 190 49 352 49 c 0
 515.467 49 566 113.218 566 253 c 2
 566 348 l 2
 566 360 567 409 526 474 c 1
 423 404 245 393 206 393 c 2
 168 393 l 2
 81 398 62 437 62 467 c 0
 62 532 175 611 324 611 c 0
 415 611 484 591 532 552 c 1
 578 601 560 633 582 652 c 0
 586 655 591 657 596 657 c 0
 613 657 628 643 628 626 c 0
 628 608 612 556 572 510 c 1
 625 427 623 362 623 348 c 2
 623 253 l 2xfd80
324 554 m 0
 203 554 120 493 120 471 c 0xfd80
 120 463.407 120.985 453.084 171 451 c 2
 204 452 l 2
 237 452 393 459 486 516 c 1
 447 541 393 554 324 554 c 0
327 280 m 0
 327 317 288 324 269 324 c 0
 222.509 324 206 289.177 206 274 c 0
 206 258 224 232 262 232 c 0
 306 232 327 261 327 280 c 0
EndSplineSet
EndChar
StartChar: uni0E2F
Encoding: 3631 3631 258
Width: 642
VWidth: 1473
Flags: W
HStem: 0 21G<532.5 548.5> 364 49<222.892 383.718> 546 52<119.251 219.097>
VStem: 56 52<461.424 533.258> 228 52<466.297 536.185> 513 57<1.24811 455>
Fore
546 597 m 0
 554 597 576 590 576 577 c 0
 576 571 574 562 570 552 c 1
 570 29 l 2
 570 15 556 0 541 0 c 256
 524 0 513 15 513 29 c 2
 513 455 l 1
 450 388 347 364 273 364 c 0
 196 364 124 386 84 424 c 0
 63 443 56 462 56 492 c 0
 56 569 125 598 174 598 c 0
 234 598 280 553 280 505 c 0
 280 481 267 435 217 418 c 1
 232 415 250 413 271 413 c 0
 350 413 477 444 523 579 c 0
 527 593 539 597 546 597 c 0
228 501 m 0
 228 529 200 546 172 546 c 0
 146 546 108 530 108 499 c 0
 108 459 148 453 164 453 c 0
 202 453 228 478 228 501 c 0
EndSplineSet
EndChar
StartChar: uni0E30
Encoding: 3632 3632 259
Width: 645
VWidth: 1473
Flags: W
HStem: -3 55<252.597 402.75> 180 51<137.624 239.03> 355 55<252.597 402.75> 538 51<137.846 238.59>
VStem: 75 50<91.2446 166.038 449.245 524.038> 245 52<96.7057 172.983 454.706 530.086>
Fore
573 555 m 0
 573 540 543 355 302 355 c 0
 115 355 75 434 75 487 c 0
 75 548 131 589 192 589 c 0
 245 589 297 552 297 495 c 0
 297 457 271 428 249 414 c 1
 265 411 281 410 297 410 c 0
 415 410 499 477 516 560 c 0
 525 597 573 584 573 555 c 0
245 497 m 0
 245 521 223 538 194 538 c 0
 153 538 125 514 125 485 c 0
 125 449 160 441 184 441 c 0
 222 441 245 471 245 497 c 0
573 197 m 0
 573 182 543 -3 302 -3 c 0
 115 -3 75 76 75 129 c 0
 75 190 130 231 192 231 c 0
 247 231 297 193 297 137 c 0
 297 99 271 70 249 56 c 1
 265 53 281 52 297 52 c 0
 415 52 499 119 516 202 c 0
 525 239 573 226 573 197 c 0
245 139 m 0
 245 163 223 180 194 180 c 0
 153 180 125 156 125 127 c 0
 125 91 160 83 184 83 c 0
 222 83 245 113 245 139 c 0
EndSplineSet
EndChar
StartChar: uni0E31
Encoding: 3633 3633 260
Width: 0
VWidth: 1473
Flags: W
HStem: 683 53<-220.274 -127.327> 846 50<-354.475 -254.196>
VStem: -415 50<765.905 833.65> -245 51<764.777 834.772>
Fore
127 905 m 0
 137 905 152 895 152 881 c 0
 152 852 -0 683 -197 683 c 0
 -322 683 -415 723 -415 800 c 0
 -415 854 -367 896 -306 896 c 0
 -258 896 -194 865 -194 799 c 0
 -194 774 -205 754 -225 736 c 1
 -222 736 -219 735 -216 735 c 0
 -170 735 -13 742 106 896 c 0
 112 902 120 905 127 905 c 0
-306 754 m 0
 -274 754 -245 773 -245 800 c 0
 -245 831 -282 846 -306 846 c 0
 -326 846 -365 831 -365 800 c 0
 -365 763 -319 754 -306 754 c 0
EndSplineSet
Substitution2: "Single Substitution lookup 22 subtable" uni0E31.alt1
Substitution2: "Single Substitution lookup 22 subtable" uni0E31.alt1
EndChar
StartChar: uni0E32
Encoding: 3634 3634 261
Width: 570
VWidth: 1473
Flags: W
HStem: -4 21G<461.5 478.5> 547 57<177.981 360.595>
VStem: 440 58<-2.82529 476.452>
Fore
273 604 m 256
 373 604 498 532 498 407 c 2
 498 25 l 2
 498 10 487 -4 470 -4 c 256
 453 -4 440 9 440 25 c 2
 440 407 l 2
 440 509 338 547 273 547 c 0
 187 547 118 499 102 457 c 0
 89 427 46 432 46 467 c 0
 46 501 124 604 273 604 c 256
EndSplineSet
EndChar
StartChar: uni0E33
Encoding: 3635 3635 262
Width: 570
VWidth: 1473
Flags: W
HStem: -4 21G<461.5 478.5> 547 57<177.981 360.595> 670 52<-199.084 -103.218> 829 52<-214.166 -103.585>
VStem: -280 52<736.04 814.305> -90 52<736.449 802.694> 440 58<-2.82529 476.452>
Fore
-159 881 m 0
 -74 881 -38 823 -38 775 c 0
 -38 712 -91 670 -159 670 c 0
 -201 670 -280 697 -280 775 c 0
 -280 835 -226 881 -159 881 c 0
-159 722 m 0
 -122 722 -90 744 -90 775 c 0
 -90 786 -99 829 -159 829 c 0
 -206 829 -228 797 -228 775 c 0
 -228 726 -166 722 -159 722 c 0
273 604 m 256
 373 604 498 532 498 407 c 2
 498 25 l 2
 498 10 487 -4 470 -4 c 256
 453 -4 440 9 440 25 c 2
 440 407 l 2
 440 509 338 547 273 547 c 0
 187 547 118 499 102 457 c 0
 89 427 46 432 46 467 c 0
 46 501 124 604 273 604 c 256
EndSplineSet
Substitution2: "Single Substitution lookup 22 subtable" uni0E33.alt1
Substitution2: "Single Substitution lookup 22 subtable" uni0E33.alt1
EndChar
StartChar: uni0E34
Encoding: 3636 3636 263
Width: 0
VWidth: 1473
Flags: W
HStem: 660 197 682 48<-454.671 -181.835> 806 51<-432.246 -269.12>
Fore
-67 684 m 0x60
 -67 677 -73 660 -95 660 c 0x80
 -108 660 -177 682 -336 682 c 0
 -419 682 -506 677 -582 669 c 0
 -599 666 -610 682 -610 693 c 0
 -610 697 -608 703 -603 710 c 1
 -594 719 l 1
 -533 752 -483 857 -351 857 c 0
 -321 857 -213 858 -122 756 c 2
 -78 709 l 2
 -71 701 -67 691 -67 684 c 0x60
-529 717 m 1
 -479 726 -421 730 -363 730 c 0
 -281 730 -200 722 -131 709 c 1
 -182 739 -222 806 -339 806 c 0x60
 -445 806 -470 747 -529 717 c 1
EndSplineSet
Substitution2: "Single Substitution lookup 22 subtable" uni0E34.alt1
Substitution2: "Single Substitution lookup 22 subtable" uni0E34.alt1
EndChar
StartChar: uni0E35
Encoding: 3637 3637 264
Width: 0
VWidth: 1473
Flags: W
HStem: 679 48<-457.217 -253.485> 804 50<-433.228 -273.586>
VStem: -181 57<801 943.207>
Fore
-354 854 m 0
 -306 854 -233 843 -181 801 c 1
 -181 918 l 2
 -181 935 -172 944 -155 944 c 0
 -134 944 -124 935 -124 916 c 2
 -124 751 l 1
 -101 730 -107 733 -80 706 c 0
 -71 698 -67 691 -67 683 c 0
 -67 670 -81 660 -91 660 c 1
 -97 659 -102 659 -105 659 c 0
 -196 677 -291 679 -337 679 c 0
 -419 679 -508 674 -583 666 c 0
 -599 663 -611 676 -611 693 c 0
 -611 715 -588 712 -549 754 c 0
 -464 844 -399 854 -354 854 c 0
-530 715 m 1
 -481 723 -422 727 -365 727 c 0
 -273 727 -186 717 -133 706 c 1
 -183 735 -219 801 -340 804 c 0
 -449 804 -473 741 -530 715 c 1
EndSplineSet
Substitution2: "Single Substitution lookup 22 subtable" uni0E35.alt1
Substitution2: "Single Substitution lookup 22 subtable" uni0E35.alt1
EndChar
StartChar: uni0E36
Encoding: 3638 3638 265
Width: 0
VWidth: 1473
Flags: W
HStem: 660 267<-171 -95 -171 -95 -171 -171> 682 48<-520.143 -182.239> 806 51<-431.799 -250.215> 884 43<-208.283 -131.227>
VStem: -253 39<840 876.389> -125 41<802.246 878.145>
Fore
-67 684 m 0x8c
 -67 677 -73 660 -95 660 c 0x8c
 -105 660 -183 682 -336 682 c 0
 -472 682 -586 669 -588 669 c 0
 -608 669 -611 688 -611 694 c 0
 -611 698 -609 703 -604 710 c 1
 -595 719 l 1
 -527 755 -485 857 -340 857 c 0x6c
 -304 856 -281 849 -253 840 c 1
 -253 885 -220 927 -171 927 c 0
 -119 927 -84 885 -84 840 c 0
 -84 795 -112 772 -138 765 c 1
 -80 709 l 2
 -72 703 -67 694 -67 684 c 0x8c
-169 796 m 0
 -143 796 -125 816 -125 840 c 256
 -125 866 -145 884 -169 884 c 0x1c
 -193 884 -214 867 -214 840 c 256
 -214 813 -193 796 -169 796 c 0
-529 717 m 1
 -479 726 -423 730 -364 730 c 0
 -282 730 -201 722 -131 709 c 1
 -181 738 -223 806 -340 806 c 0x6c
 -446 806 -475 745 -529 717 c 1
EndSplineSet
Substitution2: "Single Substitution lookup 22 subtable" uni0E36.alt1
Substitution2: "Single Substitution lookup 22 subtable" uni0E36.alt1
EndChar
StartChar: uni0E37
Encoding: 3639 3639 266
Width: 0
VWidth: 1473
Flags: W
HStem: 658 288<-228 -95 -228 -228> 679 48<-455.979 -199.758> 803 143<-350.248 -217> 803 51<-430.869 -281.083>
VStem: -255 53<837 945.611> -164 54<788 932.207>
Fore
-67 685 m 0x8c
 -67 667 -79 658 -95 658 c 0x8c
 -100 658 -191 679 -336 679 c 0
 -419 679 -506 674 -582 666 c 0
 -599 663 -610 679 -610 690 c 0
 -610 694 -608 700 -603 707 c 1
 -594 716 l 1
 -528 752 -484 854 -340 854 c 0x5c
 -331 854 -304 854 -255 837 c 1
 -255 918 l 2
 -255 935 -244 946 -228 946 c 0
 -212 946 -202 938 -202 915 c 2
 -202 815 l 1
 -182 802 l 2
 -177 799 -171 794 -164 788 c 1
 -164 918 l 2
 -164 935 -153 946 -137 946 c 0
 -115 946 -110 929 -110 915 c 2
 -110 744 l 1
 -78 712 l 2
 -70 705 -67 696 -67 685 c 0x8c
-529 715 m 1
 -479 723 -421 727 -363 727 c 0
 -272 727 -183 717 -131 706 c 1
 -182 736 -222 803 -339 803 c 0x6c
 -446 803 -470 742 -529 715 c 1
EndSplineSet
Substitution2: "Single Substitution lookup 22 subtable" uni0E37.alt1
Substitution2: "Single Substitution lookup 22 subtable" uni0E37.alt1
EndChar
StartChar: uni0E38
Encoding: 3640 3640 267
Width: 0
VWidth: 1473
Flags: W
HStem: -251 55<-201.74 -139.251> -110 51<-223.262 -138.379>
VStem: -282 51<-188.196 -120.052> -122 56<-381.364 -237 -186.585 -120.497>
Fore
-175 -59 m 0
 -113 -59 -66 -95 -66 -153 c 2
 -66 -355 l 2
 -66 -377 -84 -382 -94 -382 c 256
 -111 -382 -122 -371 -122 -355 c 2
 -122 -237 l 1
 -143 -248 -170 -251 -182 -251 c 0
 -203 -251 -226 -242 -252 -224 c 0
 -271 -212 -282 -189 -282 -158 c 0
 -282 -121 -261 -59 -175 -59 c 0
-175 -196 m 0
 -145 -196 -118 -178 -118 -153 c 0
 -118 -119 -156 -110 -175 -110 c 0
 -201 -110 -231 -126 -231 -153 c 0
 -231 -188 -195 -196 -175 -196 c 0
EndSplineSet
Substitution2: "Single Substitution lookup 21 subtable" a
Substitution2: "Single Substitution lookup 22 subtable" uni0E38.alt1
Substitution2: "Single Substitution lookup 21 subtable" a
Substitution2: "Single Substitution lookup 22 subtable" uni0E38.alt1
EndChar
StartChar: uni0E39
Encoding: 3641 3641 268
Width: 0
VWidth: 1473
Flags: W
HStem: -357 298<-373 -190 -373 -190 -373 -373> -357 51<-255.934 -131.601> -250 53<-421.303 -335.308> -110 51<-408.425 -337.001>
VStem: -482 416<-203 -104 -153 -96 -153 -153> -482 52<-187.007 -119.553> -320 55<-293.836 -236.909 -187.501 -119.622> -121 55<-294.783 -96 -96 -81.5948>
Fore
-93 -68 m 256x43
 -71 -68 -66 -86 -66 -96 c 2x48
 -66 -239 l 2
 -66 -292 -91 -357 -190 -357 c 0x81
 -263 -357 -320 -335 -320 -249 c 2
 -320 -236 l 1
 -338 -245 -356 -250 -373 -250 c 0x23
 -434 -250 -482 -203 -482 -153 c 0
 -482 -104 -437 -59 -373 -59 c 0x88
 -331 -59 -264 -78 -264 -153 c 2
 -264 -164 l 2
 -264 -182 -265 -191 -265 -253 c 0
 -265 -285 -251 -306 -190 -306 c 0
 -153 -306 -121 -299 -121 -243 c 2
 -121 -96 l 2
 -121 -79 -108 -68 -93 -68 c 256x43
-373 -197 m 0x34
 -342 -197 -315 -179 -315 -153 c 0
 -315 -118 -358 -110 -373 -110 c 0
 -390 -110 -430 -119 -430 -153 c 0
 -430 -183 -395 -197 -373 -197 c 0x34
EndSplineSet
Substitution2: "Single Substitution lookup 21 subtable" b
Substitution2: "Single Substitution lookup 22 subtable" uni0E39.alt1
Substitution2: "Single Substitution lookup 21 subtable" b
Substitution2: "Single Substitution lookup 22 subtable" uni0E39.alt1
EndChar
StartChar: uni0E3A
Encoding: 3642 3642 269
Width: 0
VWidth: 1473
Flags: W
HStem: -233 108<-180.839 -72.1337>
VStem: -196 139<-217.621 -164.403>
Fore
-127 -125 m 0
 -71 -125 -57 -166 -57 -180 c 0
 -57 -212 -89 -233 -127 -233 c 1
 -127 -233 -196 -229 -196 -180 c 0
 -196 -158 -173 -125 -127 -125 c 0
EndSplineSet
Substitution2: "Single Substitution lookup 21 subtable" c
Substitution2: "Single Substitution lookup 22 subtable" uni0E3A.alt1
Substitution2: "Single Substitution lookup 21 subtable" c
Substitution2: "Single Substitution lookup 22 subtable" uni0E3A.alt1
EndChar
StartChar: uni0E3F
Encoding: 3647 3647 270
Width: 726
VWidth: 1473
Flags: W
HStem: 0 53<210.487 331 386 528.899> 346 55<166.611 331 386 540.003> 661 55<212.637 331 386 517.209> 817 20G<349.5 368>
VStem: 60 56<147.69 562.394> 331 55<-111.389 0 53 346 401 661 716 836.389> 600 56<455.513 588.387> 611 56<121.403 277.03>
Fore
667 199 m 0xfd
 667 40 520 0 433 0 c 2
 386 0 l 1
 386 -72 l 2
 386 -99 377 -112 359 -112 c 0
 340 -112 331 -99 331 -72 c 2
 331 0 l 1
 315 0 l 2
 160 0 60 97 60 240 c 2
 60 486 l 2
 60 651 214 716 299 716 c 2
 331 716 l 1
 331 797 l 2
 331 824 340 837 359 837 c 0
 377 837 386 824 386 797 c 2
 386 716 l 1
 410 716 l 2
 535 716 656 656 656 516 c 256xfe
 656 430 600 386 557 373 c 1
 619 344 667 273 667 199 c 0xfd
299 661 m 2
 191 661 116 574 116 486 c 2
 116 234 l 2
 116 122 201 53 303 53 c 2
 331 53 l 1
 331 346 l 1
 206 346 l 2
 179 346 166 355 166 374 c 0
 166 392 179 401 206 401 c 2
 331 401 l 1
 331 661 l 1
 299 661 l 2
611 199 m 0xfd
 611 287 544 346 458 346 c 2
 386 346 l 1
 386 53 l 1
 433 53 l 2
 584 62 611 141 611 199 c 0xfd
600 516 m 0xfe
 600 574 563 661 408 661 c 2
 386 661 l 1
 386 401 l 1
 460 401 l 2
 554 401 600 465 600 516 c 0xfe
EndSplineSet
EndChar
StartChar: uni0E40
Encoding: 3648 3648 271
Width: 353
VWidth: 1473
Flags: W
HStem: -7 51<173.396 276.712> 136 51<183.337 276.456> 577 20G<131 146.5>
VStem: 109 57<55.07 125.32 174 595.747> 286 50<55.053 124.73>
Fore
225 187 m 0
 299 187 336 135 336 90 c 0
 336 21 273 -7 225 -7 c 0
 186 -7 109 8 109 88 c 2
 109 567 l 2
 109 583 124 597 138 597 c 256
 155 597 166 582 166 567 c 2
 166 174 l 1
 184 183 204 187 225 187 c 0
225 44 m 256
 257 44 286 63 286 90 c 256
 286 117 257 136 225 136 c 256
 193 136 164 117 164 90 c 256
 164 63 193 44 225 44 c 256
EndSplineSet
EndChar
StartChar: uni0E41
Encoding: 3649 3649 272
Width: 642
VWidth: 1473
Flags: W
HStem: -7 51<173.396 276.712 460.959 564.094> 136 51<183.337 276.456 470.486 563.306> 577 20G<131 146.5 417.5 434>
VStem: 109 57<55.07 125.32 174 595.747> 286 50<55.053 124.73> 398 57<55.3914 124.609 174 596.082> 573 52<55.6275 125.348>
Fore
513 187 m 0
 589 187 625 133 625 90 c 0
 625 17 554 -7 513 -7 c 0
 473 -7 398 8 398 88 c 2
 398 567 l 2
 398 582 409 597 426 597 c 256
 442 597 455 584 455 567 c 2
 455 174 l 1
 471 183 490 187 513 187 c 0
225 187 m 0
 299 187 336 135 336 90 c 0
 336 21 273 -7 225 -7 c 0
 186 -7 109 8 109 88 c 2
 109 567 l 2
 109 583 124 597 138 597 c 256
 155 597 166 582 166 567 c 2
 166 174 l 1
 184 183 204 187 225 187 c 0
513 44 m 256
 545 44 573 63 573 90 c 256
 573 117 545 136 513 136 c 256
 481 136 451 117 451 90 c 256
 451 63 481 44 513 44 c 256
225 44 m 256
 257 44 286 63 286 90 c 256
 286 117 257 136 225 136 c 256
 193 136 164 117 164 90 c 256
 164 63 193 44 225 44 c 256
EndSplineSet
EndChar
StartChar: uni0E42
Encoding: 3650 3650 273
Width: 378
VWidth: 1473
Flags: W
HStem: -6 52<213.349 301.131> 137 52<225.639 286.11> 859 52<-40.649 60.545> 875 51<68.1439 139.435> 1050 58<50.7413 276.768>
VStem: -96 54<919.178 983.717> 141 56<54.1007 127.875 175 820.546 820.546 871.578> 309 52<55.6328 126.967>
Fore
-42 941 m 0xef
 -42 933 -39 911 -12 911 c 0xef
 14 911 60 926 93 926 c 0
 177 926 197 889 197 834 c 2
 197 175 l 1
 212 183 227 189 250 189 c 0
 304 189 361 143 361 91 c 0
 361 20 297 -6 250 -6 c 0
 216 -6 141 13 141 91 c 2
 141 810 l 2
 142 818 142 825 142 831 c 0
 142 863 132 875 105 875 c 0xdf
 81.2 875 27.65 859 -14 859 c 0
 -59 859 -96 881 -96 930 c 0
 -96 1028.66 20.9133 1108 162 1108 c 0
 339 1108 421 995 421 972 c 0
 421 958 406 947 391 947 c 0
 382 947 373 951 367 959 c 0
 317 1019 249 1050 171 1050 c 0
 41 1050 -42 987 -42 941 c 0xef
250 46 m 0
 282 46 309 64 309 91 c 0
 309 128 270 137 250 137 c 256
 231 137 193 128 193 91 c 0
 193 51 234 46 250 46 c 0
EndSplineSet
EndChar
StartChar: uni0E43
Encoding: 3651 3651 274
Width: 378
VWidth: 1473
Flags: W
HStem: -7 51<212.202 299.578> 136 51<223.404 284.776> 836 47<-41.2401 59.4974> 975 40<-6.1167 62.572> 1058 48<35.1491 262.671>
VStem: -100 51<892.625 961.612> 71 51<896.738 965.107> 137 56<53.7831 125.531 174 780.353> 309 50<55.3435 124.836> 326 52<924.834 1007.15>
Fore
-100 928 m 0xff40
 -100 1030 17 1106 141 1106 c 0
 328 1106 378 1017 378 958 c 0xff40
 378 936 366 888 305 846 c 2
 261 816 l 2
 216 789 193 765 193 731 c 2
 193 174 l 1
 208 182 227 187 249 187 c 0
 321 187 359 136 359 89 c 0xff80
 359 17 289 -7 249 -7 c 256
 214 -7 137 12 137 88 c 2
 137 731 l 2
 137 783 167 821 233 862 c 2
 273 888 l 2
 311 914 326 938 326 960 c 0
 326 1013 254 1058 156 1058 c 0
 76 1058 14 1033 -7 1012 c 1
 5 1014 16 1015 26 1015 c 0
 81 1015 122 981 122 930 c 0
 122 872 61 836 5 836 c 0
 -44 836 -100 864 -100 928 c 0xff40
71 930 m 0
 71 957 44 975 14 975 c 0
 -28 975 -49 947 -49 927 c 0
 -49 901 -23 883 6 883 c 0
 47 883 71 911 71 930 c 0
249 44 m 0
 281 44 309 63 309 90 c 0xff80
 309 127 266 136 249 136 c 256
 232 136 189 127 189 90 c 0
 189 53 229 44 249 44 c 0
EndSplineSet
EndChar
StartChar: uni0E44
Encoding: 3652 3652 275
Width: 378
VWidth: 1473
Flags: W
HStem: -10 51<210.38 299.013> 133 51<206.894 283.953> 846 21G<69.5 85> 1027 51<-151.111 -60.8452 166.334 278.618>
VStem: 52 56<872 877.5 877.5 939.177> 136 53<50.3968 125.11 171 776.85> 308 51<52.1054 121.519> 323 54<898.18 983.782>
Fore
222 1081 m 0xfd
 326 1081 377 992 377 899 c 0xfd
 377 873 356 855 304 833 c 2
 271 818 l 2
 211 784 192 766 192 734 c 2
 193 171 l 1
 208 179 225 184 247 184 c 0
 337 184 359 118 359 87 c 0xfe
 359 12 283 -10 247 -10 c 0
 180 -10 136 42 136 87 c 2
 136 734 l 2
 136 837 250 861 313 899 c 0
 320 903 323 906 323 907 c 0
 323 983 272 1033 224 1033 c 0
 154 1033 107 952 107 884 c 0
 107 880 108 875 108 871 c 0
 108 851 93 846 77 846 c 0
 62 846 54 855 52 872 c 0
 52 962 -51 1027 -131 1027 c 0
 -150 1027 -168 1028 -168 1049 c 0
 -168 1074 -150 1078 -120 1078 c 0
 -32 1078 36 1025 72 971 c 1
 105 1044 155 1081 222 1081 c 0xfd
247 41 m 0
 280 41 308 59 308 87 c 0xfe
 308 124 263 133 247 133 c 0
 220 133 189 124 189 87 c 0
 189 49 229 41 247 41 c 0
EndSplineSet
EndChar
StartChar: uni0E45
Encoding: 3653 3653 276
Width: 565
VWidth: 1473
Flags: W
HStem: 547 57<177.981 360.595>
VStem: 440 58<-253.747 476.452>
Fore
273 604 m 256
 373 604 498 532 498 407 c 2
 498 -225 l 2
 498 -240 487 -255 470 -255 c 256
 453 -255 440 -240 440 -225 c 2
 440 407 l 2
 440 509 338 547 273 547 c 0
 187 547 118 499 102 457 c 0
 89 427 46 432 46 467 c 0
 46 501 124 604 273 604 c 256
EndSplineSet
EndChar
StartChar: uni0E46
Encoding: 3654 3654 277
Width: 640
VWidth: 1473
Flags: W
HStem: 362 52<124.396 199.472> 548 48<158.111 276.338 383.669 488.375>
VStem: 56 52<421.024 480.044> 203 52<419.878 480.611> 511 58<-247.609 523.435>
Fore
440 603 m 0
 481 603 569 582 569 445 c 2
 569 -220 l 2
 569 -235 555 -249 541 -249 c 256
 525 -249 511 -234 511 -220 c 2
 511 445 l 2
 511 529 472 547 439 547 c 0
 407 547 374 523 367 505 c 1
 367 499 383 483 383 473 c 0
 383 450 353 445 346 445 c 0
 320 445 336 470 298 508 c 0
 291 515 260 548 202 548 c 0
 186 548 170 545 156 538 c 1
 203 538 255 506 255 449 c 0
 255 398 207 362 156 362 c 256
 120 362 56 382 56 460 c 0
 56 548 144 596 222 596 c 0
 261 596 301 586 333 557 c 1
 363 588 408 603 440 603 c 0
156 414 m 0
 180 414 203 429 203 449 c 0
 203 479 171 486 156 486 c 256
 141 486 108 479 108 449 c 0
 108 421 143 414 156 414 c 0
EndSplineSet
EndChar
StartChar: uni0E47
Encoding: 3655 3655 278
Width: 0
VWidth: 1473
Flags: W
HStem: 659 389<-220 -97 -220 -97 -97 -97> 659 53<-258.37 -147.448> 782 49<-220.852 -158.685>
VStem: -573 57<738.614 844.584> -278 44<723.353 777.238> -144 49<717.158 776.904>
Fore
-97 1048 m 0x9c
 -88 1048 -67 1042 -67 1018 c 0
 -67 967 -181 927 -401 890 c 0
 -503 872 -516 815 -516 795 c 0
 -516 770 -501 727 -464 722 c 1
 -396 826 l 2
 -377 856 -333 827 -346 801 c 1
 -355 788 l 1
 -343 759 -298 720 -258 710 c 1
 -271 718 -278 732 -278 752 c 0
 -278 785 -251 831 -193 831 c 0x3c
 -137 831 -95 790 -95 744 c 0
 -95 693 -151 659 -220 659 c 0
 -248 659 -327 664 -385 745 c 1
 -438 669 l 1
 -448 667 -457 666 -466 666 c 0
 -540 666 -573 744 -573 792 c 0
 -573 823 -560 918 -410 946 c 0
 -330 959 -161 991 -121 1031 c 1
 -115 1045 -104 1048 -97 1048 c 0x9c
-190 712 m 0x7c
 -165 712 -144 726 -144 747 c 0
 -144 775 -175 782 -190 782 c 256
 -206 782 -234 776 -234 747 c 256
 -234 718 -206 712 -190 712 c 0x7c
EndSplineSet
Substitution2: "Single Substitution lookup 22 subtable" uni0E47.alt1
Substitution2: "Single Substitution lookup 22 subtable" uni0E47.alt1
EndChar
StartChar: uni0E48
Encoding: 3656 3656 279
Width: 0
VWidth: 1473
Flags: W
HStem: 983 196<-168.155 -122.908>
VStem: -186 64<984.751 1177.25 1011 1151 1011 1011>
Fore
-155 1179 m 0
 -137 1179 -122 1166 -122 1151 c 2
 -122 1011 l 2
 -122 994 -138 983 -155 983 c 0
 -171 983 -186 996 -186 1011 c 2
 -186 1151 l 2
 -186 1168 -167 1179 -155 1179 c 0
EndSplineSet
Substitution2: "Single Substitution lookup 22 subtable" uni0E48.alt2
Substitution2: "Single Substitution lookup 22 subtable" uni0E48.alt2
EndChar
StartChar: uni0E49
Encoding: 3657 3657 280
Width: 0
VWidth: 1473
Flags: W
HStem: 966 273<-280 69 297 299> 1071 37<-232.052 -178.397> 1182 41<-239.288 -160.227>
VStem: -289 44<1112.68 1166.09> -156 46<1117.54 1176.7> 44 47<1139.81 1218.94>
Fore
-166 1036 m 1x7c
 -39 1056 32 1131 44 1212 c 1
 43 1228 56 1239 69 1239 c 0
 82 1238 89 1229 91 1214 c 1
 73 1044 -89 997 -280 966 c 0
 -286 966 l 0x9c
 -299 966 -307 972 -309 984 c 1
 -309 1026 -244 1002 -208 1040 c 2
 -177 1075 l 1
 -188 1072 -198 1071 -208 1071 c 0
 -237 1071 -289 1085 -289 1144 c 0
 -289 1185 -251 1223 -198 1223 c 0
 -156 1223 -110 1191 -110 1145 c 0
 -110 1130 -113 1077 -166 1036 c 1x7c
-197 1108 m 0x7c
 -175 1108 -156 1123 -156 1146 c 0
 -156 1166 -177 1182 -198 1182 c 0
 -240 1182 -245 1150 -245 1140 c 0
 -245 1110 -208 1108 -197 1108 c 0x7c
EndSplineSet
Substitution2: "Single Substitution lookup 22 subtable" uni0E49.alt2
Substitution2: "Single Substitution lookup 22 subtable" uni0E49.alt2
EndChar
StartChar: uni0E4A
Encoding: 3658 3658 281
Width: 0
VWidth: 1473
Flags: W
HStem: 986 260<-306 16 -23.9194 53.4455> 986 33<-340.652 -272.702> 1084 36<-337.452 -281.286> 1152 44<-334.333 -238.368 -161.919 -84.5545>
VStem: -392 431<1079 1225 1079 1225 1079 1079> -392 49<1022.17 1111.74> -270 39<1022.71 1080.74>
Fore
16 1246 m 0x88
 23 1246 39 1238 39 1225 c 0
 39 1204 -31 1045 -74 999 c 0
 -87 986 -114 990 -114 1012 c 0
 -114 1021 -110 1030 -106 1036 c 2
 -99 1044 l 2
 -75 1080 -75 1090 -75 1102 c 0
 -75 1119 -93 1149 -120 1149 c 0
 -161 1149 -165 1123 -165 1114 c 2
 -165 1103 l 2
 -165 1090 -171 1082 -183 1080 c 1
 -222 1080 -194 1116 -234 1139 c 0
 -251 1149 -265 1152 -284 1152 c 0
 -314 1152 -336 1134 -346 1111 c 1
 -336 1117 -323 1120 -306 1120 c 0x38
 -263 1120 -231 1090 -231 1052 c 0
 -231 1012 -263 986 -306 986 c 0x82
 -378 986 -392 1048 -392 1079 c 0
 -392 1158 -334 1196 -283 1196 c 0x18
 -227 1196 -196 1167 -190 1161 c 1
 -175 1182 -149 1193 -122 1193 c 0
 -88 1193 -54 1173 -47 1128 c 1
 5 1225 -7 1246 16 1246 c 0x88
-306 1019 m 0x66
 -287 1019 -270 1035 -270 1052 c 0
 -270 1078 -295 1084 -306 1084 c 0
 -330 1084 -343 1074 -343 1053 c 0
 -343 1034 -328 1019 -306 1019 c 0x66
EndSplineSet
Substitution2: "Single Substitution lookup 22 subtable" uni0E4A.alt2
Substitution2: "Single Substitution lookup 22 subtable" uni0E4A.alt2
EndChar
StartChar: uni0E4B
Encoding: 3659 3659 282
Width: 0
VWidth: 1473
Flags: W
HStem: 991 232<-182.68 -129.32> 1084 50<-283.894 -184 -128 -28.1057>
VStem: -284 256<1084.38 1133.62> -184 56<991.676 1084 1134 1222.32>
Fore
-156 1223 m 256x90
 -139 1223 -128 1208 -128 1192 c 2
 -128 1134 l 1x50
 -56 1134 l 2
 -37 1134 -28 1126 -28 1109 c 256x60
 -28 1092 -37 1084 -56 1084 c 2
 -128 1084 l 1x50
 -128 1022 l 2
 -128 1006 -139 991 -156 991 c 256x90
 -173 991 -184 1006 -184 1022 c 2
 -184 1084 l 1x50
 -256 1084 l 2
 -275 1084 -284 1092 -284 1109 c 256x60
 -284 1126 -275 1134 -256 1134 c 2
 -184 1134 l 1x50
 -184 1192 l 2
 -184 1208 -173 1223 -156 1223 c 256x90
EndSplineSet
Substitution2: "Single Substitution lookup 22 subtable" uni0E4B.alt2
Substitution2: "Single Substitution lookup 22 subtable" uni0E4B.alt2
EndChar
StartChar: uni0E4C
Encoding: 3660 3660 283
Width: 0
VWidth: 1473
Flags: W
HStem: 919 37<-258.379 -184.551> 1049 117<-174 -69>
VStem: -306 44<966.145 1019.7> -181 44<960.153 1020.05>
Fore
-45 1142 m 0
 -45 1124 -100 1051 -174 1049 c 1
 -155 1037 -137 1018 -137 989 c 0
 -137 950 -176 919 -221 919 c 0
 -299 919 -306 976 -306 990 c 0
 -306 1013 -299 1029 -285 1048 c 0
 -252 1091 -185 1067 -132 1105 c 0
 -80 1141 -90 1166 -69 1166 c 0
 -58 1166 -45 1156 -45 1142 c 0
-221 956 m 256
 -200 956 -181 972 -181 990 c 0
 -181 1010 -199 1024 -221 1024 c 256
 -242 1024 -262 1010 -262 990 c 0
 -262 972 -242 956 -221 956 c 256
EndSplineSet
Substitution2: "Single Substitution lookup 22 subtable" uni0E4C.alt2
Substitution2: "Single Substitution lookup 22 subtable" uni0E4C.alt2
EndChar
StartChar: uni0E4D
Encoding: 3661 3661 284
Width: 0
VWidth: 1473
Flags: W
HStem: 672 51<-214.927 -103.218> 831 51<-212.362 -104.274>
VStem: -280 52<738.276 815.808> -90 52<737.51 803.246>
Fore
-159 882 m 0
 -74 882 -38 824 -38 776 c 0
 -38 713 -91 672 -159 672 c 0
 -211 672 -280 703 -280 776 c 0
 -280 837 -226 882 -159 882 c 0
-159 723 m 1
 -122 723 -90 745 -90 776 c 0
 -90 787 -100 831 -159 831 c 0
 -206 831 -228 798 -228 776 c 0
 -228 726 -159 723 -159 723 c 1
EndSplineSet
Substitution2: "Single Substitution lookup 22 subtable" uni0E4D.alt1
Substitution2: "Single Substitution lookup 22 subtable" uni0E4D.alt1
EndChar
StartChar: uni0E4E
Encoding: 3662 3662 285
Width: 0
VWidth: 1473
Flags: W
HStem: 650 37<-241.214 -167.921 -173.155 -162.687 -162.687 -152> 966 23<-128.776 -57.7216>
VStem: -311 62<697.578 773.925> -224 57<844.459 932.517>
Fore
-224 894 m 0
 -224 951 -173 989 -99 989 c 0
 -89 989 -39 989 -39 973 c 0
 -39 971 -40 969 -43 966 c 1
 -114 965 -167 934 -167 886 c 0
 -167 856 -149 843 -127 837 c 1
 -119 837 -110 829 -110 818 c 256
 -110 805 -122 801 -133 800 c 0
 -208 797 -249 772 -249 731 c 0
 -249 704 -222 687 -175 687 c 0
 -160 687 -149 687 -140 688 c 1
 -152 654 l 1
 -175 651 -194 650 -211 650 c 0
 -274 653 -311 684 -311 728 c 0
 -311 783 -266 820 -187 828 c 1
 -212 845 -224 867 -224 894 c 0
EndSplineSet
Substitution2: "Single Substitution lookup 22 subtable" uni0E4E.alt1
Substitution2: "Single Substitution lookup 22 subtable" uni0E4E.alt1
EndChar
StartChar: uni0E4F
Encoding: 3663 3663 286
Width: 662
VWidth: 1473
Flags: W
HStem: -4 50<243.871 420.065> 97 53<271.475 392.284> 339 51<271.938 390.409> 442 52<241.422 421.55>
VStem: 82 52<157.047 334.672> 186 51<183.535 303.335> 426 51<183.5 304.555> 529 51<155.836 336.311>
Fore
331 150 m 256
 387 150 426 193 426 245 c 0
 426 294 387 339 331 339 c 256
 277 339 237 295 237 245 c 0
 237 190 280 150 331 150 c 256
331 390 m 256
 416 390 477 323 477 245 c 256
 477 163 413 97 331 97 c 256
 251 97 186 162 186 245 c 256
 186 328 252 390 331 390 c 256
331 46 m 0
 445 46 529 138 529 245 c 0
 529 358 441 442 331 442 c 0
 224 442 134 358 134 245 c 256
 134 130 225 46 331 46 c 0
331 -4 m 256
 193 -4 82 103 82 245 c 256
 82 388 196 494 331 494 c 0
 467 494 580 382 580 245 c 0
 580 99 466 -4 331 -4 c 256
EndSplineSet
EndChar
StartChar: uni0E50
Encoding: 3664 3664 287
Width: 695
VWidth: 1473
Flags: W
HStem: -7 48<231.231 471> 398 50<236.446 462.451>
VStem: 62 57<137.168 299.394> 573 56<132.227 300.98>
Fore
345 448 m 0
 476 448 629 380 629 221 c 0
 629 56 496 -7 345 -7 c 0
 213 -7 62 63 62 221 c 0
 62 376 204 448 345 448 c 0
346 41 m 0
 455 41 573 77 573 220 c 256
 573 346 457 398 346 398 c 256
 242 398 119 342 119 220 c 0
 119 94 234 41 346 41 c 0
EndSplineSet
EndChar
StartChar: uni0E51
Encoding: 3665 3665 288
Width: 720
VWidth: 1473
Flags: W
HStem: 17 45<200.609 342.053> 76 42<309.728 357.091 354 360.182> 214 53<298.216 400.174> 387 55<245.62 470.412>
VStem: 76 55<132.121 287.603> 231 55<128.478 200.596> 411 57<129.477 201.99> 591 53<94.7246 277.588>
Fore
348 118 m 0
 381 118 411 136 411 165 c 256
 411 194 382 214 348 214 c 0
 317 214 286 191 286 165 c 0
 286 126 330 118 348 118 c 0
76 205 m 0
 76 347 202 442 357 442 c 0
 522 442 644 340 644 187 c 0
 644 -1 466 -72 450 -72 c 0
 425 -72 410 -32 440 -21 c 0
 491 1 591 62 591 187 c 0
 591 323 477 387 357 387 c 0
 230 387 131 315 131 210 c 0
 131 156 162 62 290 62 c 0
 316 62 340 67 361 77 c 1
 356 77 352 76 347 76 c 0
 285 76 231 112 231 165 c 0
 231 228 291 267 348 267 c 0
 413 267 468 221 468 159 c 0
 468 65 362 17 277 17 c 0
 172 17 76 85 76 205 c 0
EndSplineSet
EndChar
StartChar: uni0E52
Encoding: 3666 3666 289
Width: 836
VWidth: 1473
Flags: W
HStem: 0 53<147 655.217> 94 52<297.425 387.142> 237 52<296.664 375.314> 389 54<300.099 415.748 571.113 661.878>
VStem: 93 54<53 72.8626 72.8626 80.7001 76.7813 309.168> 203 53<259 341.044> 396 52<157.21 227.443> 466 53<255.461 281 281 300> 704 54<114.632 338.753>
Fore
336 146 m 0
 368 146 396 164 396 192 c 0
 396 230 356 237 336 237 c 256
 315 237 275 229 275 192 c 256
 275 153 315 146 336 146 c 0
758 232 m 0
 758 109 702 -0 618 -0 c 2
 121 0 l 2
 110 0 93 12 93 37 c 0
 93 43 94 60 94 94 c 0
 94 531 -13 637 -13 658 c 0
 -13 670 -2 686 14 686 c 0
 23 686 32 681 37 673 c 0
 149 488 148 168 148 109 c 0
 148 84 148 65 147 53 c 1
 611 53 l 2
 667 53 704 135 704 230 c 0
 704 305.185 684.053 389 602 389 c 0
 578.362 389 519 377.5 519 300 c 2
 519 283 l 2
 519 266 508 255 492 255 c 256
 476 255 466 265 466 281 c 0
 460 387 394 389 368 389 c 0
 278 389 256 311 256 259 c 1
 279 279 305 289 336 289 c 0
 382 289 448 255 448 192 c 0
 448 125 386 94 336 94 c 0
 249 94 203 164 203 259 c 0
 203 361 261 443 376 443 c 0
 458 434 482 402 491 389 c 1
 534 440 569 443 600 443 c 0
 727 443 758 319 758 232 c 0
EndSplineSet
EndChar
StartChar: uni0E53
Encoding: 3667 3667 290
Width: 817
VWidth: 1473
Flags: W
HStem: -7 51<199.885 288.627> 136 51<199.47 275.101> 395 54<198.595 337.154 520.019 633.071>
VStem: 70 51<144.846 309.218> 298 51<55.4243 125.488> 419 54<99.608 258.633> 688 54<85.7931 303.685>
Fore
237 -7 m 0
 103 -7 70 144 70 218 c 0
 70 346 151 449 272 449 c 0
 333 449 389 417 424 364 c 1
 437 392 480 449 565 449 c 0
 617 449 696 424 725 333 c 0
 736 299 742 265 742 231 c 0
 742 124 711 33 692 9 c 0
 677 -10 631 -5 638 20 c 0
 643 34 688 97 688 226 c 0
 688 368 611 395 569 395 c 0
 551 395 464 385 454 303 c 1
 472 250 473 177 473 163 c 0
 473 136 471 108 467 78 c 0
 464 43 408 49 414 84 c 0
 417 111 419 137 419 161 c 0
 419 350 329 395 269 395 c 0
 180 395 121 313 121 211 c 0
 121 192 124 150 140 116 c 1
 149 175 209 187 237 187 c 0
 285 187 349 152 349 90 c 0
 349 23 284 -7 237 -7 c 0
237 44 m 0
 269 44 298 63 298 90 c 0
 298 128 257 136 237 136 c 256
 219 136 177 128 177 90 c 256
 177 51 221 44 237 44 c 0
EndSplineSet
EndChar
StartChar: uni0E54
Encoding: 3668 3668 291
Width: 748
VWidth: 1473
Flags: W
HStem: 0 50<199.445 498 556.501 692.766> 160 43<401.689 460.3> 295 51<384.629 473.396>
VStem: 65 53<130.357 285.132> 305 57<212.943 284.894> 483 52<212.896 283.653>
Fore
535 249 m 0
 535 191 483 160 433 160 c 0
 421 160 410 162 398 165 c 1
 428 135 544 70 628 56 c 1
 678 55 l 2
 703 55 707 23 696 6 c 1
 692 2 687 -0 678 0 c 2
 280 0 l 2
 155 0 65 97 65 205 c 0
 65 351 188 420 292 449 c 0
 753 581 684 667 730 667 c 0
 742 667 757 656 757 640 c 0
 757 595 625 490 348 412 c 2
 305 399 l 2
 135 352 118 245 118 206 c 0
 118 128 183 50 280 50 c 2
 498 50 l 1
 399 95 305 158 305 245 c 0
 309 306 359 346 423 346 c 0
 478 346 532 310 535 249 c 0
423 203 m 256
 441 203 483 211 483 249 c 0
 483 276 455 295 423 295 c 0
 403 295 362 287 362 249 c 256
 362 211 403 203 423 203 c 256
EndSplineSet
EndChar
StartChar: uni0E55
Encoding: 3669 3669 292
Width: 748
VWidth: 1473
Flags: W
HStem: 0 50<199.445 498 569.516 692.766> 160 43<401.689 460.3> 295 51<384.629 473.396> 575 45<298.335 381.244>
VStem: 65 53<130.338 285.987> 237 49<487.499 563.108> 305 57<212.943 284.894> 393 45<495.122 562.619> 483 52<212.896 283.653>
Fore
340 620 m 0
 382 620 438 592 438 527 c 0
 438 512 436 500 432 491 c 1
 465 502 664 575 706 651 c 0
 711 664 725 667 730 667 c 0
 742 667 757 656 757 640 c 0
 757 595 625 490 348 412 c 2
 305 399 l 2
 135 352 118 245 118 206 c 0
 118 128 183 50 280 50 c 2
 498 50 l 1
 399 95 305 158 305 245 c 0
 309 306 359 346 423 346 c 0
 478 346 532 310 535 249 c 0
 535 191 483 160 433 160 c 0
 421 160 410 162 398 165 c 1
 428 135 544 70 628 56 c 1
 678 55 l 2
 703 55 707 23 696 6 c 1
 692 2 687 -0 678 0 c 2
 280 0 l 2
 154 0 65 98 65 204 c 0
 65 301 121 408 283 446 c 1
 242 469 237 503 237 522 c 0
 237 577 287 620 340 620 c 0
339 468 m 0
 367 468 393 490 393 522 c 256
 393 552 365 575 339 575 c 256
 310 575 286 548 286 522 c 0
 286 490 311 468 339 468 c 0
423 203 m 256
 441 203 483 211 483 249 c 0
 483 276 455 295 423 295 c 0
 403 295 362 287 362 249 c 256
 362 211 403 203 423 203 c 256
EndSplineSet
EndChar
StartChar: uni0E56
Encoding: 3670 3670 293
Width: 643
VWidth: 1473
Flags: W
HStem: -12 78<173.37 271.64> 158 51<188.314 276.679> 402 53<243.834 415.206>
VStem: 108 57<77.3481 147.174> 286 51<75.6766 147.263> 517 55<152.861 311.561>
Fore
337 106 m 0
 337 65 308 35 268 32 c 1
 364 32 517 92 517 236 c 0
 517 336 423 402 314 402 c 0
 225 402 176 359 166 352 c 1
 149 336 133 343 124 355 c 0
 83 406 7 573 -24 648 c 0
 -25 652 -26 656 -26 659 c 0
 -26 681 -6 687 3 687 c 0
 13 687 20 681 25 669 c 2
 94 516 l 2
 117 467 136 431 152 408 c 1
 206 446 281 455 321 455 c 0
 455 455 572 368 572 238 c 0
 572 175 540 13 320 -10 c 0
 307 -11 294 -12 282 -12 c 0
 208 -12 108 12 108 108 c 0
 111 173 166 209 225 209 c 0
 267 209 337 184 337 106 c 0
225 66 m 256
 245 66 286 74 286 112 c 0
 286 139 257 158 225 158 c 0
 207 158 165 150 165 112 c 256
 165 73 209 66 225 66 c 256
EndSplineSet
EndChar
StartChar: uni0E57
Encoding: 3671 3671 294
Width: 850
VWidth: 1473
Flags: W
HStem: -9 52<204.826 293.587> 134 52<215.731 279.268> 393 53<202.845 325.069 473.224 603.061>
VStem: 74 51<141.124 307.331> 302 52<54.1839 123.536> 379 54<236.582 341.603> 656 50<177.199 333.418>
Fore
242 43 m 0
 274 43 302 61 302 88 c 0
 302 127 258 134 242 134 c 256
 222 134 181 126 181 88 c 256
 181 51 222 43 242 43 c 0
537 447 m 0
 673 447 706 328 706 229 c 0
 706 210 705 191 701 171 c 1
 721 184 752.391 316.746 753 324 c 0
 755.015 347.996 803 599 930 681 c 1
 935 683 940 684 944 684 c 0
 959 684 969 668 969 657 c 0
 969 628 895 658 824 390 c 0
 785 244 774 159 660 9 c 0
 645 -10 637 -8 622 0 c 0
 578 21 656 51 656 228 c 0
 656 304 632 396 534 396 c 0
 453 396 433 317 433 262 c 0
 433 246 423 236 407 236 c 256
 396 236 379 241 379 263 c 0
 379 360 310 393 264 393 c 0
 181 393 125 306 125 207 c 0
 125 171 132 139 144 115 c 1
 153 175 217 186 242 186 c 0
 288 186 354 152 354 87 c 0
 354 25 294 -9 242 -9 c 0
 125 -9 74 113 74 212 c 0
 74 343 150 446 265 446 c 0
 349 446 383 407 405 371 c 1
 445 440 499 447 537 447 c 0
EndSplineSet
EndChar
StartChar: uni0E58
Encoding: 3672 3672 295
Width: 820
VWidth: 1473
Flags: W
HStem: -6 47<503.771 623.483> 56 38<616.201 640.5> 190 53<588.692 692.999>
VStem: 72 53<130.251 286.353> 523 54<105.243 176.932> 703 57<106.392 178.036>
Fore
639 94 m 0
 671 94 703 113 703 141 c 256
 703 171 674 190 639 190 c 0
 609 190 577 168 577 141 c 0
 577 103 620 94 639 94 c 0
640 243 m 0
 736 243 760 175 760 135 c 0
 760 57 670 -6 564 -6 c 0
 526 -6 423 3 362 106 c 1
 303 -1 l 1
 293 -1 l 2
 141 -1 72 117 72 211 c 0
 72 394 269 427 352 451 c 0
 537 505 720 581 748 642 c 0
 751 649 759 658 771 658 c 0
 778 658 799 652 799 630 c 0
 799 596 719 521 560 462 c 0
 525 449 490 437 456 426 c 2
 364 398 l 2
 294 377 125 349 125 210 c 0
 125 145 168 63 271 53 c 1
 367 237 l 2
 372 250 389 254 402 249 c 1
 413 242 423 227 414 212 c 2
 392 171 l 1
 429 65 526 41 575 41 c 0
 601 41 629 48 641 56 c 1
 631 56 l 2
 567 56 523 98 523 141 c 0
 523 193 568 243 640 243 c 0
EndSplineSet
EndChar
StartChar: uni0E59
Encoding: 3673 3673 296
Width: 822
VWidth: 1473
Flags: W
HStem: -8 58<270.421 342.943> 146 53<258.484 360.565> 377 54<196.496 367.71> 392 55<548.848 666.058>
VStem: 68 56<131.972 306.194> 193 53<71.3513 132.22> 371 53<61.8517 133.699> 530 55<-1.40521 97.5823> 907 55<557.238 673.08>
Fore
611 447 m 0xdf80
 658 447 714 433 740 364 c 1
 802 416 907 543 907 636 c 0
 907 647 899 686 934 686 c 0
 951 686 962 678 962 632 c 0
 962 504 817 341 737 284 c 1
 731 282 726 281 721 281 c 0
 707 281 699 291 698 312 c 0
 690 361 655 392 599 392 c 0xdf80
 550 392 523 348 520 284 c 1
 576 194 585 90 585 12 c 0
 585 -10 567 -15 557 -15 c 256
 535 -15 530 3 530 13 c 0
 530 45 541 257 382 348 c 0
 355 363 321 377 281 377 c 0
 155 377 124 280 124 222 c 0
 124 156 162 81 211 56 c 1
 199 71 193 87 193 103 c 0
 193 156 249 199 304 199 c 0
 400 199 424 131 424 90 c 0
 424 66 414 40 377 13 c 0
 362 3 323 -8 289 -8 c 0
 143 -8 68 123 68 228 c 0
 68 318 131 431 286 431 c 0xef80
 342 431 419 401 474 343 c 1
 490 400 529 447 611 447 c 0xdf80
308 50 m 0
 340 50 371 69 371 97 c 256
 371 126 342 146 308 146 c 0
 277 146 246 123 246 97 c 0
 246 59 288 50 308 50 c 0
EndSplineSet
EndChar
StartChar: uni0E5A
Encoding: 3674 3674 297
Width: 907
VWidth: 1473
Flags: W
HStem: 0 21G<563.5 579.5 797.5 814.5> 364 49<251.556 414.718 601 653.164> 546 52<150.121 250.097>
VStem: 87 51<463.575 532.927> 259 52<466.143 536.185> 544 57<1.24811 368 420 455> 778 57<1.0376 455>
Fore
778 455 m 1
 760 435 713 387 601 368 c 1
 601 29 l 2
 601 15 587 0 572 0 c 256
 555 0 544 15 544 29 c 2
 544 455 l 1
 481 388 378 364 304 364 c 0
 229 364 87 390 87 492 c 0
 87 569 156 598 205 598 c 0
 265 598 311 553 311 505 c 0
 311 481 297 434 247 418 c 1
 262 415 280 413 302 413 c 0
 381 413 508 444 554 579 c 0
 558 593 570 597 577 597 c 0
 590 597 605 586 606 579 c 1
 608 573 606 564 601 552 c 1
 601 420 l 1
 654 431 747 459 788 579 c 0
 792 593 804 597 811 597 c 0
 820 597 842 589 842 576 c 0
 842 570 839 562 835 552 c 1
 835 29 l 2
 835 15 823 0 806 0 c 256
 789 0 778 15 778 29 c 2
 778 455 l 1
259 501 m 0
 259 529 231 546 203 546 c 0
 175 546 138 529 138 497 c 0
 138 462 176 453 195 453 c 0
 233 453 259 478 259 501 c 0
EndSplineSet
EndChar
StartChar: uni0E5B
Encoding: 3675 3675 298
Width: 1359
VWidth: 1473
Flags: W
HStem: 37 53<236.864 423.208> 200 58<270.756 342.982> 280 23<1178.08 1230.88> 383 55<272.121 343.911> 542 56<217.59 363.721>
VStem: 80 57<195.727 440.191> 206 53<268.655 371.396> 355 42<304.64 358.83> 418 49<350.62 459.727>
Fore
137 307 m 0
 137 133 252 90 326 90 c 0
 465 90 542 196 558 328 c 0
 565 380 568 418 568 441 c 0
 568 450 568 456 567 461 c 1
 642 444 689 380 709 271 c 1
 737 308 763 396 763 440 c 0
 763 449 l 1
 813 430 852 377 880 292 c 1
 897 309 919 383 925 433 c 1
 981 414 1019 363 1039 278 c 1
 1077 343 1079 387 1080 399 c 1
 1089 398 1112 381 1149 346 c 0
 1181 317 1215 303 1253 303 c 0
 1260 303 1267 304 1274 305 c 1
 1251 288 1228 280 1205 280 c 0
 1199 280 l 0
 1162 280 1131 298 1106 333 c 1
 1091 274 1064 238 1025 224 c 1
 993 234 991 319 956 361 c 1
 941 285 911 236 865 214 c 1
 839 214 844 299 796 357 c 1
 760 214 711 192 689 192 c 0
 652 192 667 325 613 359 c 1
 596 148 501 41 326 37 c 0
 177 38 80 144 80 309 c 0
 80 544 201 598 286 598 c 0
 368 598 467 560 467 408 c 0
 467 295 403 200 308 200 c 0
 267 200 206 243 206 321 c 0
 206 384 250 438 308 438 c 0
 363 438 397 396 397 337 c 0
 397 332 397 327 396 321 c 1
 412 353 418 388 418 411 c 0
 418 437 402 542 289 542 c 0
 228 542 137 500 137 307 c 0
259 321 m 0
 259 287 279 258 308 258 c 256
 337 258 355 288 355 321 c 0
 355 339 347 383 308 383 c 0
 284 383 259 356 259 321 c 0
EndSplineSet
EndChar
StartChar: zerowidthnonjoiner
Encoding: 8204 8204 299
Width: 0
VWidth: 1473
Flags: W
VStem: -25 52<-454 354>
Fore
27 -454 m 1
 -25 -454 l 1
 -25 354 l 1
 27 354 l 1
 27 -454 l 1
EndSplineSet
EndChar
StartChar: zerowidthjoiner
Encoding: 8205 8205 300
Width: 0
VWidth: 1473
Flags: W
VStem: -25 52<-454 221>
Fore
27 -454 m 1
 -25 -454 l 1
 -25 221 l 1
 -55 190 l 1
 -81 215 l 1
 -25 271 l 1
 -81 329 l 1
 -55 354 l 1
 0 298 l 1
 56 354 l 1
 82 329 l 1
 27 271 l 1
 82 215 l 1
 56 190 l 1
 27 221 l 1
 27 -454 l 1
EndSplineSet
EndChar
StartChar: lefttorightmark
Encoding: 8206 8206 301
Width: 0
VWidth: 1473
Flags: W
HStem: 247 54<27 172>
VStem: -25 52<-454 247>
Fore
27 -454 m 1
 -25 -454 l 1
 -25 301 l 1
 172 301 l 1
 147 327 l 1
 171 352 l 1
 249 274 l 1
 171 196 l 1
 147 222 l 1
 172 247 l 1
 27 247 l 1
 27 -454 l 1
EndSplineSet
EndChar
StartChar: righttoleftmark
Encoding: 8207 8207 302
Width: 0
VWidth: 1473
Flags: W
HStem: 247 54<-171 -25>
VStem: -25 52<-454 247>
Fore
27 -454 m 1
 -25 -454 l 1
 -25 247 l 1
 -171 247 l 1
 -146 222 l 1
 -169 196 l 1
 -247 274 l 1
 -169 352 l 1
 -146 327 l 1
 -171 301 l 1
 27 301 l 1
 27 -454 l 1
EndSplineSet
EndChar
StartChar: endash
Encoding: 8211 8211 303
Width: 589
VWidth: 1473
Flags: W
HStem: 284 56<0 589>
VStem: 0 589<284 340 284 340 284 284>
Fore
0 340 m 1
 589 340 l 1
 589 284 l 1
 0 284 l 1
 0 340 l 1
EndSplineSet
EndChar
StartChar: emdash
Encoding: 8212 8212 304
Width: 1324
VWidth: 1473
Flags: W
HStem: 284 58<0 1324>
VStem: 0 1324<284 342 284 342 284 284>
Fore
0 342 m 1
 1324 342 l 1
 1324 284 l 1
 0 284 l 1
 0 342 l 1
EndSplineSet
EndChar
StartChar: quoteleft
Encoding: 8216 8216 305
Width: 293
VWidth: 1473
Flags: W
HStem: 457 125<128.48 189.79>
VStem: 71 137<478.158 567.505>
Fore
148 582 m 0
 180 582 208 559 208 524 c 0
 208 485 176 457 140 457 c 0
 113 457 71 477 71 543 c 0
 71 619 145 685 186 685 c 0
 200 685 216 677 216 665 c 0
 216 658 211 651 202 645 c 1
 143 620 131 601 124 576 c 1
 132 581 136 582 148 582 c 0
EndSplineSet
EndChar
StartChar: quoteright
Encoding: 8217 8217 306
Width: 309
VWidth: 1473
Flags: W
HStem: 560 125<107.413 169.883>
VStem: 90 137<572.514 663.701>
Fore
149 560 m 0
 113 560 90 586 90 617 c 0
 90 654 117 685 157 685 c 0
 185 685 227 665 227 599 c 0
 227 528 158 457 112 457 c 0
 104 457 82 461 82 477 c 0
 82 508 155 500 174 566 c 1
 165 560 163 560 149 560 c 0
EndSplineSet
EndChar
StartChar: quotesinglbase
Encoding: 8218 8218 307
Width: 294
VWidth: 1473
Flags: W
HStem: -6 125<98.4975 160.811>
VStem: 81 137<7.375 98.1682>
Fore
141 -6 m 0
 105 -6 81 21 81 52 c 0
 81 89 110 119 148 119 c 0
 176 119 218 99 218 33 c 0
 218 -35 152 -109 103 -109 c 0
 87 -109 73 -101 73 -89 c 0
 73 -82 78 -75 87 -69 c 1
 146 -44 158 -25 165 0 c 1
 153 -8 148 -6 141 -6 c 0
EndSplineSet
EndChar
StartChar: quotedblleft
Encoding: 8220 8220 308
Width: 481
VWidth: 1473
Flags: W
HStem: 458 125<126.117 188.701 313.337 375.701>
VStem: 69 137<480.033 568.998> 256 137<480.033 569.285>
Fore
334 583 m 0
 370 583 393 557 393 526 c 0
 393 489 366 458 327 458 c 0
 299 458 256 478 256 543 c 0
 256 613 325 687 371 687 c 0
 385 687 401 681 401 666 c 0
 401 635 328 643 309 577 c 1
 318 583 323 583 334 583 c 0
147 583 m 0
 183 583 206 557 206 526 c 0
 206 489 179 458 140 458 c 0
 112 458 69 478 69 543 c 0
 69 612 137 687 184 687 c 0
 198 687 214 681 214 666 c 0
 214 635 141 643 122 577 c 1
 131 583 133 583 147 583 c 0
EndSplineSet
EndChar
StartChar: quotedblright
Encoding: 8221 8221 309
Width: 481
VWidth: 1473
Flags: W
HStem: 560 125<107.413 169.883 294.413 356.883>
VStem: 90 137<572.514 663.701> 277 137<572.514 663.701>
Fore
149 560 m 0
 113 560 90 586 90 617 c 0
 90 654 117 685 157 685 c 0
 185 685 227 665 227 599 c 0
 227 528 158 457 112 457 c 0
 104 457 82 461 82 477 c 0
 82 508 155 500 174 566 c 1
 165 560 163 560 149 560 c 0
336 560 m 0
 300 560 277 586 277 617 c 0
 277 654 304 685 344 685 c 0
 372 685 414 665 414 599 c 0
 414 528 345 457 299 457 c 0
 291 457 269 461 269 477 c 0
 269 508 342 500 361 566 c 1
 352 560 350 560 336 560 c 0
EndSplineSet
EndChar
StartChar: quotedblbase
Encoding: 8222 8222 310
Width: 508
VWidth: 1473
Flags: W
HStem: -6 125<109.21 170.811 293.253 355.449>
VStem: 91 137<7.375 97.8418> 268 144<8.52344 98.8291>
Fore
151 -6 m 0
 115 -6 91 21 91 52 c 0
 91 91 123 119 159 119 c 0
 186 119 228 100 228 33 c 0
 228 -35 163 -109 113 -109 c 0
 97 -109 83 -101 83 -89 c 0
 83 -82 88 -75 97 -69 c 1
 156 -44 168 -25 175 0 c 1
 163 -8 158 -6 151 -6 c 0
335 -6 m 0
 299 -6 275 21 275 52 c 0
 275 88 304 119 343 119 c 0
 363 119 412 106 412 36 c 0
 412 -38 344 -109 297 -109 c 0
 284 -109 268 -103 268 -89 c 0
 268 -82 272 -75 281 -69 c 1
 341 -43 352 -26 359 0 c 1
 352 -6 346 -6 335 -6 c 0
EndSplineSet
EndChar
StartChar: dagger
Encoding: 8224 8224 311
Width: 630
VWidth: 1473
Flags: W
HStem: 432 56<55.8148 281 342 571.562>
VStem: 281 61<-218.664 432 488 726.676>
Fore
312 728 m 0
 327.902 728 342 714.934 342 697 c 2
 342 488 l 1
 544 488 l 2
 562.667 488 572 478.667 572 460 c 256
 572 441.333 562.667 432 544 432 c 2
 342 432 l 1
 342 -192 l 2
 342 -206.559 328.408 -220 312 -220 c 0
 294.589 -220 281 -206.998 281 -192 c 2
 281 432 l 1
 84 432 l 2
 69.4 432 55 443.2 55 460 c 256
 55 474.566 67.4983 488 84 488 c 2
 281 488 l 1
 281 697 l 2
 281 715.445 295.114 728 312 728 c 0
EndSplineSet
EndChar
StartChar: daggerdbl
Encoding: 8225 8225 312
Width: 624
VWidth: 1473
Flags: W
HStem: 55 53<77.708 283 339 533.979> 432 59<77.9986 283 339 546.787>
VStem: 77 471<55.8789 106.904 433.105 489.854 80 461 80 80> 283 56<-193.316 55 108 432 491 731.316>
Fore
548 461 m 256xe0
 548 444.414 533.488 432 519 432 c 2
 339 432 l 1
 339 108 l 1xd0
 519 108 l 2
 534.453 108 548 94.1296 548 80 c 256xe0
 548 60 528.1 55 519 55 c 2
 339 55 l 1
 339 -166 l 2
 339 -182.8 326.4 -194 311 -194 c 0
 292.333 -194 283 -184.667 283 -166 c 2
 283 55 l 1xd0
 106 55 l 2
 86.6667 55 77 63.3333 77 80 c 0xe0
 77 95.0055 88.4394 108 106 108 c 2
 283 108 l 1
 283 432 l 1xd0
 106 432 l 2
 88.6 432 77 445.05 77 461 c 256xe0
 77 477.55 88.6 491 106 491 c 2
 283 491 l 1
 283 704 l 2
 283 722.667 292.333 732 311 732 c 0
 327.8 732 339 719.4 339 704 c 2
 339 491 l 1xd0
 519 491 l 2
 533.475 491 548 477.465 548 461 c 256xe0
EndSplineSet
EndChar
StartChar: bullet
Encoding: 8226 8226 313
Width: 471
VWidth: 1473
Flags: W
HStem: 169 245<166.305 303.378>
VStem: 112 246<223.764 363.047>
Fore
112 293 m 0
 109.22 365.276 168.352 414 236 414 c 256
 301.957 414 358 365.591 358 293 c 0
 358 218.191 295.92 169 236 169 c 0
 171.25 169 112 219.089 112 293 c 0
EndSplineSet
EndChar
